<?xml version="1.0" encoding="UTF-8" standalone="no"?>
<!DOCTYPE svg PUBLIC "-//W3C//DTD SVG 1.1//EN" "http://www.w3.org/Graphics/SVG/1.1/DTD/svg11.dtd">
<svg width="100%" height="100%" viewBox="0 0 900 827" version="1.1" xmlns="http://www.w3.org/2000/svg" xmlns:xlink="http://www.w3.org/1999/xlink" xml:space="preserve" xmlns:serif="http://www.serif.com/" style="fill-rule:evenodd;clip-rule:evenodd;stroke-linejoin:round;stroke-miterlimit:2;">
    <g transform="matrix(1,0,0,1,-849.875813,-705.803659)">
        <path d="M932.146,1526.047C931.28,1530.377 927.062,1533.189 922.732,1532.323C918.403,1531.457 915.591,1527.239 916.456,1522.909C940.138,1404.504 1068.628,1181.6 1290.688,1058.232C1602.994,884.729 1637.656,836.939 1658.336,807.987C1665.666,797.725 1698.608,764.69 1702.244,761.055C1705.366,757.933 1710.436,757.933 1713.558,761.055C1716.68,764.177 1716.68,769.247 1713.557,772.369C1710.071,775.855 1678.385,807.446 1671.356,817.287C1650.352,846.693 1615.664,895.993 1298.459,1072.219C1081.391,1192.812 955.295,1410.304 932.146,1526.047Z" style="fill:rgb(67,135,96);"/>
        <path d="M1728.263,728.98C1711.27,746.251 1709.797,750.837 1708.064,753.894C1707.24,755.347 1706.367,756.596 1704.947,758.017C1701.825,761.139 1696.755,761.139 1693.633,758.017C1690.511,754.895 1690.511,749.825 1693.633,746.703C1694.756,745.58 1694.839,744.62 1695.837,742.875C1698.185,738.771 1703.112,731.483 1719.466,715.13C1725.062,709.533 1729.281,707.077 1731.997,706.292C1735.175,705.373 1737.713,705.826 1739.723,706.771C1743.019,708.321 1746.007,712.221 1746.021,718.628C1746.042,728.342 1738.844,748.121 1738.354,749.428C1736.803,753.563 1732.188,755.66 1728.054,754.11C1723.92,752.56 1721.822,747.945 1723.373,743.81C1723.634,743.113 1726.383,736.032 1728.263,728.98Z" style="fill:rgb(67,135,96);"/>
        <path d="M1647.54,809.851C1650.662,812.973 1650.662,818.042 1647.54,821.164C1644.417,824.286 1639.348,824.286 1636.226,821.164C1633.367,818.305 1624.159,809.971 1619.593,773.445C1619.046,769.063 1622.158,765.062 1626.539,764.514C1630.92,763.966 1634.922,767.079 1635.47,771.46C1639.106,800.548 1645.264,807.574 1647.54,809.851Z" style="fill:rgb(67,135,96);"/>
        <path d="M1641.543,800.134C1637.354,801.53 1632.82,799.263 1631.423,795.074C1630.027,790.886 1632.294,786.351 1636.483,784.955C1639.705,783.881 1642.283,783.994 1644.627,782.29C1646.11,781.212 1647.299,779.251 1648.869,775.854C1649.248,775.033 1649.633,774.147 1650.025,773.192C1647.9,774.991 1645.404,777.375 1641.799,780.98C1638.677,784.102 1633.608,784.102 1630.485,780.979C1627.363,777.857 1627.363,772.788 1630.486,769.666C1644.094,756.057 1643.649,757.719 1660.345,748.178C1663.163,746.568 1666.676,746.82 1669.235,748.817C1671.794,750.813 1672.894,754.159 1672.017,757.284C1664.771,783.122 1659.179,791.492 1654.036,795.231C1650.365,797.9 1646.589,798.452 1641.543,800.134Z" style="fill:rgb(67,135,96);"/>
        <path d="M1613.889,768.675C1613.409,768.54 1612.935,768.358 1612.472,768.126C1608.523,766.152 1606.92,761.342 1608.895,757.393C1611.016,753.15 1611.344,748.536 1611.535,744.88C1611.728,741.168 1611.849,738.094 1612.316,736.217C1612.61,735.033 1613.022,734.051 1613.477,733.253L1615.46,730.801L1618.255,729.112L1621.409,728.518C1623.439,728.494 1627.581,729.615 1633.188,735.222C1634.931,736.964 1636.811,741.025 1634.818,746.797C1633.74,749.92 1631.242,754.802 1629.973,759.837C1629.345,762.328 1628.498,764.975 1630.318,766.796C1633.44,769.918 1633.44,774.987 1630.318,778.109C1627.195,781.231 1622.126,781.231 1619.004,778.109C1616.259,775.364 1614.634,772.147 1613.889,768.675Z" style="fill:rgb(67,135,96);"/>
        <path d="M1624.038,783.524C1626.495,785.571 1627.582,788.989 1626.51,792.204C1625.114,796.393 1620.579,798.66 1616.391,797.264C1611.54,795.647 1608.743,794.823 1606.224,793.161C1602.616,790.781 1599.314,786.557 1591.882,773.551C1590.041,770.33 1590.657,766.265 1593.369,763.734C1596.082,761.202 1600.179,760.868 1603.266,762.926C1614.307,770.286 1612.51,769.08 1621.707,778.277C1623.164,779.734 1623.941,781.614 1624.038,783.524Z" style="fill:rgb(67,135,96);"/>
        <path d="M1667.632,838.386C1664.51,841.508 1659.44,841.508 1656.318,838.386C1653.196,835.264 1653.196,830.194 1656.319,827.072C1662.078,821.313 1666.488,819.187 1670.241,818.529C1673.333,817.988 1676.22,818.346 1679.317,819.374C1683.345,820.71 1688.059,823.936 1697.144,824.762C1701.541,825.162 1704.786,829.056 1704.386,833.454C1703.987,837.851 1700.092,841.096 1695.695,840.696C1688.716,840.062 1683.731,838.395 1679.747,836.786C1677.907,836.043 1676.327,835.313 1674.86,834.766C1674.181,834.512 1673.624,834.139 1672.953,834.3C1671.425,834.666 1669.941,836.077 1667.632,838.386Z" style="fill:rgb(67,135,96);"/>
        <path d="M1688.644,831.735C1688.346,832.027 1688.039,832.331 1687.725,832.645C1684.603,835.767 1679.533,835.768 1676.411,832.646C1673.289,829.524 1673.289,824.454 1676.411,821.332C1687.216,810.525 1692.299,808.936 1696.648,807.983C1698.446,807.589 1700.139,807.573 1702.683,806.302C1705.864,804.711 1709.714,805.412 1712.13,808.021C1714.547,810.631 1714.95,814.523 1713.12,817.573L1703.279,833.975C1701.008,837.761 1696.089,838.99 1692.303,836.719C1690.39,835.571 1689.13,833.747 1688.644,831.735Z" style="fill:rgb(67,135,96);"/>
        <path d="M1052.283,1254.567C1053.922,1258.666 1051.926,1263.326 1047.826,1264.965C1043.726,1266.605 1039.067,1264.608 1037.427,1260.509C1033.395,1250.43 1013.859,1201.554 981.768,1155.522C960.811,1125.459 934.518,1096.5 903.502,1080.992C899.552,1079.018 897.949,1074.208 899.924,1070.259C901.898,1066.31 906.708,1064.707 910.657,1066.681C943.936,1083.32 972.407,1114.117 994.894,1146.372C1027.969,1193.815 1048.127,1244.178 1052.283,1254.567Z" style="fill:rgb(67,135,96);"/>
        <path d="M1495.949,1220.487C1460.691,1213.928 1372.702,1207.015 1224.384,1236.679C1143.577,1252.84 1142.815,1244.799 1064.607,1270.868C1060.418,1272.264 1055.884,1269.997 1054.487,1265.808C1053.091,1261.619 1055.358,1257.085 1059.547,1255.689C1138.707,1229.303 1139.457,1237.348 1221.246,1220.99C1382.754,1188.688 1474.519,1199.195 1505.829,1206.187C1513.06,1207.802 1517.465,1209.377 1519.198,1210.263C1520.18,1210.765 1520.86,1211.263 1521.307,1211.643L1522.867,1213.378L1524.002,1215.871L1524.253,1218.536L1523.893,1220.408L1523.124,1222.113L1521.102,1224.383L1517.956,1225.88L1514.916,1226.12C1512.769,1226.001 1507.303,1224.938 1498.707,1222.072C1497.658,1221.722 1496.73,1221.176 1495.949,1220.487Z" style="fill:rgb(67,135,96);"/>
        <path d="M1232.993,1106.326C1229.32,1108.775 1224.349,1107.781 1221.899,1104.107C1219.45,1100.434 1220.444,1095.462 1224.118,1093.013C1241.824,1081.209 1254.544,1071.633 1260.697,1056.915C1265.28,1045.953 1266.109,1032.276 1263.293,1013.086C1260.253,992.368 1252.963,965.69 1241.059,929.98C1239.662,925.791 1241.93,921.257 1246.118,919.861C1250.307,918.464 1254.841,920.731 1256.238,924.92C1268.531,961.798 1275.984,989.368 1279.124,1010.763C1282.488,1033.688 1280.934,1049.991 1275.459,1063.086C1268.203,1080.443 1253.873,1092.406 1232.993,1106.326Z" style="fill:rgb(67,135,96);"/>
        <path d="M1636.161,1019.913C1638.203,1019.918 1640.243,1020.698 1641.799,1022.255C1644.3,1024.755 1644.916,1026.704 1645.03,1027.146L1645.181,1030.468L1643.883,1033.702L1641.295,1036.105L1638.032,1037.157C1637.572,1037.202 1635.486,1037.289 1632.289,1035.76C1624.613,1032.089 1586.483,1014.37 1496.38,1024.381C1439.977,1030.648 1411.112,1031.508 1393.903,1033.243C1379.313,1034.714 1374.535,1036.763 1366.248,1045.05C1363.125,1048.172 1358.056,1048.172 1354.934,1045.05C1351.812,1041.927 1351.812,1036.858 1354.934,1033.736C1366.181,1022.49 1372.497,1019.32 1392.298,1017.324C1409.479,1015.591 1438.3,1014.736 1494.613,1008.479C1581.826,998.789 1623.234,1014.119 1636.161,1019.913Z" style="fill:rgb(67,135,96);"/>
        <path d="M1496.147,931.245C1502.158,927.296 1520.001,911.558 1531.947,892.316C1539.365,880.366 1544.718,867.041 1542.188,854.391C1541.322,850.061 1544.134,845.843 1548.464,844.977C1552.793,844.111 1557.011,846.923 1557.877,851.253C1561.163,867.681 1555.174,885.236 1545.54,900.755C1531.964,922.625 1511.494,940.348 1504.789,944.711C1502.133,946.439 1500.051,946.873 1499.18,946.944L1495.875,946.547L1494.3,945.825L1492.71,944.588C1489.588,941.466 1489.588,936.397 1492.71,933.275C1493.701,932.284 1494.888,931.607 1496.147,931.245ZM1502.127,931.868C1502.809,932.231 1503.449,932.7 1504.023,933.274C1503.485,932.736 1502.86,932.254 1502.127,931.868Z" style="fill:rgb(67,135,96);"/>
        <path d="M1045.977,1223.478C1041.788,1224.874 1037.254,1222.607 1035.858,1218.418C1034.461,1214.23 1036.729,1209.695 1040.917,1208.299C1048.768,1205.682 1050.417,1197.568 1051.197,1189.386C1052.298,1177.837 1050.872,1165.431 1051.762,1158.313C1052.309,1153.932 1056.311,1150.819 1060.692,1151.367C1065.073,1151.915 1068.186,1155.916 1067.638,1160.297C1066.56,1168.925 1068.797,1185.24 1065.99,1198.526C1063.545,1210.104 1057.683,1219.576 1045.977,1223.478Z" style="fill:rgb(67,135,96);"/>
        <path d="M1044.614,1203.517C1046.77,1206.634 1046.461,1210.946 1043.686,1213.72C1040.564,1216.842 1035.495,1216.842 1032.373,1213.72C1030.466,1211.813 1029.071,1209.057 1028.671,1205.427C1028.342,1202.443 1028.718,1198.538 1029.734,1194.201C1032.896,1180.707 1042.28,1161.81 1043.515,1159.339C1045.49,1155.39 1050.299,1153.787 1054.248,1155.761C1058.197,1157.736 1059.801,1162.545 1057.826,1166.495C1056.713,1168.72 1048.16,1185.699 1045.312,1197.851C1044.849,1199.827 1044.665,1202.59 1044.614,1203.517Z" style="fill:rgb(67,135,96);"/>
        <path d="M1025.5,1118.566C1025.979,1119.292 1026.832,1120.599 1027.507,1121.723C1029.92,1125.742 1032.607,1131.457 1032.977,1139.932C1033.344,1148.312 1031.386,1159.782 1023.515,1175.524C1021.54,1179.473 1016.731,1181.076 1012.782,1179.101C1008.832,1177.127 1007.229,1172.317 1009.204,1168.368C1015.986,1154.805 1017.618,1145.463 1016.849,1138.809C1016.163,1132.872 1013.474,1129.456 1012.039,1127.222C1009.323,1122.994 1009.15,1119.519 1009.974,1117.047C1011.37,1112.858 1015.904,1110.591 1020.093,1111.987C1023.103,1112.99 1025.121,1115.614 1025.5,1118.566Z" style="fill:rgb(67,135,96);"/>
        <path d="M1018.928,1160.039C1019.187,1164.447 1015.819,1168.236 1011.412,1168.495C1007.004,1168.755 1003.215,1165.387 1002.956,1160.979C1000.53,1119.742 1002.692,1116.983 1004.388,1113.591C1006.363,1109.642 1011.172,1108.039 1015.121,1110.013C1019.071,1111.988 1020.674,1116.797 1018.699,1120.746C1018.217,1121.711 1017.968,1122.622 1017.823,1126.19C1017.594,1131.793 1017.845,1141.621 1018.928,1160.039Z" style="fill:rgb(67,135,96);"/>
        <path d="M970.768,1098.83C969.932,1099.644 968.904,1100.286 967.723,1100.68C963.535,1102.076 959,1099.809 957.604,1095.62C953.951,1084.662 951.578,1067.159 951.244,1064.652C950.727,1060.777 953.087,1057.096 956.824,1055.948C960.561,1054.799 964.581,1056.52 966.329,1060.017C969.868,1067.094 975.029,1073.218 979.213,1079.766C986.957,1091.887 991.992,1105.122 984.058,1124.955C982.419,1129.055 977.759,1131.052 973.659,1129.412C969.56,1127.772 967.563,1123.113 969.203,1119.013C972.434,1110.936 972.427,1104.479 970.768,1098.83Z" style="fill:rgb(67,135,96);"/>
        <path d="M927.876,1072.252C927.798,1071.673 927.665,1071.003 927.438,1070.414C927.208,1069.819 926.918,1069.209 926.563,1068.586C923.365,1068.542 920.368,1066.568 919.178,1063.394L917.011,1057.615C915.757,1054.272 916.871,1050.503 919.74,1048.378C922.609,1046.253 926.54,1046.286 929.372,1048.46C941.729,1057.943 944.269,1067.846 944.003,1073.987C943.82,1078.201 942.284,1081.324 940.738,1083.152L937.877,1085.542L934.947,1086.615L931.983,1086.69L929.111,1085.799C925.161,1083.825 923.558,1079.015 925.533,1075.066C926.105,1073.921 926.916,1072.973 927.876,1072.252Z" style="fill:rgb(67,135,96);"/>
        <path d="M907.974,1053.43C911.923,1055.404 913.526,1060.214 911.552,1064.163C909.577,1068.112 904.768,1069.715 900.819,1067.741C896.251,1065.457 893.751,1063.217 891.574,1061.124C889.851,1059.468 888.532,1057.943 884.398,1056.909C880.592,1055.958 877.767,1055.298 875.42,1054.751C875.988,1055.148 876.585,1055.549 877.215,1055.96C880.924,1058.382 885.508,1061.054 891.212,1064.656C894.945,1067.014 896.062,1071.959 893.704,1075.692C891.346,1079.425 886.401,1080.542 882.668,1078.184C860.675,1064.294 853.833,1061.648 850.031,1042.642C849.463,1039.802 850.474,1036.877 852.674,1034.995C854.874,1033.112 857.92,1032.565 860.638,1033.565C874.325,1038.6 874.322,1037.898 888.278,1041.387C895.36,1043.157 898.443,1045.599 901.333,1048.314C902.98,1049.862 904.447,1051.666 907.974,1053.43Z" style="fill:rgb(67,135,96);"/>
        <path d="M920.074,1099.553C920.42,1099.658 920.776,1099.765 921.142,1099.875C925.371,1101.143 927.775,1105.607 926.506,1109.836C925.237,1114.065 920.774,1116.469 916.544,1115.2C901.912,1110.81 902.416,1110.39 888.554,1104.089C885.221,1102.574 883.342,1098.989 883.992,1095.386C884.642,1091.783 887.655,1089.081 891.308,1088.826C902.771,1088.026 902.3,1087.171 913.637,1085.754C918.019,1085.207 922.02,1088.319 922.568,1092.7C922.899,1095.35 921.891,1097.861 920.074,1099.553Z" style="fill:rgb(67,135,96);"/>
        <path d="M928.637,1119.223C931.445,1118.949 939.496,1118.364 953.999,1118.803C958.412,1118.937 961.887,1122.629 961.753,1127.042C961.619,1131.455 957.927,1134.93 953.514,1134.796C932.218,1134.151 927.769,1135.489 926.016,1135.257L922.719,1134.196L920.41,1132.457C917.288,1129.335 917.288,1124.265 920.41,1121.143C922.633,1118.919 925.845,1118.279 928.637,1119.223Z" style="fill:rgb(67,135,96);"/>
        <path d="M914.697,1143.726C912.249,1144.118 909.654,1143.371 907.769,1141.486C904.647,1138.364 904.647,1133.294 907.769,1130.172L909.634,1128.736L911.543,1127.895L913.557,1127.488C914.274,1127.418 915.063,1127.417 915.911,1127.511C917.675,1127.707 920.027,1128.468 922.379,1129.533C924.193,1130.355 926.02,1131.451 927.061,1131.749C941.016,1135.736 940.538,1138.807 972.686,1137.467C977.097,1137.283 980.828,1140.716 981.012,1145.127C981.196,1149.539 977.763,1153.27 973.352,1153.453C937.64,1154.941 938.168,1151.562 922.665,1147.133C921.176,1146.708 916.493,1144.56 914.697,1143.726Z" style="fill:rgb(67,135,96);"/>
        <path d="M1002.171,1189.021C1002.812,1189.375 1003.414,1189.824 1003.958,1190.367C1007.08,1193.489 1007.08,1198.559 1003.958,1201.681C1002.986,1202.653 1000.316,1204.346 996.076,1204.592C989.545,1204.971 975.401,1203.185 973.058,1202.248C964.662,1198.89 959.007,1201.473 932.005,1184.347C929.367,1182.674 927.944,1179.619 928.361,1176.524C928.778,1173.428 930.958,1170.859 933.944,1169.943C950.309,1164.925 980.871,1170.26 993.481,1173.793C998.521,1175.206 1001.497,1177.071 1002.152,1177.726C1005.268,1180.842 1005.274,1185.897 1002.171,1189.021ZM983.107,1187.618C979.759,1186.841 975.831,1186.048 971.65,1185.375C974.316,1185.985 976.535,1186.407 979,1187.392C978.947,1187.371 978.77,1187.291 978.77,1187.291L983.107,1187.618Z" style="fill:rgb(67,135,96);"/>
        <path d="M1029.337,1246.631C1030.715,1247.582 1031.807,1248.971 1032.376,1250.68C1033.772,1254.869 1031.505,1259.403 1027.316,1260.799C1025.323,1261.463 1023.599,1262.564 1017.236,1260.07C1014.138,1258.856 1008.739,1256.188 998.629,1250.572C986.306,1243.725 983.675,1239.465 973.721,1225.797C971.752,1223.094 971.673,1219.451 973.521,1216.665C975.37,1213.878 978.756,1212.535 982.012,1213.298C993.378,1215.96 1017.472,1224.071 1030.428,1232.708C1034.102,1235.157 1035.096,1240.128 1032.647,1243.802C1031.795,1245.08 1030.638,1246.034 1029.337,1246.631Z" style="fill:rgb(67,135,96);"/>
        <path d="M1155.291,1223.385C1153.669,1224.542 1152.21,1225.567 1150.89,1226.499C1144.809,1230.791 1142.259,1232.39 1139.691,1237.525C1137.717,1241.474 1132.907,1243.077 1128.958,1241.103C1125.009,1239.128 1123.406,1234.319 1125.381,1230.369C1128.59,1223.951 1131.539,1220.834 1137.478,1216.432C1144.514,1211.216 1156.763,1203.631 1182.563,1181.168C1184.819,1179.203 1187.983,1178.662 1190.764,1179.764C1193.545,1180.866 1195.478,1183.428 1195.776,1186.405C1198.203,1210.678 1182.786,1220.182 1167.885,1230.826C1164.292,1233.392 1159.292,1232.559 1156.726,1228.966C1155.524,1227.283 1155.067,1225.291 1155.291,1223.385Z" style="fill:rgb(67,135,96);"/>
        <path d="M1251.601,1195.244C1250.329,1196.43 1248.909,1197.707 1247.297,1199.088C1244.557,1201.438 1216.769,1224.953 1213.834,1229.355C1211.385,1233.029 1206.414,1234.023 1202.74,1231.574C1199.067,1229.125 1198.072,1224.154 1200.522,1220.48C1203.739,1215.654 1233.88,1189.516 1236.885,1186.94C1255.088,1171.338 1252.717,1167.719 1275.745,1160.929C1278.665,1160.068 1281.82,1160.938 1283.885,1163.175C1285.95,1165.411 1286.567,1168.626 1285.477,1171.468C1279.926,1185.933 1278.439,1184.638 1269.695,1197.026C1255.197,1217.565 1257.62,1219.915 1236.13,1233.488C1232.397,1235.845 1227.452,1234.729 1225.094,1230.996C1222.736,1227.263 1223.853,1222.318 1227.586,1219.96C1243.405,1209.969 1244.185,1206.734 1251.601,1195.244Z" style="fill:rgb(67,135,96);"/>
        <path d="M1326.197,1198.774C1325.137,1199.552 1324.092,1200.316 1323.067,1201.065C1318.846,1204.147 1315.015,1206.964 1312.047,1209.626C1310.169,1211.31 1308.578,1212.679 1308.07,1214.205C1306.674,1218.394 1302.139,1220.661 1297.95,1219.264C1293.762,1217.868 1291.495,1213.334 1292.891,1209.145C1293.895,1206.133 1296.031,1202.916 1299.288,1199.672C1302.833,1196.14 1307.895,1192.333 1313.63,1188.144C1326.049,1179.074 1342.237,1168.031 1349.603,1152.247C1351.133,1148.97 1354.671,1147.127 1358.233,1147.751C1361.796,1148.375 1364.496,1151.311 1364.82,1154.913C1365.058,1157.549 1366.342,1173.204 1360.985,1186.125C1356.829,1196.15 1349.078,1204.633 1335.182,1206.37C1330.801,1206.918 1326.799,1203.806 1326.251,1199.424C1326.224,1199.206 1326.206,1198.989 1326.197,1198.774ZM1340.086,1187.987C1340.99,1187.371 1341.799,1186.666 1342.524,1185.893C1341.716,1186.602 1340.903,1187.3 1340.086,1187.987Z" style="fill:rgb(67,135,96);"/>
        <path d="M1375.814,1187.764C1376.498,1187.102 1377.401,1186.224 1378.199,1185.432C1387.675,1176.029 1409.416,1155.54 1453.19,1147.815C1457.02,1147.139 1460.781,1149.316 1462.103,1152.973C1463.426,1156.631 1461.926,1160.71 1458.549,1162.639C1445.125,1170.31 1446.98,1172.345 1425.665,1196.502C1422.744,1199.812 1417.685,1200.129 1414.374,1197.207C1411.063,1194.286 1410.747,1189.226 1413.668,1185.916C1418.393,1180.561 1422.109,1176.203 1425.151,1172.588C1406.216,1180.707 1395.252,1191.051 1389.47,1196.789C1386.588,1199.648 1384.536,1201.554 1383.339,1202.286L1381.557,1203.153L1379.589,1203.631L1376.501,1203.448L1373.558,1202.07L1372.214,1200.841L1370.977,1199C1369.002,1195.051 1370.605,1190.241 1374.554,1188.267C1374.966,1188.061 1375.387,1187.894 1375.814,1187.764ZM1383.651,1189.629C1384.304,1190.25 1384.862,1190.993 1385.287,1191.844C1384.83,1190.93 1384.276,1190.204 1383.651,1189.629Z" style="fill:rgb(67,135,96);"/>
        <path d="M1484.117,1193.716C1484.137,1193.221 1484.179,1192.563 1484.263,1191.781C1473.694,1196.548 1460.612,1202.446 1449.886,1206.021C1445.698,1207.418 1441.163,1205.151 1439.767,1200.962C1438.371,1196.773 1440.638,1192.239 1444.827,1190.843C1461.207,1185.382 1483.119,1174.442 1492.961,1170.559C1497.469,1168.781 1500.763,1168.495 1502,1168.686L1504.918,1169.695L1507.299,1171.726L1508.845,1174.828L1509.1,1176.632L1508.898,1178.738C1508.649,1179.852 1507.397,1182.787 1503.127,1186.448C1498.957,1190.022 1500.256,1193.89 1500.027,1196.266C1499.577,1200.935 1497.737,1204.157 1493.673,1206.189C1489.723,1208.164 1484.914,1206.561 1482.94,1202.612C1481.434,1199.6 1482.008,1196.089 1484.117,1193.716Z" style="fill:rgb(67,135,96);"/>
        <path d="M1508.12,1203.782C1504.17,1205.756 1499.361,1204.153 1497.386,1200.204C1495.412,1196.255 1497.015,1191.445 1500.964,1189.471C1544.878,1167.514 1546.254,1170.311 1555.237,1172.167C1558.03,1172.744 1560.304,1174.763 1561.207,1177.468C1562.11,1180.172 1561.505,1183.153 1559.62,1185.292C1552.161,1193.753 1552.594,1193.688 1546.917,1203.15C1545.985,1204.703 1541.735,1212.429 1528.152,1215.824C1523.869,1216.895 1519.522,1214.287 1518.451,1210.003C1517.38,1205.72 1519.988,1201.373 1524.272,1200.302C1530.524,1198.739 1532.768,1195.633 1533.197,1194.918C1534.251,1193.161 1535.12,1191.695 1535.874,1190.429C1530.121,1192.892 1521.612,1197.035 1508.12,1203.782Z" style="fill:rgb(67,135,96);"/>
        <path d="M1587.307,1225.934C1591.139,1224.372 1595.594,1226.005 1597.475,1229.767C1599.45,1233.717 1597.847,1238.526 1593.898,1240.501C1590.562,1242.168 1585.507,1242.451 1579.415,1240.673C1570.641,1238.112 1558.314,1231.247 1547.674,1226.555C1544.629,1225.213 1541.748,1224.066 1539.184,1223.362C1538.262,1223.109 1537.027,1222.942 1536.241,1222.854C1533.914,1225.614 1529.917,1226.535 1526.547,1224.85C1522.598,1222.875 1520.995,1218.066 1522.969,1214.117C1524.904,1210.248 1528.056,1207.952 1532.308,1207.094C1535.905,1206.367 1540.837,1206.961 1546.445,1208.867C1555.867,1212.07 1568.151,1219.002 1578.164,1223.209C1581.612,1224.658 1586.541,1225.766 1587.307,1225.934Z" style="fill:rgb(67,135,96);"/>
        <path d="M1517.057,1229.653C1517.973,1230.326 1519.097,1231.103 1520.136,1231.69C1528.641,1236.501 1543.13,1241.576 1556.482,1241.731C1564.058,1241.819 1571.323,1240.426 1576.236,1235.514C1579.358,1232.392 1584.427,1232.392 1587.549,1235.514C1590.672,1238.636 1590.672,1243.705 1587.549,1246.827C1578.682,1255.695 1565.361,1258.581 1551.529,1257.515C1532.566,1256.053 1512.94,1247.289 1505.57,1241.104C1500.376,1236.745 1499.584,1231.86 1500.246,1229.033L1501.853,1225.576L1503.645,1223.737L1505.479,1222.578C1509.428,1220.603 1514.237,1222.207 1516.212,1226.156C1516.774,1227.28 1517.046,1228.475 1517.057,1229.653Z" style="fill:rgb(67,135,96);"/>
        <path d="M1106.78,1270.574C1106.454,1269.14 1106.109,1267.51 1105.73,1265.614C1104.864,1261.284 1107.676,1257.066 1112.006,1256.2C1116.335,1255.334 1120.553,1258.146 1121.419,1262.476C1123.868,1274.723 1124.781,1274.182 1129.887,1285.414C1131.316,1288.558 1130.566,1292.263 1128.029,1294.604C1125.491,1296.946 1121.737,1297.395 1118.719,1295.718C1110.871,1291.358 1099.663,1286.604 1093.625,1280.108C1087.695,1273.731 1085.27,1266.046 1090.166,1256.253C1092.141,1252.304 1096.951,1250.701 1100.9,1252.676C1104.849,1254.65 1106.452,1259.46 1104.477,1263.409C1102.923,1266.518 1104.53,1268.687 1106.78,1270.574Z" style="fill:rgb(67,135,96);"/>
        <path d="M1117.408,1262.825C1114.758,1259.293 1115.475,1254.274 1119.008,1251.625C1122.54,1248.976 1127.558,1249.693 1130.208,1253.225C1132.715,1256.568 1137.119,1259.277 1141.507,1261.553C1149.162,1265.523 1157.083,1267.95 1158.666,1268.437C1162.799,1269.709 1166.899,1270.911 1170.874,1272.03C1166.682,1266.966 1162.603,1260.804 1158.789,1253.176C1156.814,1249.226 1158.417,1244.417 1162.367,1242.442C1166.316,1240.468 1171.125,1242.071 1173.1,1246.02C1184.793,1269.407 1199.622,1276.153 1211.006,1281.845C1214.521,1283.603 1216.239,1287.653 1215.06,1291.402C1213.88,1295.15 1210.153,1297.487 1206.265,1296.915C1200.122,1296.012 1177.547,1290.987 1153.96,1283.73C1152.131,1283.167 1142.986,1280.344 1134.141,1275.756C1127.529,1272.327 1121.185,1267.862 1117.408,1262.825Z" style="fill:rgb(67,135,96);"/>
        <path d="M1471.697,1225.736C1470.495,1223.927 1470.028,1221.637 1470.596,1219.366C1471.667,1215.082 1476.014,1212.474 1480.297,1213.545L1482.256,1214.252L1483.862,1215.252L1486.216,1217.874C1487.146,1219.312 1488.889,1223.198 1496.407,1234.666C1498.182,1237.373 1498.15,1240.883 1496.327,1243.558C1494.504,1246.233 1491.248,1247.545 1488.08,1246.883C1465.972,1242.262 1466.956,1240.531 1452.512,1234.753C1448.412,1233.114 1446.415,1228.454 1448.055,1224.355C1449.695,1220.255 1454.354,1218.258 1458.454,1219.898C1464.833,1222.45 1467.955,1224.17 1471.697,1225.736Z" style="fill:rgb(67,135,96);"/>
        <path d="M1398.285,1219.707C1398.587,1218.219 1399.314,1216.802 1400.466,1215.649C1403.588,1212.527 1408.658,1212.527 1411.78,1215.649C1413.05,1216.92 1413.185,1216.729 1431.16,1227.001C1434.63,1228.984 1436.104,1233.222 1434.614,1236.93C1433.125,1240.637 1429.127,1242.677 1425.251,1241.708C1400.839,1235.605 1401.109,1235.387 1375.815,1234.721C1371.401,1234.605 1367.912,1230.927 1368.028,1226.513C1368.144,1222.099 1371.822,1218.61 1376.236,1218.726C1386.581,1218.999 1392.93,1219.199 1398.285,1219.707Z" style="fill:rgb(67,135,96);"/>
        <path d="M1362.711,1252.235C1362.293,1252.032 1359.992,1250.873 1353.249,1246.827C1349.463,1244.555 1348.233,1239.637 1350.505,1235.851C1351.325,1234.483 1352.491,1233.449 1353.824,1232.793C1353.331,1231.965 1352.821,1231.252 1352.284,1230.633C1350.584,1228.673 1348.598,1228.077 1346.354,1227.257C1343.733,1226.299 1340.831,1225.294 1337.535,1223.646C1333.585,1221.671 1331.982,1216.862 1333.957,1212.913C1335.931,1208.964 1340.74,1207.361 1344.69,1209.335C1348.172,1211.076 1351.152,1211.92 1353.775,1212.958C1357.77,1214.539 1361.176,1216.467 1364.369,1220.148C1367.873,1224.187 1371.261,1230.801 1374.458,1243.326C1375.264,1246.485 1374.073,1249.818 1371.446,1251.749C1368.883,1253.634 1365.454,1253.818 1362.711,1252.235Z" style="fill:rgb(67,135,96);"/>
        <path d="M1324.999,1222.993C1325.038,1223.066 1325.101,1223.184 1325.157,1223.282C1327.776,1227.911 1341.22,1246.659 1371.78,1248.842C1376.184,1249.156 1379.504,1252.987 1379.189,1257.391C1378.875,1261.795 1375.044,1265.115 1370.64,1264.801C1326.33,1261.636 1310.541,1230.136 1310.047,1228.652C1308.65,1224.463 1310.917,1219.929 1315.106,1218.532C1319.091,1217.204 1323.388,1219.191 1324.999,1222.993Z" style="fill:rgb(67,135,96);"/>
        <path d="M1265.132,1232.679C1260.848,1231.608 1258.24,1227.261 1259.311,1222.977C1260.382,1218.694 1264.729,1216.086 1269.012,1217.157C1272.762,1218.094 1293.776,1222.901 1301.319,1253.075C1302.077,1256.106 1301.001,1259.301 1298.564,1261.256C1296.127,1263.211 1292.775,1263.568 1289.98,1262.171C1274.475,1254.418 1267.224,1253.312 1262.702,1252.045C1257.706,1250.646 1254.743,1249.101 1251.041,1244.165C1248.392,1240.632 1249.109,1235.614 1252.641,1232.965C1256.173,1230.315 1261.192,1231.032 1263.841,1234.565C1265.427,1236.68 1266.816,1236.605 1269.46,1237.272C1271.317,1237.739 1273.535,1238.303 1276.279,1239.163C1271.417,1234.393 1266.539,1233.031 1265.132,1232.679Z" style="fill:rgb(67,135,96);"/>
        <path d="M1222.108,1246.556C1221.455,1245.984 1220.814,1245.37 1220.23,1244.73C1218.405,1242.733 1217.114,1240.463 1216.572,1238.295C1215.502,1234.012 1218.11,1229.665 1222.393,1228.594C1226.443,1227.581 1230.549,1229.857 1231.89,1233.727C1232.407,1234.145 1235.362,1236.532 1235.673,1236.718C1247.005,1243.517 1252.548,1249.766 1255.389,1255.036C1259.77,1263.164 1257.967,1269.47 1258.207,1274.148C1258.367,1277.262 1256.704,1280.185 1253.945,1281.637C1251.187,1283.09 1247.836,1282.808 1245.359,1280.914C1232.494,1271.08 1233.54,1270.068 1218.95,1262.773C1215.339,1260.967 1211.327,1259.281 1207.902,1256.935C1203.219,1253.727 1199.499,1249.458 1197.912,1243.111C1196.841,1238.827 1199.449,1234.48 1203.733,1233.409C1208.016,1232.339 1212.363,1234.947 1213.434,1239.23C1214.12,1241.974 1216.218,1243.383 1218.362,1244.623C1219.575,1245.324 1220.841,1245.953 1222.108,1246.556Z" style="fill:rgb(67,135,96);"/>
        <path d="M1265.544,1052.24C1265.988,1052.695 1266.451,1053.165 1266.935,1053.649C1270.057,1056.771 1270.057,1061.841 1266.935,1064.963C1263.813,1068.085 1258.743,1068.085 1255.621,1064.963C1241.361,1050.702 1244.335,1048.854 1232.258,1032.618C1230.357,1030.063 1230.153,1026.623 1231.739,1023.861C1233.324,1021.099 1236.397,1019.54 1239.563,1019.893C1251.135,1021.182 1256.965,1023.68 1260.651,1026.409C1263.517,1028.531 1265.292,1030.894 1266.989,1033.548C1267.98,1035.1 1268.923,1036.827 1270.697,1038.6C1273.819,1041.722 1273.82,1046.792 1270.698,1049.914C1269.265,1051.347 1267.421,1052.122 1265.544,1052.24Z" style="fill:rgb(67,135,96);"/>
        <path d="M1244.254,993.614C1249.847,999.996 1254.343,1003.629 1268.618,1010.766C1272.567,1012.741 1274.171,1017.55 1272.196,1021.5C1270.221,1025.449 1265.412,1027.052 1261.463,1025.077C1236.021,1012.356 1238.113,1009.885 1218.981,988.751C1216.889,986.441 1216.33,983.125 1217.549,980.256C1218.767,977.387 1221.541,975.486 1224.656,975.387C1226.726,975.32 1241.051,975.011 1250.904,979.038C1256.947,981.508 1261.432,985.56 1263.224,990.938C1264.621,995.127 1262.354,999.661 1258.165,1001.057C1253.976,1002.453 1249.442,1000.186 1248.046,995.997C1247.792,995.236 1246.977,994.899 1246.199,994.479C1245.592,994.152 1244.938,993.867 1244.254,993.614Z" style="fill:rgb(67,135,96);"/>
        <path d="M1255.84,956.028C1258.054,958.402 1258.683,961.995 1257.147,965.067C1255.172,969.016 1250.363,970.619 1246.414,968.644C1230.998,960.936 1231.371,961.426 1217.804,950.874C1214.99,948.685 1213.964,944.899 1215.288,941.589C1216.611,938.279 1219.965,936.244 1223.512,936.599C1231.981,937.446 1235.704,939.078 1239.393,941.093C1242.065,942.552 1244.678,944.388 1250.64,946.375C1254.674,947.72 1256.926,951.974 1255.84,956.028Z" style="fill:rgb(67,135,96);"/>
        <path d="M1237.345,913.732C1239.764,912.663 1242.662,912.814 1245.024,914.389C1248.698,916.838 1249.692,921.809 1247.243,925.483C1246.853,926.067 1246.398,926.66 1245.811,927.233C1248.414,930.375 1248.245,935.047 1245.303,937.989C1242.18,941.111 1237.111,941.111 1233.989,937.989L1219.645,923.645C1216.946,920.946 1216.53,916.716 1218.651,913.543C1220.773,910.369 1224.84,909.137 1228.366,910.599C1232.23,912.201 1235.633,913.245 1237.345,913.732Z" style="fill:rgb(67,135,96);"/>
        <path d="M1247.125,913.44C1245.282,914.758 1242.895,915.29 1240.527,914.698C1236.244,913.627 1233.635,909.28 1234.706,904.997C1236.035,899.683 1236.644,894.179 1237.358,890.456C1237.854,887.87 1238.496,885.848 1239.146,884.571L1241.005,881.96L1243.685,880.076L1246.941,879.288L1250.073,879.712C1251.761,880.258 1255.061,882.256 1258.088,888.311C1259.38,890.894 1260.261,894.834 1260.866,899.094C1261.433,903.087 1261.58,907.522 1262.79,909.943C1264.765,913.892 1263.162,918.702 1259.213,920.676C1255.263,922.651 1250.454,921.048 1248.48,917.099C1247.966,916.072 1247.517,914.83 1247.125,913.44Z" style="fill:rgb(67,135,96);"/>
        <path d="M1260.972,941.806C1259.389,942.332 1257.629,942.37 1255.927,941.802C1251.738,940.406 1249.471,935.872 1250.867,931.683C1255.878,916.653 1257.748,918.384 1268.467,906.325C1270.743,903.764 1274.397,902.937 1277.554,904.268C1280.711,905.599 1282.67,908.792 1282.426,912.21C1281.052,931.438 1281.409,931.099 1275.452,948.97C1274.055,953.159 1269.521,955.426 1265.332,954.03C1261.144,952.633 1258.876,948.099 1260.273,943.91C1260.518,943.176 1260.75,942.475 1260.972,941.806Z" style="fill:rgb(67,135,96);"/>
        <path d="M1275.471,972.154C1273.166,973.328 1270.907,974.487 1270.193,974.881L1270.103,974.931C1267.029,976.78 1262.975,976.38 1260.324,973.73C1257.202,970.608 1257.202,965.538 1260.324,962.416L1262.198,961.019C1262.975,960.583 1266.868,958.476 1270.301,956.731C1273.923,954.889 1277.325,953.655 1278.156,953.551C1284.56,952.75 1288.3,954.339 1290.373,956.118C1293.181,958.528 1294.951,962.426 1293.596,968.465C1292.591,972.945 1289.187,980.188 1285.798,990.354C1284.401,994.543 1279.867,996.81 1275.678,995.414C1271.49,994.017 1269.222,989.483 1270.619,985.294C1272.333,980.152 1274.064,975.781 1275.471,972.154Z" style="fill:rgb(67,135,96);"/>
        <path d="M1272.501,1021.934C1272.548,1021.853 1272.616,1021.737 1272.674,1021.635C1273.442,1020.294 1275.301,1016.782 1277.45,1012.673C1275.571,1012.941 1273.591,1012.545 1271.89,1011.411C1268.216,1008.961 1267.222,1003.99 1269.671,1000.317C1270.202,999.519 1273.985,993.896 1278.418,989.82C1280.937,987.503 1283.703,985.695 1286.283,984.809C1289.461,983.718 1292.547,983.782 1295.376,984.959C1297.876,986 1300.399,987.982 1302.293,991.771L1302.94,993.57L1303.133,995.953C1303.096,996.536 1302.921,997.774 1302.247,999.446C1300.168,1004.605 1289.052,1025.229 1286.562,1029.581C1285.672,1031.137 1284.93,1031.919 1284.806,1032.044C1281.684,1035.166 1276.614,1035.166 1273.492,1032.044C1270.745,1029.297 1270.415,1025.043 1272.501,1021.934Z" style="fill:rgb(67,135,96);"/>
        <path d="M1277.072,1044.651C1274.565,1044.289 1272.27,1042.745 1271.053,1040.311C1269.078,1036.361 1270.681,1031.552 1274.63,1029.577C1277.079,1028.353 1276.845,1028.532 1289.272,1024.061C1292.136,1023.031 1295.337,1023.715 1297.529,1025.826C1299.722,1027.937 1300.527,1031.109 1299.605,1034.01C1298.618,1037.119 1293.435,1053.512 1278.222,1068.725C1275.1,1071.847 1270.03,1071.847 1266.908,1068.725C1263.786,1065.603 1263.786,1060.533 1266.908,1057.411C1271.212,1053.107 1274.535,1048.69 1277.072,1044.651Z" style="fill:rgb(67,135,96);"/>
        <path d="M1418.235,1008.492C1421.007,1005.145 1426.436,1001.562 1433.528,998.797C1448.526,992.95 1471.222,988.609 1474.356,988.015C1477.544,987.41 1480.781,988.79 1482.552,991.508C1484.322,994.227 1484.275,997.746 1482.433,1000.416C1475.885,1009.911 1472.247,1014.567 1467.693,1017.645C1463.127,1020.732 1457.517,1022.325 1446.421,1024.791C1442.111,1025.749 1437.834,1023.027 1436.876,1018.717C1436.565,1017.319 1436.642,1015.926 1437.033,1014.647C1435.359,1015.368 1433.854,1016.11 1432.596,1016.882C1432.006,1017.243 1431.207,1017.887 1430.972,1018.079C1428.781,1022.183 1425.193,1024.041 1421.407,1024.554C1417.62,1025.067 1413.689,1023.86 1412.998,1023.63C1408.81,1022.234 1406.543,1017.7 1407.939,1013.511C1409.335,1009.322 1413.869,1007.055 1418.058,1008.451C1418.081,1008.459 1418.146,1008.473 1418.235,1008.492Z" style="fill:rgb(67,135,96);"/>
        <path d="M1510.995,1003.167C1507.819,1005.225 1504.168,1007.633 1499.913,1010.47C1496.239,1012.919 1491.268,1011.925 1488.819,1008.251C1486.369,1004.577 1487.364,999.606 1491.037,997.157C1523.313,975.64 1523.838,976.869 1539.37,972.015C1542.7,970.975 1546.319,972.212 1548.316,975.072C1550.313,977.932 1550.226,981.756 1548.102,984.523C1546.424,986.709 1537.547,998.272 1523.986,1009.12C1520.538,1011.878 1515.5,1011.318 1512.742,1007.871C1511.627,1006.477 1511.054,1004.825 1510.995,1003.167Z" style="fill:rgb(67,135,96);"/>
        <path d="M1564.229,998.193C1556.888,1001.941 1550.932,1005.593 1548.765,1007.022C1548.651,1007.097 1548.518,1007.188 1548.434,1007.245C1545.294,1009.756 1540.695,1009.558 1537.786,1006.649C1534.664,1003.527 1534.664,998.458 1537.786,995.335C1538.64,994.481 1565.338,977.331 1585.479,972.953C1588.515,972.293 1591.658,973.45 1593.541,975.921C1595.425,978.392 1595.707,981.73 1594.265,984.482C1587.221,997.931 1587.314,997.591 1576.376,1008.53C1573.254,1011.652 1568.184,1011.652 1565.062,1008.53C1562.248,1005.716 1561.97,1001.319 1564.229,998.193Z" style="fill:rgb(67,135,96);"/>
        <path d="M1609.244,1007.474C1607.265,1010.291 1603.6,1011.607 1600.168,1010.463C1595.159,1008.793 1592.68,1006.96 1591.905,1006.091L1590.668,1004.29L1589.96,1002.355L1589.752,1000.289L1590.102,998.116L1591.83,995.025L1593.523,993.558L1595.364,992.623C1596.606,992.154 1599.63,991.659 1604.261,991.554C1611.817,991.384 1625.382,991.645 1642.899,991.115C1647.312,990.981 1651.004,994.455 1651.137,998.869C1651.271,1003.282 1647.797,1006.973 1643.383,1007.107C1628.866,1007.547 1617.088,1007.428 1609.244,1007.474Z" style="fill:rgb(67,135,96);"/>
        <path d="M1636.073,996.787C1638.398,994.016 1642.402,993.089 1645.778,994.777C1649.728,996.752 1651.331,1001.561 1649.356,1005.51C1648.273,1007.676 1645.657,1010.263 1641.352,1011.994C1632.909,1015.387 1615.007,1017.217 1612.861,1017.421C1608.466,1017.839 1604.558,1014.611 1604.139,1010.215C1603.72,1005.82 1606.949,1001.912 1611.345,1001.493C1612.618,1001.372 1620.21,1000.653 1627.293,999.278C1630.482,998.659 1634.902,997.186 1636.073,996.787Z" style="fill:rgb(67,135,96);"/>
        <path d="M1669.799,1029.319C1664.814,1027.372 1658.614,1025.296 1652.392,1024.002C1645.78,1022.628 1639.125,1021.82 1634.492,1024.137C1630.543,1026.111 1625.733,1024.508 1623.759,1020.559C1621.784,1016.61 1623.387,1011.801 1627.336,1009.826C1634.674,1006.157 1645.176,1006.16 1655.649,1008.338C1669.41,1011.199 1683.064,1017.389 1687.05,1019.534C1688.19,1020.148 1688.913,1020.655 1689.231,1020.908L1691.048,1022.898L1691.878,1024.583L1692.31,1026.595L1691.96,1029.696L1690.769,1032.026L1689.12,1033.683L1687.286,1034.709L1685.385,1035.207L1682.012,1034.959C1681.155,1034.721 1677.631,1033.295 1670.602,1029.78C1670.322,1029.64 1670.054,1029.486 1669.799,1029.319Z" style="fill:rgb(67,135,96);"/>
        <path d="M1670.217,1024.306C1670.894,1021.805 1672.771,1019.678 1675.412,1018.797C1679.6,1017.401 1684.135,1019.668 1685.531,1023.857C1686.854,1027.828 1686.526,1031.277 1685.121,1033.935C1683.973,1036.108 1682.066,1038.104 1678.692,1039.307C1676.446,1040.107 1672.959,1040.614 1667.755,1040.193C1662.06,1039.732 1653.567,1038.18 1641.201,1035.088C1636.917,1034.018 1634.309,1029.671 1635.38,1025.387C1636.451,1021.104 1640.798,1018.495 1645.081,1019.566C1656.248,1022.358 1663.904,1023.829 1669.046,1024.245C1669.434,1024.277 1669.83,1024.296 1670.217,1024.306Z" style="fill:rgb(67,135,96);"/>
        <path d="M1643.283,1030.541C1645.466,1029.435 1648.126,1029.341 1650.481,1030.518C1671.181,1040.868 1672.373,1039.94 1683.767,1060.608C1685.374,1063.521 1685.009,1067.125 1682.852,1069.658C1680.695,1072.19 1677.196,1073.124 1674.064,1072.002C1665.586,1068.965 1653.447,1067.532 1645.238,1064.425C1639.904,1062.405 1635.899,1059.574 1633.663,1056.219C1630.34,1051.234 1629.469,1046.35 1629.023,1041.695C1628.753,1038.862 1629.485,1035.99 1626.476,1033.984C1622.803,1031.535 1621.808,1026.563 1624.258,1022.89C1626.707,1019.216 1631.678,1018.222 1635.352,1020.671C1639.741,1023.597 1642.019,1026.915 1643.283,1030.541ZM1646.389,1046.345C1646.559,1046.678 1646.754,1047.011 1646.976,1047.344C1647.298,1047.827 1647.917,1048.088 1648.565,1048.43C1650.113,1049.247 1651.992,1049.897 1654.042,1050.499C1654.462,1050.622 1654.887,1050.743 1655.317,1050.861C1653.003,1049.545 1650.166,1048.198 1646.389,1046.345Z" style="fill:rgb(67,135,96);"/>
        <path d="M1616.468,1043.321C1616.617,1041.971 1616.747,1039.893 1616.439,1038.048C1615.713,1033.693 1618.66,1029.568 1623.015,1028.842C1627.37,1028.116 1631.495,1031.062 1632.221,1035.418C1634.376,1048.346 1629.487,1055.864 1624.047,1058.588C1618.394,1061.419 1609.518,1060.45 1601.454,1051.49C1593.413,1042.556 1586.644,1026.858 1586.234,1025.9C1583.581,1022.758 1583.734,1018.047 1586.694,1015.087C1589.817,1011.965 1594.886,1011.964 1598.008,1015.087C1598.997,1016.075 1600.506,1018.468 1602.141,1021.937C1604.409,1026.752 1607.808,1034.633 1613.347,1040.787C1614.232,1041.77 1615.528,1042.705 1616.468,1043.321Z" style="fill:rgb(67,135,96);"/>
        <path d="M1571.287,1040.285C1570.052,1037.35 1568.06,1033.16 1566.003,1031.103C1562.881,1027.981 1562.881,1022.911 1566.003,1019.789C1569.125,1016.667 1574.194,1016.667 1577.316,1019.789C1583.682,1026.155 1588.703,1036.892 1588.539,1043.87C1588.437,1048.215 1586.783,1051.655 1584.036,1053.985C1581.584,1056.065 1577.936,1057.572 1572.548,1056.898C1564.681,1055.915 1553.912,1050.445 1545.83,1043.584C1539.983,1038.621 1535.618,1032.913 1533.972,1027.976C1532.576,1023.787 1534.843,1019.253 1539.032,1017.857C1543.221,1016.461 1547.755,1018.728 1549.151,1022.916C1550.076,1025.689 1552.901,1028.599 1556.184,1031.387C1560.741,1035.255 1566.397,1038.745 1571.287,1040.285Z" style="fill:rgb(67,135,96);"/>
        <path d="M1504.867,1029.222C1501.745,1026.1 1501.745,1021.031 1504.867,1017.908C1507.989,1014.786 1513.058,1014.786 1516.18,1017.908C1518.926,1020.654 1521.708,1021.426 1524.083,1022.622C1530.268,1025.736 1536.02,1029.476 1538.213,1047.027C1538.761,1051.408 1535.649,1055.41 1531.267,1055.958C1526.886,1056.505 1522.885,1053.393 1522.337,1049.012C1521.666,1043.643 1520.849,1040.553 1519.353,1038.674C1518.094,1037.095 1516.408,1036.676 1514.723,1035.879C1511.597,1034.401 1508.277,1032.632 1504.867,1029.222Z" style="fill:rgb(67,135,96);"/>
        <path d="M1531.865,1043.252C1536.053,1044.648 1538.32,1049.182 1536.924,1053.371C1535.528,1057.56 1530.994,1059.827 1526.805,1058.431C1523.476,1057.321 1490.818,1038.687 1476.65,1024.519C1473.528,1021.397 1473.528,1016.328 1476.65,1013.206C1479.773,1010.083 1484.842,1010.083 1487.964,1013.206C1500.413,1025.655 1528.94,1042.277 1531.865,1043.252Z" style="fill:rgb(67,135,96);"/>
        <path d="M1482.401,1045.078C1479.192,1041.522 1474.705,1040.81 1470.649,1039.519C1465.506,1037.883 1460.701,1035.845 1456.899,1032.044C1453.777,1028.922 1453.777,1023.852 1456.899,1020.73C1460.021,1017.608 1465.09,1017.608 1468.212,1020.73C1470.181,1022.698 1472.838,1023.425 1475.501,1024.273C1478.354,1025.181 1481.284,1026.04 1484.083,1027.252C1492.481,1030.889 1500.283,1037.033 1502.473,1054.551C1502.867,1057.703 1501.359,1060.79 1498.63,1062.416C1495.901,1064.042 1492.469,1063.9 1489.885,1062.054L1483.301,1057.351C1479.708,1054.785 1478.874,1049.784 1481.441,1046.191C1481.731,1045.784 1482.053,1045.413 1482.401,1045.078Z" style="fill:rgb(67,135,96);"/>
        <path d="M1475.127,1060.7C1475.084,1060.703 1475.039,1060.706 1475.003,1060.708C1469.126,1061.125 1449.682,1064.329 1423.039,1037.687C1419.917,1034.565 1419.917,1029.496 1423.039,1026.373C1426.161,1023.251 1431.231,1023.251 1434.353,1026.373C1454.784,1046.803 1469.366,1045.068 1473.873,1044.748C1475.335,1044.645 1476.426,1044.721 1477.13,1044.847C1481.476,1045.623 1484.375,1049.782 1483.599,1054.128C1482.871,1058.204 1479.169,1061.007 1475.127,1060.7Z" style="fill:rgb(67,135,96);"/>
        <path d="M1418.748,1051.193C1416.073,1047.286 1411.705,1043.788 1403.242,1041.672C1398.959,1040.601 1396.35,1036.254 1397.421,1031.971C1398.492,1027.687 1402.839,1025.079 1407.123,1026.15C1433.046,1032.631 1434.089,1047.502 1439.614,1058.55C1441.257,1061.837 1440.45,1065.822 1437.655,1068.21C1434.861,1070.597 1430.799,1070.774 1427.808,1068.638C1423.085,1065.264 1421.293,1067.18 1417.928,1067.895C1414.8,1068.561 1411.025,1068.971 1405.816,1068.149C1359.828,1060.887 1354.961,1048.234 1352.88,1044.073C1350.906,1040.123 1352.509,1035.314 1356.458,1033.34C1360.408,1031.365 1365.217,1032.968 1367.191,1036.917C1368.763,1040.06 1373.58,1046.861 1408.311,1052.344C1413.402,1053.148 1416.141,1051.809 1418.697,1051.205C1418.714,1051.201 1418.731,1051.197 1418.748,1051.193Z" style="fill:rgb(67,135,96);"/>
        <path d="M1339.944,1052.009C1341.139,1051.929 1343.744,1051.735 1345.743,1051.45C1350.17,1050.82 1355.595,1050.106 1362.237,1050.372C1366.649,1050.548 1370.087,1054.273 1369.911,1058.685C1369.734,1063.097 1366.009,1066.536 1361.597,1066.359C1351.639,1065.961 1344.728,1068.098 1339.935,1068.092C1336.043,1068.087 1332.916,1067.131 1330.282,1065.153C1327.214,1062.85 1324.383,1058.646 1322.988,1050.275C1322.262,1045.92 1325.208,1041.795 1329.564,1041.069C1333.919,1040.343 1338.044,1043.289 1338.77,1047.645C1339.042,1049.278 1339.628,1051.096 1339.944,1052.009Z" style="fill:rgb(67,135,96);"/>
        <path d="M1503.476,914.869C1502.86,919.163 1502.56,923.008 1502.502,923.651C1502.102,928.048 1498.207,931.293 1493.81,930.894C1489.413,930.494 1486.168,926.599 1486.567,922.202C1486.676,921.009 1487.629,910.742 1489.49,903.348C1490.674,898.644 1492.551,894.919 1494.253,893.181L1496.395,891.493L1498.47,890.577L1500.552,890.192L1502.719,890.299C1504.709,890.633 1507.175,891.646 1509.399,894.613C1510.155,895.621 1516.946,904.892 1518.735,909.474C1519.649,911.816 1519.747,913.81 1519.57,915.125L1518.656,918.025L1517.121,920.118C1513.999,923.24 1508.929,923.24 1505.807,920.118C1504.35,918.661 1503.573,916.779 1503.476,914.869Z" style="fill:rgb(67,135,96);"/>
        <path d="M1533.998,876.769C1532.861,901.119 1531.276,908.867 1530.596,912.268C1529.73,916.598 1525.511,919.41 1521.182,918.544C1516.852,917.678 1514.04,913.46 1514.906,909.13C1515.676,905.28 1517.572,895.551 1518.606,860.191C1518.683,857.534 1520.075,855.09 1522.32,853.667C1524.564,852.245 1527.369,852.03 1529.804,853.093C1539.829,857.472 1542.391,860.789 1545.323,865.023C1546.635,866.916 1548.002,869.144 1550.981,872.123C1554.103,875.245 1554.103,880.315 1550.981,883.437C1547.859,886.559 1542.789,886.559 1539.667,883.437C1537.066,880.835 1535.358,878.668 1533.998,876.769Z" style="fill:rgb(67,135,96);"/>
        <path d="M1554.684,855.186C1556.13,858.979 1554.49,863.331 1550.783,865.184C1546.833,867.159 1542.024,865.555 1540.05,861.606C1539.941,861.389 1538.738,859.344 1538.289,858.581C1530.113,853.297 1525.918,850.13 1523.32,846.174C1520.555,841.963 1519.356,836.688 1518.361,826.244C1518.102,823.526 1519.248,820.863 1521.4,819.182C1523.552,817.5 1526.412,817.033 1528.988,817.942C1544.316,823.352 1551.006,829.02 1554.422,833.592C1556.541,836.427 1557.59,839.034 1558.29,841.34C1558.615,842.41 1558.693,843.364 1559.063,844.105C1561.038,848.054 1559.435,852.863 1555.486,854.838C1555.222,854.97 1554.954,855.086 1554.684,855.186Z" style="fill:rgb(67,135,96);"/>
        <path d="M1553.716,857.963C1552.709,857.574 1551.766,856.973 1550.954,856.161L1549.51,854.362L1548.455,851.913L1548.183,849.371L1548.543,847.204C1548.806,846.31 1549.34,845.059 1550.613,843.344C1552.396,840.939 1557.193,835.291 1566.503,818.876C1568.251,815.793 1571.821,814.228 1575.274,815.031C1578.727,815.834 1581.239,818.814 1581.448,822.353C1581.853,829.238 1583.533,834.851 1581.898,842.203C1580.246,849.633 1575.347,859.071 1561.327,873.091C1558.205,876.213 1553.135,876.213 1550.013,873.091C1546.891,869.969 1546.891,864.899 1550.013,861.777C1551.344,860.447 1552.576,859.177 1553.716,857.963ZM1562.441,845.026C1562.385,844.966 1562.327,844.907 1562.267,844.847C1562.326,844.906 1562.384,844.966 1562.441,845.026Z" style="fill:rgb(67,135,96);"/>
        <path d="M1546.509,889.327C1546.422,889.247 1546.336,889.165 1546.251,889.08C1543.129,885.958 1543.129,880.889 1546.251,877.767C1551.253,872.764 1555.763,871.463 1559.205,871.303C1565.691,871.001 1569.79,874.943 1570.732,875.885C1575.111,880.264 1575.48,886.097 1570.518,892.091C1565.744,897.858 1553.387,904.467 1546.324,906.233C1542.04,907.304 1537.693,904.696 1536.622,900.412C1535.551,896.129 1538.16,891.782 1542.443,890.711C1543.611,890.419 1545.015,889.94 1546.509,889.327Z" style="fill:rgb(67,135,96);"/>
        <path d="M1722.769,842.335C1718.529,842.324 1718.177,843.206 1715.236,843.432C1710.834,843.77 1706.985,840.471 1706.646,836.069C1706.308,831.667 1709.607,827.818 1714.009,827.479C1718.398,827.141 1718.083,825.817 1727.464,826.538C1729.627,826.705 1730.838,826.904 1733.5,828.572C1735.143,829.6 1738.154,831.92 1745.913,837.377C1748.767,839.383 1749.991,843.008 1748.938,846.334C1747.886,849.66 1744.799,851.92 1741.311,851.92L1730.612,851.92C1726.197,851.92 1722.612,848.336 1722.612,843.92C1722.612,843.378 1722.666,842.848 1722.769,842.335Z" style="fill:rgb(67,135,96);"/>
        <path d="M1719.695,845.045C1721.669,841.096 1726.479,839.493 1730.428,841.468C1734.377,843.442 1735.98,848.252 1734.005,852.201C1730.108,859.995 1723.973,862.949 1715.559,862.621C1707.577,862.309 1696.489,857.909 1682.936,853.391C1678.747,851.995 1676.48,847.46 1677.876,843.272C1679.273,839.083 1683.807,836.816 1687.996,838.212C1698.11,841.583 1706.632,845.08 1713.335,846.293C1716.178,846.807 1718.524,847.386 1719.695,845.045Z" style="fill:rgb(67,135,96);"/>
        <path d="M1672.063,942.161C1670.343,941.383 1666.09,939.682 1659.654,938.566C1642.65,935.617 1610.169,934.43 1549.029,941.224C1524.359,943.965 1516.66,947.613 1514.101,948.893C1510.152,950.867 1505.343,949.264 1503.368,945.315C1501.394,941.366 1502.997,936.557 1506.946,934.582C1509.906,933.102 1518.724,928.492 1547.262,925.321C1610.886,918.252 1644.693,919.733 1662.388,922.801C1676.968,925.329 1682.457,929.441 1684.358,931.383C1685.173,932.215 1685.697,932.97 1686.049,933.57L1687.045,936.013L1687.23,938.978L1686.178,942.128L1685.112,943.566L1683.648,944.806L1681.958,945.658L1680.285,946.073L1676.751,945.78L1674.855,944.92L1673.225,943.632C1672.772,943.179 1672.384,942.684 1672.063,942.161ZM1682.247,930.716C1683.078,931.1 1683.855,931.634 1684.539,932.319C1683.779,931.558 1683.001,931.05 1682.247,930.716Z" style="fill:rgb(67,135,96);"/>
        <path d="M1602.541,915.987C1595.115,918.563 1584.55,923.074 1568.653,931.022C1564.704,932.997 1559.895,931.394 1557.92,927.445C1555.946,923.496 1557.549,918.686 1561.498,916.712C1610.775,892.072 1612.397,898.154 1622.899,896.244C1626.284,895.629 1629.683,897.247 1631.341,900.262C1632.998,903.277 1632.542,907.014 1630.209,909.542C1629.109,910.733 1629.151,910.609 1615.879,923.881C1612.757,927.003 1607.687,927.003 1604.565,923.88C1602.429,921.745 1601.755,918.698 1602.541,915.987Z" style="fill:rgb(67,135,96);"/>
        <path d="M1656.565,915.132C1641.456,919.572 1623.511,927.288 1618.277,930.033C1618.137,930.106 1617.961,930.203 1617.84,930.271C1614.707,932.622 1610.236,932.373 1607.387,929.524C1604.265,926.402 1604.265,921.332 1607.387,918.21C1607.908,917.689 1610.38,915.993 1614.492,914.084C1625.894,908.792 1653.623,897.828 1668.593,896.164C1679.85,894.914 1689.31,906.276 1684.746,916.574C1682.693,921.209 1676.85,926.998 1663.084,928.965C1658.713,929.589 1654.657,926.548 1654.033,922.177C1653.644,919.456 1654.676,916.857 1656.565,915.132Z" style="fill:rgb(67,135,96);"/>
        <path d="M1676.046,930.595C1674.989,930.835 1673.952,931.121 1672.947,931.456C1668.758,932.853 1664.224,930.586 1662.828,926.397C1661.431,922.208 1663.699,917.674 1667.887,916.278C1682.181,911.513 1700.814,913.925 1709.469,919.339C1716.359,923.649 1718.604,929.696 1716.569,935.802C1715.69,938.441 1713.238,941.632 1708.318,943.337C1703.013,945.176 1693.032,945.668 1680.614,940.7C1676.612,939.1 1674.614,934.621 1676.046,930.595Z" style="fill:rgb(67,135,96);"/>
        <path d="M1695.687,951.468C1693.385,949.444 1690.896,948.224 1690.353,947.952C1686.404,945.978 1684.801,941.168 1686.775,937.219C1688.75,933.27 1693.559,931.667 1697.508,933.641C1698.743,934.259 1705.752,937.871 1710.205,943.613C1714.063,948.588 1716.165,954.886 1713.747,962.138L1712.767,964.151L1710.959,966.142C1709.701,967.162 1706.998,968.488 1702.988,968.583C1697.403,968.715 1687.118,966.82 1678.627,961.689C1672.362,957.904 1667.119,952.438 1664.709,945.208C1663.312,941.019 1665.58,936.485 1669.768,935.088C1673.957,933.692 1678.491,935.959 1679.888,940.148C1681.64,945.406 1686.748,948.389 1691.564,950.266C1692.832,950.76 1694.268,951.155 1695.687,951.468Z" style="fill:rgb(67,135,96);"/>
        <path d="M1647.83,943.632C1644.708,940.51 1644.708,935.44 1647.831,932.318C1650.953,929.196 1656.022,929.196 1659.144,932.319C1664.854,938.028 1662.561,940.279 1682.586,953.797C1685.429,955.716 1686.732,959.234 1685.826,962.543C1684.919,965.851 1682.004,968.213 1678.58,968.414C1660.127,969.499 1650.332,968.944 1642.534,964.824C1634.823,960.75 1628.761,952.93 1618.614,937.71C1616.165,934.036 1617.159,929.065 1620.833,926.616C1624.507,924.167 1629.478,925.161 1631.927,928.835C1639.884,940.771 1643.962,947.482 1650.009,950.677C1651.579,951.507 1653.26,952.079 1655.142,952.456C1651.983,949.054 1651.062,946.864 1647.83,943.632Z" style="fill:rgb(67,135,96);"/>
        <path d="M1611.45,950.519C1611.019,948.262 1610.214,945.813 1609.122,943.749C1608.751,943.047 1608.027,942.142 1607.593,941.624C1603.76,943.187 1599.305,941.554 1597.423,937.791C1595.449,933.842 1597.052,929.032 1601.001,927.058C1608.966,923.075 1615.812,925.824 1620.825,932.413C1625.761,938.901 1628.282,950.04 1627.696,956.365C1627.223,961.484 1624.67,964.643 1622.328,966.002C1619.434,967.681 1614.648,968.764 1609.268,963.384C1606.146,960.262 1606.146,955.192 1609.268,952.07C1609.922,951.416 1610.661,950.899 1611.45,950.519Z" style="fill:rgb(67,135,96);"/>
        <path d="M1571.775,948.293C1568.575,946.059 1567.41,941.753 1569.207,938.16C1571.181,934.211 1575.991,932.607 1579.94,934.582C1580.978,935.101 1580.986,935.047 1590.484,944.545C1597.37,951.431 1605.28,951.255 1611.957,952.739C1616.268,953.697 1618.989,957.974 1618.031,962.284C1617.074,966.594 1612.797,969.316 1608.486,968.358C1599.228,966.3 1588.718,965.407 1579.17,955.859C1574.8,951.489 1572.504,949.07 1571.775,948.293Z" style="fill:rgb(67,135,96);"/>
        <path d="M1553.7,948.989C1548.741,944.822 1542.814,941.902 1541.746,941.368C1537.797,939.394 1536.194,934.584 1538.169,930.635C1540.143,926.686 1544.953,925.083 1548.902,927.058C1550.745,927.979 1563.418,934.496 1570.003,942.804C1574.027,947.88 1575.938,953.611 1574.801,959.296L1573.88,961.749L1571.975,964.004L1569.293,965.496C1568.652,965.718 1567.673,965.962 1566.363,966.068C1559.049,966.658 1523.376,962.292 1512.697,958.732C1509.157,957.552 1506.203,954.982 1504.582,953.342C1500.678,954.134 1496.701,951.904 1495.41,948.029C1494.014,943.841 1496.281,939.306 1500.47,937.91C1507.5,935.567 1510.827,937.398 1513.486,939.575C1514.153,940.121 1514.78,940.754 1515.398,941.467C1515.92,942.069 1516.313,943.072 1517.756,943.553C1523.829,945.578 1541.739,947.721 1553.7,948.989Z" style="fill:rgb(67,135,96);"/>
        <path d="M1546.917,828.246C1545.588,828.518 1544.173,828.456 1542.794,827.996C1541.944,827.713 1534.056,825.058 1528.245,821.773C1524.702,819.77 1521.889,817.37 1520.459,815.216C1518.392,812.103 1518.075,808.927 1519.079,805.936C1519.942,803.364 1522.307,799.895 1528.686,797.768C1532.558,796.478 1535.392,796.613 1537.64,797.254C1540.308,798.014 1542.483,799.56 1544.43,802.088C1546.451,804.711 1548.114,809.83 1555.405,814.691C1559.079,817.14 1560.073,822.111 1557.624,825.785C1555.26,829.331 1550.546,830.38 1546.917,828.246Z" style="fill:rgb(67,135,96);"/>
        <path d="M1538.692,783.237C1538.029,782.878 1537.406,782.418 1536.845,781.858C1533.723,778.735 1533.723,773.666 1536.846,770.544L1539.382,768.753L1542.149,767.91L1545.182,767.943L1548.193,768.964C1550.225,770.038 1552.998,772.228 1554.249,777.616C1555.082,781.205 1555.348,787.566 1553.169,798.462C1552.303,802.791 1548.085,805.603 1543.755,804.738C1539.426,803.872 1536.614,799.654 1537.479,795.324C1538.53,790.072 1538.703,785.703 1538.692,783.237Z" style="fill:rgb(67,135,96);"/>
        <path d="M1534.244,764.443C1536.171,767.531 1535.793,771.651 1533.11,774.333C1529.988,777.455 1524.919,777.455 1521.797,774.333C1521.415,773.951 1521.435,774.528 1518.417,768.492C1516.443,764.543 1518.046,759.733 1521.995,757.759C1525.944,755.784 1530.753,757.387 1532.728,761.336C1533.486,762.852 1533.985,763.894 1534.244,764.443Z" style="fill:rgb(67,135,96);"/>
        <path d="M1389.131,983.781C1389.124,983.813 1389.118,983.844 1389.111,983.876C1388.337,987.59 1387.948,990.314 1390.147,992.513C1393.269,995.635 1393.269,1000.705 1390.147,1003.827C1387.025,1006.949 1381.956,1006.949 1378.833,1003.827C1373.6,998.594 1371.845,992.628 1372.784,984.615C1373.446,978.968 1375.715,971.921 1378.782,962.721C1380.658,957.094 1383.981,955.187 1386.41,954.508C1390.016,953.501 1395.417,954.925 1399.155,960.838C1402.411,965.987 1405.079,975.061 1405.121,979.415C1405.139,981.312 1404.781,982.826 1404.349,983.896L1402.374,986.897C1399.252,990.019 1394.183,990.019 1391.061,986.898C1390.154,985.991 1389.511,984.921 1389.131,983.781Z" style="fill:rgb(67,135,96);"/>
        <path d="M1409.403,988.798C1407.363,992.588 1402.659,994.096 1398.783,992.158C1394.834,990.184 1393.231,985.374 1395.205,981.425C1395.377,981.082 1395.607,980.697 1395.893,980.272C1393.257,978.426 1391.892,975.082 1392.718,971.776C1397.306,953.426 1406.424,944.261 1413.578,940.587C1417.972,938.331 1422.048,937.887 1425.084,938.372C1428.886,938.98 1431.63,940.961 1433.28,943.507C1434.944,946.072 1435.734,949.467 1434.444,953.552C1430.906,964.753 1422.818,974.458 1416.244,981.433C1413.276,984.581 1409.694,988.482 1409.403,988.798Z" style="fill:rgb(67,135,96);"/>
        <path d="M1398.307,967.197C1394.118,968.594 1389.584,966.326 1388.187,962.138C1386.791,957.949 1389.058,953.415 1393.247,952.018C1394.585,951.572 1395.211,949.885 1396.125,947.976C1397.919,944.229 1399.254,939.248 1400.276,933.503C1405.456,904.4 1402.22,856.824 1393.324,839.033C1391.349,835.084 1392.953,830.275 1396.902,828.3C1400.851,826.325 1405.66,827.928 1407.635,831.878C1417.473,851.554 1421.758,904.119 1416.029,936.307C1414.42,945.342 1411.981,952.861 1408.905,957.962C1405.959,962.848 1402.266,965.878 1398.307,967.197Z" style="fill:rgb(67,135,96);"/>
        <path d="M1412.252,851.794C1411.369,851.954 1410.445,851.967 1409.51,851.811C1405.155,851.086 1402.209,846.96 1402.934,842.605C1403.152,841.302 1404.585,833.147 1407.833,827.133C1409.852,823.395 1412.605,820.448 1415.713,818.894C1419.641,816.93 1422.772,817.282 1425.109,818.229C1428.297,819.522 1431.201,822.717 1431.895,828.168C1432.911,836.16 1428.384,852.971 1427.923,854.583C1426.71,858.829 1422.279,861.29 1418.033,860.077C1414.323,859.017 1411.974,855.498 1412.252,851.794Z" style="fill:rgb(67,135,96);"/>
        <path d="M1419.954,892.507C1419.648,892.654 1419.329,892.784 1418.999,892.894C1414.81,894.29 1410.276,892.023 1408.879,887.834C1406.314,880.138 1409.384,873.05 1415.664,867.766C1422.976,861.614 1434.742,858.607 1440.357,859.543L1443.53,860.648L1444.993,861.687L1446.398,863.256L1447.641,865.898L1447.893,869.493C1447.739,870.71 1447.251,872.639 1445.479,875.306C1443.608,878.12 1439.363,883.129 1430.591,891.902C1427.685,894.807 1423.093,895.009 1419.954,892.507Z" style="fill:rgb(67,135,96);"/>
        <path d="M1400.696,813.335C1400.111,812.583 1399.399,811.744 1398.731,811.159C1395.486,808.313 1390.935,805.81 1386.312,804.654C1382.029,803.583 1379.42,799.236 1380.491,794.953C1381.562,790.669 1385.909,788.061 1390.193,789.132C1400.305,791.66 1410.085,798.462 1414.549,804.936C1418.204,810.237 1418.755,815.642 1416.894,819.953C1415.231,823.805 1411.233,827.822 1402.735,829.238C1398.38,829.964 1394.255,827.018 1393.529,822.662C1392.803,818.307 1395.75,814.182 1400.105,813.456C1400.298,813.424 1400.497,813.382 1400.696,813.335Z" style="fill:rgb(67,135,96);"/>
        <path d="M1366.151,798.174C1365.969,793.956 1369.123,790.282 1373.374,789.871C1377.768,789.445 1381.682,792.668 1382.107,797.063C1382.221,798.245 1381.699,801.913 1381.566,806.915C1381.34,815.431 1382.883,829.354 1397.865,837.915C1401.061,839.741 1405.109,843.495 1406.007,844.516L1407.527,846.917L1408.084,849.056L1408.092,850.854L1407.548,853.011L1406.672,854.611L1405.206,856.186L1403.505,857.254L1401.637,857.856L1399.623,857.983L1397.139,857.421L1394.418,855.709C1393.873,855.256 1393.404,854.745 1393.012,854.192C1392.133,853.41 1390.866,852.343 1389.927,851.807C1367.92,839.232 1365.239,819 1365.571,806.49C1365.671,802.747 1366.097,798.68 1366.151,798.174ZM1403.904,842.858C1404.164,843.028 1404.416,843.214 1404.66,843.418C1404.403,843.203 1404.15,843.018 1403.904,842.858Z" style="fill:rgb(67,135,96);"/>
        <path d="M1386.372,875.489C1389.627,879.755 1393.38,884.124 1396.452,886.172C1400.126,888.622 1401.12,893.593 1398.671,897.266C1396.222,900.94 1391.251,901.934 1387.577,899.485C1379.494,894.096 1367.108,876.005 1365.607,873.753C1362.748,869.465 1361.919,866.285 1361.851,864.35L1362.254,861.144L1362.981,859.387L1364.102,857.754C1365.86,855.706 1369.246,853.795 1374.437,854.557C1378.599,855.168 1385.724,857.995 1393.105,860.947C1397.204,862.587 1399.201,867.246 1397.561,871.346C1395.922,875.445 1391.262,877.442 1387.162,875.802C1386.904,875.699 1386.64,875.595 1386.372,875.489Z" style="fill:rgb(67,135,96);"/>
        <path d="M1394.543,935.624C1395.841,935.574 1397.17,935.841 1398.414,936.463C1402.363,938.437 1403.966,943.247 1401.992,947.196L1399.722,950.06L1396.639,951.722C1394.796,952.289 1391.7,952.445 1387.999,950.556C1380.369,946.664 1363.314,929.429 1358.497,908.586C1357.919,906.082 1358.578,903.452 1360.271,901.517C1361.963,899.583 1364.482,898.579 1367.041,898.82C1380.718,900.107 1380.24,900.747 1394.117,902.784C1398.486,903.425 1401.512,907.493 1400.87,911.861C1400.229,916.23 1396.162,919.256 1391.793,918.614C1385.321,917.664 1382.07,917.023 1378.962,916.473C1384.368,925.611 1392.149,933.345 1394.543,935.624ZM1387.991,939.477C1387.882,939.658 1387.778,939.846 1387.681,940.041C1387.778,939.847 1387.881,939.659 1387.991,939.477Z" style="fill:rgb(67,135,96);"/>
        <path d="M1425.282,921.512C1423.414,921.594 1421.51,921.027 1419.936,919.768C1416.489,917.01 1415.929,911.971 1418.687,908.523C1423.336,902.712 1427.121,899.7 1429.942,898.244C1433.633,896.34 1436.683,896.309 1439.092,896.885C1443.051,897.832 1445.992,900.76 1447.559,904.573C1449.393,909.033 1448.78,914.384 1448.441,915.314C1440.795,936.342 1424.137,940.307 1421.231,941.034C1416.947,942.104 1412.6,939.496 1411.529,935.213C1410.459,930.929 1413.067,926.582 1417.35,925.511C1418.307,925.272 1421.679,924.369 1425.282,921.512Z" style="fill:rgb(67,135,96);"/>
        <path d="M1091.512,876.603C1100.954,885.328 1127.436,914.545 1161.385,992.142C1185.251,1046.693 1181.587,1126.335 1180.92,1142.413C1180.887,1143.204 1180.861,1144.021 1180.851,1144.373C1181.052,1147.488 1179.41,1150.569 1176.444,1152.051C1172.495,1154.026 1167.686,1152.423 1165.711,1148.474C1165.6,1148.251 1164.759,1145.944 1164.934,1141.75C1165.569,1126.434 1169.461,1050.519 1146.726,998.555C1105.456,904.223 1079.13,887.96 1075.631,883.884L1073.94,881.17L1073.336,878.738L1073.426,876.443L1074.182,874.159C1074.85,872.821 1076.677,870.303 1081.574,869.078C1085.858,868.008 1090.205,870.616 1091.276,874.899C1091.418,875.469 1091.495,876.039 1091.512,876.603Z" style="fill:rgb(67,135,96);"/>
        <path d="M1228.147,1134.589C1225.345,1135.552 1222.115,1134.916 1219.881,1132.682C1216.759,1129.56 1216.759,1124.491 1219.881,1121.369C1219.954,1121.295 1222.054,1119.609 1226.612,1118.442C1244.566,1113.845 1337.215,1092.371 1418,1098.355C1584.955,1110.722 1589.224,1111.884 1603.697,1115.502C1607.981,1116.573 1610.589,1120.92 1609.518,1125.204C1608.447,1129.487 1604.1,1132.095 1599.817,1131.024C1585.555,1127.459 1581.332,1126.498 1416.818,1114.312C1338.203,1108.488 1248.052,1129.469 1230.58,1133.942C1229.449,1134.232 1228.455,1134.504 1228.147,1134.589Z" style="fill:rgb(67,135,96);"/>
        <path d="M1156.541,1099.062C1156.162,1098.735 1153.71,1096.636 1151.784,1095.338C1148.068,1092.831 1143.472,1090.174 1139.436,1087.955C1139.407,1088.357 1139.386,1088.759 1139.373,1089.159C1139.252,1093.085 1140.198,1096.886 1144.385,1099.677C1146.038,1100.779 1159.059,1109.601 1165.991,1111.912C1170.18,1113.308 1172.447,1117.842 1171.051,1122.031C1169.654,1126.22 1165.12,1128.487 1160.931,1127.091C1152.815,1124.385 1137.445,1114.28 1135.51,1112.99C1120.543,1103.012 1122.592,1087.752 1125.693,1074.021C1126.236,1071.617 1127.857,1069.597 1130.087,1068.546C1132.318,1067.496 1134.907,1067.532 1137.107,1068.645C1138.955,1069.58 1152.054,1076.221 1160.73,1082.072C1165.82,1085.505 1169.445,1089.126 1170.617,1091.469C1172.591,1095.418 1170.988,1100.228 1167.039,1102.202C1163.239,1104.102 1158.642,1102.69 1156.541,1099.062Z" style="fill:rgb(67,135,96);"/>
        <path d="M1149.131,1078.562C1142.176,1075.184 1123.918,1063.489 1097.71,1025.911C1095.866,1023.266 1095.789,1019.773 1097.516,1017.05C1099.243,1014.327 1102.436,1012.907 1105.614,1013.448C1126.375,1016.982 1140.968,1018.203 1150.085,1020.841C1159.275,1023.5 1164.229,1027.846 1166.348,1034.203C1167.744,1038.392 1165.477,1042.926 1161.288,1044.322C1157.1,1045.719 1152.565,1043.451 1151.169,1039.263C1150.826,1038.234 1149.838,1037.799 1148.646,1037.271C1146.696,1036.408 1144.258,1035.773 1141.333,1035.172C1136.23,1034.123 1129.881,1033.262 1122.214,1032.177C1145.353,1061.599 1157.284,1064.366 1159.846,1065.749L1161.365,1066.746L1162.82,1068.216L1164.287,1071.116L1164.588,1073.817L1164.159,1076.071L1163.213,1078.042C1162.872,1078.576 1162.363,1079.242 1161.594,1080.012C1158.472,1083.134 1153.402,1083.134 1150.28,1080.012C1149.833,1079.565 1149.45,1079.077 1149.131,1078.562Z" style="fill:rgb(67,135,96);"/>
        <path d="M1082.205,856.889C1081.533,855.773 1080.042,853.421 1078.594,851.98C1074.621,848.022 1068.929,844.321 1063.475,842.789C1061.108,842.124 1058.818,841.699 1056.995,842.611C1053.046,844.585 1048.236,842.982 1046.262,839.033C1044.287,835.084 1045.89,830.275 1049.839,828.3C1055.595,825.422 1063.074,825.569 1070.595,828.282C1079.976,831.667 1089.401,838.936 1094.267,845.753C1100.004,853.789 1099.651,861.671 1094.815,866.507C1091.693,869.629 1086.623,869.629 1083.501,866.507C1080.897,863.903 1080.465,859.943 1082.205,856.889Z" style="fill:rgb(67,135,96);"/>
        <path d="M1100.188,905.039C1084.694,900.55 1053.459,889.722 1034.777,846.131C1033.038,842.073 1034.921,837.366 1038.979,835.627C1043.037,833.887 1047.744,835.77 1049.484,839.828C1065.327,876.796 1091.778,885.956 1104.811,889.721C1109.086,890.956 1112.22,891.864 1113.793,892.684C1114.657,893.134 1115.343,893.617 1115.882,894.08L1117.608,896.041L1118.789,898.79L1118.918,902.091C1118.649,903.82 1117.315,907.446 1111.547,910.33C1107.597,912.305 1102.788,910.702 1100.813,906.753C1100.535,906.195 1100.327,905.621 1100.188,905.039Z" style="fill:rgb(67,135,96);"/>
        <path d="M1106.546,876.429C1106.198,878.369 1105.86,880.453 1105.542,882.674C1104.918,887.045 1100.862,890.086 1096.491,889.462C1092.12,888.837 1089.079,884.782 1089.703,880.411C1091.945,864.719 1094.265,856.552 1096.062,852.537C1097.604,849.092 1099.304,847.395 1100.507,846.502L1102.082,845.547L1104.101,844.844L1106.45,844.64L1108.781,845.063L1111.675,846.636L1113.974,849.357C1120.57,860.899 1131.59,914.651 1132.743,920.417C1133.609,924.747 1130.797,928.965 1126.468,929.831C1122.138,930.696 1117.92,927.884 1117.054,923.555C1116.317,919.872 1111.488,895.086 1106.546,876.429Z" style="fill:rgb(67,135,96);"/>
        <path d="M1146.164,905.746C1145.669,906.789 1145.199,907.831 1144.816,908.772C1141.661,916.518 1138.153,924.748 1134.318,928.583C1131.195,931.705 1126.126,931.705 1123.004,928.583C1119.882,925.461 1119.882,920.391 1123.004,917.269C1125.338,914.936 1127.043,910.027 1128.973,905.263C1131.762,898.382 1134.709,891.623 1137.75,888.253C1140.856,884.81 1144.408,883.534 1147.885,883.825C1150.777,884.066 1154.303,885.469 1157.634,889.91C1158.867,891.553 1160.219,894.565 1161.128,898.628C1162.619,905.293 1163.399,915.618 1162.786,925.089C1162.102,935.667 1159.19,945.095 1155.01,949.275C1151.888,952.397 1146.818,952.397 1143.696,949.275C1140.574,946.153 1140.574,941.084 1143.696,937.962C1144.536,937.121 1144.913,935.614 1145.371,933.9C1146.139,931.03 1146.589,927.618 1146.819,924.056C1147.226,917.775 1146.929,911.043 1146.164,905.746Z" style="fill:rgb(67,135,96);"/>
        <path d="M1164.393,1000.22C1164.752,998.506 1168.872,978.366 1168.747,958.116C1168.706,958.139 1168.665,958.163 1168.625,958.186C1165.443,960.067 1162.147,963.195 1160.271,966.948C1158.296,970.897 1153.487,972.5 1149.538,970.525C1145.588,968.551 1143.985,963.742 1145.96,959.792C1149.238,953.235 1154.923,947.7 1160.483,944.413C1164.988,941.75 1169.502,940.583 1172.912,940.744C1176.271,940.903 1179.003,942.151 1181.03,944.143C1182.978,946.056 1184.459,948.787 1184.622,952.691C1185.572,975.499 1182.62,995.178 1180.223,1003.356C1179.09,1007.224 1177.541,1009.512 1176.642,1010.411C1173.52,1013.533 1168.451,1013.533 1165.329,1010.411C1162.558,1007.64 1162.246,1003.336 1164.393,1000.22Z" style="fill:rgb(67,135,96);"/>
        <path d="M1188.293,1010.078C1183.124,1013.195 1177.967,1017.637 1177.133,1018.353C1173.78,1021.226 1168.726,1020.837 1165.852,1017.485C1162.979,1014.133 1163.367,1009.078 1166.72,1006.205C1167.93,1005.167 1176.667,997.761 1183.932,994.241C1189.241,991.669 1194.259,991.339 1197.47,992.624L1200.539,994.646C1201.279,995.376 1202.033,996.359 1202.664,997.643C1203.699,999.751 1204.587,1003.468 1204.536,1007.947C1204.433,1017.084 1200.496,1029.393 1190.331,1035.099C1185.849,1037.614 1180.122,1039.001 1172.815,1038.087C1168.434,1037.54 1165.321,1033.538 1165.869,1029.157C1166.417,1024.775 1170.418,1021.663 1174.8,1022.211C1178.074,1022.62 1180.662,1022.227 1182.638,1021.066C1185.616,1019.318 1187.054,1016.095 1187.839,1013.033C1188.075,1012.115 1188.215,1011.089 1188.293,1010.078Z" style="fill:rgb(67,135,96);"/>
        <path d="M1185.461,1066.264C1184.735,1070.62 1180.61,1073.566 1176.254,1072.84C1171.899,1072.115 1168.952,1067.989 1169.678,1063.634C1171.354,1053.578 1173.059,1045.166 1175.577,1038.488C1180.245,1026.111 1187.517,1018.813 1200.709,1016.615C1205.064,1015.889 1209.189,1018.835 1209.915,1023.19C1210.641,1027.546 1207.694,1031.671 1203.339,1032.397C1196.466,1033.542 1192.98,1037.685 1190.548,1044.134C1188.334,1050.005 1186.934,1057.423 1185.461,1066.264Z" style="fill:rgb(67,135,96);"/>
        <path d="M1213.682,1037.317L1213.686,1037.334C1214.368,1040.29 1218.025,1054.429 1197.394,1085.376C1190.764,1095.321 1184.502,1098.865 1179.953,1100.194C1173.8,1101.993 1169.515,1100.253 1168.014,1099.653C1163.915,1098.013 1161.918,1093.354 1163.558,1089.254C1165.198,1085.155 1169.857,1083.158 1173.957,1084.797C1174.929,1085.186 1178.27,1085.217 1184.081,1076.501C1199.629,1053.179 1198.61,1043.16 1198.096,1040.933L1197.835,1037.73C1198.322,1033.342 1202.281,1030.175 1206.669,1030.663C1210.314,1031.068 1213.116,1033.866 1213.682,1037.317Z" style="fill:rgb(67,135,96);"/>
        <path d="M1213.928,1092.852C1212.842,1093.235 1211.014,1093.973 1209.211,1095.127C1204.303,1098.267 1197.817,1103.946 1189.159,1113.566C1186.205,1116.848 1181.143,1117.115 1177.861,1114.161C1174.579,1111.207 1174.313,1106.145 1177.266,1102.863C1191.722,1086.801 1201.451,1080.363 1207.596,1078.025C1214.58,1075.369 1219.03,1076.717 1221.732,1078.174C1224.913,1079.89 1226.456,1082.412 1227.102,1083.875L1227.892,1087.169L1227.484,1090.052C1226.087,1094.241 1221.553,1096.508 1217.364,1095.112C1215.992,1094.655 1214.827,1093.861 1213.928,1092.852ZM1212.056,1089.122C1211.782,1087.791 1211.845,1086.373 1212.305,1084.993C1212.123,1085.538 1211.552,1087.067 1212.056,1089.122Z" style="fill:rgb(67,135,96);"/>
        <path d="M1205.549,1095.928C1206.62,1091.645 1210.967,1089.036 1215.251,1090.107C1219.534,1091.178 1222.142,1095.525 1221.071,1099.809C1220.405,1102.475 1216.766,1116.854 1208.92,1128.959C1202.948,1138.172 1194.567,1145.893 1183.841,1148.038C1179.512,1148.904 1175.293,1146.092 1174.428,1141.762C1173.562,1137.433 1176.374,1133.215 1180.703,1132.349C1187.206,1131.048 1191.873,1125.842 1195.494,1120.256C1202.034,1110.166 1204.994,1098.15 1205.549,1095.928Z" style="fill:rgb(67,135,96);"/>
        <path d="M1104.588,1006.339C1105.111,1009.688 1103.452,1013.135 1100.26,1014.731C1096.314,1016.704 1093.385,1016.183 1091.672,1015.546L1089.548,1014.405L1087.754,1012.653L1086.597,1010.641L1086.048,1008.742C1085.728,1006.916 1085.93,1004.032 1087.702,1000.927C1089.73,997.376 1094.288,992.73 1100.736,990.581C1104.131,989.449 1106.382,988.185 1145.446,992.091C1149.84,992.53 1153.05,996.454 1152.611,1000.847C1152.171,1005.241 1148.248,1008.451 1143.854,1008.012C1110.563,1004.683 1108.689,1004.795 1105.796,1005.76C1105.394,1005.894 1104.985,1006.098 1104.588,1006.339Z" style="fill:rgb(67,135,96);"/>
        <path d="M1094.152,1017.046C1089.964,1015.65 1087.697,1011.116 1089.093,1006.927C1090.489,1002.738 1095.023,1000.471 1099.212,1001.867C1103.292,1003.227 1119.512,1008.591 1152.03,1011.843C1156.424,1012.282 1159.634,1016.206 1159.194,1020.599C1158.755,1024.992 1154.831,1028.203 1150.438,1027.763C1115.775,1024.297 1098.501,1018.496 1094.152,1017.046Z" style="fill:rgb(67,135,96);"/>
        <path d="M1085.811,899.308C1087.365,898.816 1089.083,898.793 1090.747,899.348C1094.668,900.654 1096.469,901.587 1096.816,901.831L1099.1,904.274L1099.934,906.174L1100.245,908.036L1100.125,909.857L1099.57,911.66L1098.494,913.432L1096.75,915.045L1094.202,916.193L1091.482,916.424C1089.926,916.316 1079.998,914.075 1070.45,913.766C1074.375,915.538 1078.702,917.197 1082.79,918.411C1086.577,919.536 1091.82,920.026 1093.042,920.129C1096.161,917.946 1100.495,918.247 1103.28,921.032C1106.402,924.154 1106.402,929.223 1103.28,932.345C1100.387,935.238 1094.329,936.982 1086.519,935.706C1074.88,933.804 1057.935,926.309 1050.749,921.111C1047.384,918.677 1045.59,916.112 1044.954,914.439L1044.378,911.957L1044.438,909.846L1044.93,907.98L1045.82,906.262C1048.82,901.762 1054.844,898.808 1062.455,898.015C1069.705,897.259 1079.398,898.351 1085.811,899.308Z" style="fill:rgb(67,135,96);"/>
        <path d="M1110.657,946.35C1109.936,946.2 1098.703,943.881 1090.655,943.629C1089.238,943.585 1087.848,943.582 1086.527,943.641C1092.757,944.72 1103.483,945.577 1123.392,948.895C1127.748,949.621 1130.694,953.746 1129.968,958.101C1129.242,962.457 1125.117,965.403 1120.762,964.677C1095.925,960.538 1085.041,960.063 1079.428,958.44C1073.042,956.593 1070.493,954.005 1067.739,947.808C1065.832,943.518 1066.068,939.989 1067.178,937.165C1068.667,933.375 1072.273,930.184 1077.979,928.72C1085.078,926.9 1096.684,927.695 1105.249,929.006C1111.565,929.973 1116.333,931.332 1117.19,931.76C1121.139,933.735 1122.742,938.544 1120.768,942.493C1118.896,946.237 1114.476,947.873 1110.657,946.35Z" style="fill:rgb(67,135,96);"/>
        <path d="M1095.349,980.165C1093.698,983.417 1089.964,985.221 1086.277,984.299C1085.189,984.027 1084.17,984.25 1083.583,984.26C1082.645,984.278 1081.88,984.198 1081.318,984.091L1079.53,983.551L1077.8,982.557L1076.204,980.983L1074.98,978.731L1074.525,976.511L1074.77,973.92C1074.992,973.054 1075.59,971.267 1077.858,969C1080.4,966.457 1081.925,965.11 1088.212,964.522C1093.154,964.06 1103.563,964.125 1129.221,962.903C1133.631,962.693 1137.382,966.104 1137.592,970.514C1137.802,974.924 1134.392,978.675 1129.982,978.885C1112.067,979.738 1101.653,979.953 1095.349,980.165Z" style="fill:rgb(67,135,96);"/>
        <path d="M1087.461,989.336C1083.512,987.362 1081.909,982.552 1083.884,978.603C1085.858,974.654 1090.667,973.051 1094.617,975.026C1096.717,976.076 1112.489,980.385 1127.611,983.081C1137.041,984.761 1146.198,986.01 1151.175,984.766C1155.458,983.695 1159.805,986.303 1160.876,990.587C1161.947,994.87 1159.339,999.217 1155.055,1000.288C1148.674,1001.883 1136.893,1000.987 1124.804,998.832C1107.648,995.775 1089.844,990.528 1087.461,989.336Z" style="fill:rgb(67,135,96);"/>
        <path d="M1264.525,1102.823C1270.077,1098.924 1288.389,1087.022 1323.436,1077.525C1327.016,1076.554 1330.793,1078.173 1332.561,1081.434C1334.329,1084.695 1333.623,1088.743 1330.856,1091.214C1329.584,1092.35 1329.857,1092.333 1315.844,1106.347C1312.722,1109.469 1307.652,1109.469 1304.53,1106.347C1303.129,1104.946 1302.356,1103.152 1302.213,1101.319C1284.374,1108.361 1275.096,1114.913 1272.728,1116.626L1269.903,1118.19L1267.128,1118.589L1264.332,1117.985L1261.799,1116.315L1259.987,1113.624L1259.472,1111.737L1259.446,1109.645L1260.46,1106.59L1262.205,1104.439C1262.897,1103.747 1263.684,1103.209 1264.525,1102.823Z" style="fill:rgb(67,135,96);"/>
        <path d="M1332.436,1090.049C1336.937,1086.562 1356.652,1072.452 1386.937,1067.404C1394.271,1066.182 1397.858,1069.188 1399.514,1071.718C1400.972,1073.946 1401.701,1077.018 1400.588,1080.778C1399.672,1083.869 1396.826,1088.332 1392.927,1092.642C1387.824,1098.283 1381.043,1103.833 1376.781,1105.964C1372.832,1107.939 1368.023,1106.336 1366.048,1102.387C1364.074,1098.438 1365.677,1093.628 1369.626,1091.654C1371.649,1090.642 1374.395,1088.478 1377.083,1085.956C1354.522,1092.252 1341.839,1103.05 1340.998,1103.676L1338.027,1105.069L1336.273,1105.285L1334.227,1105.045L1331.602,1103.849L1329.27,1101.322L1328.551,1099.702L1328.184,1097.631L1328.287,1095.961L1328.881,1094.002L1330.865,1091.271C1331.347,1090.789 1331.875,1090.382 1332.436,1090.049Z" style="fill:rgb(67,135,96);"/>
        <path d="M1421.513,1104.695C1420.756,1106.007 1419.62,1107.118 1418.165,1107.846C1413.545,1110.156 1411.062,1110.748 1410.5,1110.793L1407.127,1110.356L1404.367,1108.694L1402.36,1105.798L1401.774,1102.678L1402.416,1099.63L1404.462,1096.741C1404.668,1096.548 1405.071,1096.245 1405.638,1095.85C1403.398,1096.642 1401.676,1097.272 1400.749,1097.614C1400.666,1097.705 1400.581,1097.794 1400.493,1097.882C1397.371,1101.004 1392.301,1101.004 1389.179,1097.882L1388.094,1096.543L1387.235,1094.799L1386.805,1092.859L1386.831,1091.036L1388.036,1087.653L1390.554,1084.977C1392.773,1083.331 1400.474,1080.029 1409.598,1077.111C1418.475,1074.272 1428.72,1071.629 1435.763,1070.805C1440.05,1070.304 1443.497,1070.547 1445.609,1071.204C1447.223,1071.707 1448.481,1072.456 1449.445,1073.281L1450.773,1074.669L1451.875,1076.469L1452.734,1079.88L1452.446,1082.879L1451.791,1084.615L1450.691,1086.229C1450.488,1086.461 1449.667,1087.305 1448.089,1088.325C1444.5,1090.643 1429.946,1099.547 1421.513,1104.695ZM1402.832,1092.002C1402.884,1089.965 1402.082,1088.157 1400.493,1086.568C1401.997,1088.073 1402.777,1090.029 1402.832,1092.002Z" style="fill:rgb(67,135,96);"/>
        <path d="M1475.003,1091.683C1460.867,1095.057 1445.173,1099.515 1443.56,1100.321C1439.611,1102.296 1434.802,1100.693 1432.827,1096.743C1430.853,1092.794 1432.456,1087.985 1436.405,1086.01C1438.933,1084.746 1472.617,1075.174 1488.552,1072.547C1494.608,1071.548 1498.995,1071.997 1500.507,1072.645L1503.318,1074.426L1505.511,1077.47L1506.258,1080.848L1505.883,1083.713C1505.514,1084.995 1504.658,1086.94 1502.38,1089.473C1499.732,1092.418 1493.98,1097.468 1482.404,1106.15C1478.872,1108.799 1473.854,1108.082 1471.205,1104.55C1468.555,1101.017 1469.272,1095.999 1472.805,1093.35C1473.56,1092.783 1474.293,1092.227 1475.003,1091.683Z" style="fill:rgb(67,135,96);"/>
        <path d="M1532.904,1107.657C1531.667,1110.479 1528.848,1112.452 1525.573,1112.452L1523.51,1112.253L1521.342,1111.51L1519.504,1110.27L1518.265,1108.892L1517.218,1106.894L1516.758,1104.766L1516.869,1102.584L1517.59,1100.396L1518.726,1098.874C1510.875,1100.787 1502.38,1103.059 1495.183,1105.458C1490.994,1106.854 1486.46,1104.587 1485.064,1100.398C1483.668,1096.21 1485.935,1091.675 1490.124,1090.279C1508.827,1084.045 1535.96,1078.603 1539.993,1077.797C1547.175,1076.36 1551.193,1076.716 1552.856,1077.274L1555.746,1078.847L1557.764,1081.184L1558.869,1084.359L1558.928,1086.171L1558.501,1088.324C1557.946,1090.012 1555.632,1093.209 1551.392,1096.174C1547.251,1099.069 1540.892,1102.714 1535.95,1105.712C1534.944,1106.322 1533.835,1107.04 1532.904,1107.657Z" style="fill:rgb(67,135,96);"/>
        <path d="M1559.089,1105.569C1558.12,1105.765 1557.141,1105.979 1556.178,1106.213C1553.749,1106.803 1550.199,1108.255 1549.877,1108.387C1546.744,1111.349 1541.795,1111.296 1538.727,1108.228C1535.604,1105.106 1535.605,1100.036 1538.727,1096.914C1540.701,1094.94 1544.391,1092.975 1548.889,1091.615C1556.391,1089.347 1566.43,1088.206 1567.954,1088.036C1586.132,1086.017 1595.256,1086.589 1598.59,1087.817C1600.264,1088.435 1601.439,1089.253 1602.279,1090.04L1603.583,1091.552L1604.629,1093.572L1605.171,1096.792L1604.876,1098.945L1604.257,1100.643C1603.493,1102.252 1601.686,1104.469 1598.579,1106.485C1589.583,1112.321 1564.69,1120.588 1563.823,1120.762C1559.493,1121.628 1555.275,1118.816 1554.409,1114.486C1553.655,1110.716 1555.691,1107.029 1559.089,1105.569Z" style="fill:rgb(67,135,96);"/>
        <path d="M1627.388,1112.03C1627.13,1112.026 1626.874,1112.024 1626.623,1112.025C1610.608,1112.067 1588.897,1114.664 1585.476,1115.804C1581.287,1117.2 1576.753,1114.933 1575.357,1110.744C1573.96,1106.556 1576.228,1102.021 1580.416,1100.625C1585.624,1098.889 1627.923,1093.894 1642.483,1097.328C1652.621,1099.719 1654.79,1106.276 1652.45,1112.126C1650.538,1116.906 1646.16,1121.008 1640.406,1123.952C1630.424,1129.059 1616.197,1130.931 1614.036,1131.202C1609.655,1131.749 1605.653,1128.637 1605.105,1124.256C1604.558,1119.874 1607.67,1115.873 1612.051,1115.325C1613.395,1115.157 1620.496,1114.292 1627.388,1112.03Z" style="fill:rgb(67,135,96);"/>
        <path d="M1614.685,1128.018C1614.468,1127.15 1614.395,1126.23 1614.489,1125.289C1614.928,1120.896 1618.852,1117.685 1623.245,1118.125C1641.683,1119.968 1649.711,1125.152 1653.011,1129.491C1657.881,1135.896 1656.344,1142.614 1653.463,1147.245C1651.457,1150.469 1648.733,1152.455 1647.659,1152.992C1640.31,1156.667 1634.627,1156.108 1627.807,1153.007C1621.288,1150.044 1613.163,1143.65 1597.346,1138.377C1593.157,1136.981 1590.89,1132.447 1592.286,1128.258C1593.683,1124.069 1598.217,1121.802 1602.406,1123.198C1607.075,1124.755 1611.123,1126.393 1614.685,1128.018ZM1627.715,1134.818C1629.043,1135.573 1630.282,1136.28 1631.457,1136.924C1634.583,1138.639 1636.753,1140.07 1639.635,1139.053L1639.807,1138.788C1639.507,1138.55 1639.107,1138.253 1638.74,1138.049C1636.335,1136.713 1632.783,1135.632 1627.715,1134.818Z" style="fill:rgb(67,135,96);"/>
        <path d="M1598.153,1151.164C1598.308,1151.048 1598.577,1150.843 1598.792,1150.648C1598.567,1150.262 1598.23,1149.71 1597.951,1149.373C1596.983,1148.198 1595.778,1147.116 1594.59,1146.147C1591.259,1143.431 1587.957,1141.403 1587.144,1140.665L1585.196,1138.128C1583.221,1134.179 1584.824,1129.369 1588.774,1127.395C1591.886,1125.838 1595.534,1126.504 1597.906,1128.791C1599.078,1129.59 1608.481,1136.101 1612.014,1141.522C1614.481,1145.307 1615.523,1149.406 1614.801,1153.437C1614.301,1156.228 1612.973,1159.102 1610.235,1161.839C1607.072,1165.003 1603.916,1166.494 1600.748,1167.009C1596.625,1167.679 1592.115,1166.582 1586.785,1163.515C1578.678,1158.85 1566.953,1148.625 1544.675,1141.199C1540.487,1139.803 1538.219,1135.268 1539.616,1131.079C1541.012,1126.891 1545.546,1124.624 1549.735,1126.02C1569.829,1132.718 1582.048,1141.407 1590.634,1147.055C1592.769,1148.459 1594.623,1149.651 1596.315,1150.48C1596.9,1150.767 1597.808,1151.058 1598.153,1151.164Z" style="fill:rgb(67,135,96);"/>
        <path d="M1209.913,1141.273C1206.526,1139.092 1205.253,1134.657 1207.095,1130.972C1209.07,1127.023 1213.879,1125.42 1217.829,1127.395C1218.824,1127.892 1220.274,1128.971 1221.904,1130.612C1223.356,1132.073 1225.382,1134.463 1228.175,1135.859C1245.826,1144.685 1250.916,1144.37 1263.135,1145.433C1261.336,1142.808 1260.343,1142.086 1259.582,1141.705C1255.633,1139.731 1254.029,1134.921 1256.004,1130.972C1257.979,1127.023 1262.788,1125.42 1266.737,1127.394C1268.915,1128.483 1274.136,1130.237 1284.994,1151.749C1286.353,1154.441 1286.082,1157.669 1284.293,1160.098C1282.505,1162.526 1279.502,1163.742 1276.528,1163.243C1247.917,1158.441 1246.917,1163.119 1221.019,1150.17C1216.051,1147.686 1210.635,1142.038 1209.913,1141.273Z" style="fill:rgb(67,135,96);"/>
        <path d="M1303.293,1133.31C1300.471,1130.171 1300.57,1125.329 1303.589,1122.309C1306.712,1119.187 1311.781,1119.187 1314.903,1122.309C1316.554,1123.96 1318.07,1126.784 1318.283,1127.21C1320.682,1132.008 1324.685,1137.725 1325.297,1138.603C1327.08,1141.163 1327.212,1144.525 1325.637,1147.217C1324.062,1149.909 1321.065,1151.44 1317.961,1151.139C1314.744,1150.827 1292.425,1148.643 1276.546,1144.598C1268.16,1142.462 1261.434,1139.435 1258.443,1136.445C1255.321,1133.322 1255.321,1128.253 1258.443,1125.131C1261.565,1122.009 1266.635,1122.009 1269.757,1125.131C1271.481,1126.855 1275.661,1127.861 1280.496,1129.093C1287.585,1130.899 1296.039,1132.302 1303.293,1133.31Z" style="fill:rgb(67,135,96);"/>
        <path d="M1298.803,1131.544C1295.271,1128.895 1294.554,1123.877 1297.203,1120.344C1299.852,1116.812 1304.871,1116.095 1308.403,1118.744C1315.984,1124.43 1315.819,1124.163 1320.164,1132.853C1322.139,1136.802 1320.535,1141.612 1316.586,1143.586C1312.637,1145.561 1307.828,1143.958 1305.853,1140.009C1303.247,1134.797 1303.35,1134.954 1298.803,1131.544Z" style="fill:rgb(67,135,96);"/>
        <path d="M1333.164,1121.244C1333.78,1121.667 1334.735,1122.295 1335.552,1122.708C1339.244,1124.578 1344.249,1126.167 1349.352,1127.311C1354.488,1128.463 1359.731,1129.16 1363.887,1129.095C1364.845,1129.08 1366.02,1128.935 1366.792,1128.824C1368.582,1126.43 1371.648,1125.14 1374.773,1125.765C1379.102,1126.631 1381.914,1130.849 1381.048,1135.178C1380.281,1139.012 1377.411,1142.614 1371.642,1144.172C1366.028,1145.688 1355.777,1145.149 1345.852,1142.924C1335.834,1140.678 1326.27,1136.708 1321.856,1132.701C1317.582,1128.821 1316.471,1124.396 1317.475,1120.382C1318.545,1116.099 1322.892,1113.491 1327.176,1114.562C1330.442,1115.378 1332.734,1118.099 1333.164,1121.244Z" style="fill:rgb(67,135,96);"/>
        <path d="M1361.47,1129.368C1359.573,1129.263 1357.708,1128.486 1356.26,1127.039L1354.374,1124.523L1353.469,1121.541L1353.47,1119.768L1353.983,1117.685L1355.121,1115.677L1356.648,1114.166L1358.267,1113.211L1360.197,1112.622L1362.504,1112.526C1363.151,1112.582 1364.039,1112.736 1365.094,1113.084C1368.194,1114.104 1374.979,1117.948 1378.456,1122.122C1381.255,1125.483 1382.251,1129.194 1381.724,1132.424C1381.123,1136.108 1378.313,1141.31 1368.189,1143.335C1363.859,1144.201 1359.641,1141.389 1358.775,1137.059C1358.183,1134.098 1359.311,1131.188 1361.47,1129.368Z" style="fill:rgb(67,135,96);"/>
        <path d="M1383.701,1118.006C1387.514,1119.846 1392.402,1121.983 1396.831,1123.243C1402.286,1124.795 1408.077,1125.813 1413.019,1124.824C1417.348,1123.958 1421.566,1126.77 1422.432,1131.1C1423.298,1135.429 1420.486,1139.648 1416.157,1140.513C1408.931,1141.958 1400.426,1140.902 1392.452,1138.632C1381.278,1135.452 1371.218,1130.023 1367.829,1127.647C1366.077,1126.419 1365.14,1125.271 1364.753,1124.696L1363.819,1122.864L1363.342,1120.453L1363.712,1117.662L1365.279,1114.848L1367.006,1113.337L1369.267,1112.319L1371.383,1112.02L1373.603,1112.274C1374.574,1112.501 1376.828,1113.31 1380.543,1115.167C1381.881,1115.836 1382.95,1116.83 1383.701,1118.006Z" style="fill:rgb(67,135,96);"/>
        <path d="M1427.971,1124.402C1429.299,1125.831 1430.112,1127.745 1430.112,1129.847C1430.112,1135.025 1428.728,1137.189 1428.503,1137.503L1425.905,1139.829L1422.527,1140.836L1420.036,1140.615L1417.425,1139.436L1415.917,1138.087L1414.741,1136.312C1414.466,1135.75 1413.723,1132.056 1412.429,1128.115C1412.185,1127.369 1411.686,1126.318 1411.274,1125.5C1407.878,1126.099 1404.35,1124.438 1402.73,1121.198C1400.755,1117.249 1402.358,1112.439 1406.307,1110.465C1409.339,1108.949 1412.09,1108.679 1414.53,1109.058C1418.035,1109.601 1421.14,1111.595 1423.542,1114.796C1425.521,1117.433 1426.969,1121.151 1427.971,1124.402Z" style="fill:rgb(67,135,96);"/>
        <path d="M1433.024,1127.392C1428.669,1126.666 1425.722,1122.541 1426.448,1118.186C1427.174,1113.831 1431.299,1110.884 1435.655,1111.61C1443.102,1112.851 1442.546,1113.039 1449.538,1115.836C1451.396,1116.579 1452.274,1116.693 1454.968,1116.527C1459.374,1116.256 1466.763,1115.413 1481.737,1114.343C1486.141,1114.029 1489.972,1117.349 1490.287,1121.753C1490.602,1126.157 1487.281,1129.988 1482.877,1130.302C1467.815,1131.378 1460.382,1132.224 1455.95,1132.497C1449.807,1132.875 1447.834,1132.387 1443.595,1130.691C1438.26,1128.557 1438.708,1128.34 1433.024,1127.392Z" style="fill:rgb(67,135,96);"/>
        <path d="M1500.052,1121.85L1500.727,1120.014L1502.783,1117.654C1504.403,1116.353 1507.915,1115.431 1508.268,1115.372C1517.689,1113.802 1525.103,1117.808 1530.547,1123.761C1537.141,1130.97 1540.443,1141.145 1540.999,1142.91C1541.895,1145.754 1541.134,1148.86 1539.025,1150.969C1536.917,1153.078 1533.81,1153.839 1530.966,1152.943C1503.31,1144.236 1502.017,1146.764 1481.353,1126.098C1478.231,1122.976 1478.231,1117.907 1481.353,1114.785C1484.476,1111.663 1489.545,1111.663 1492.667,1114.785C1495.491,1117.609 1497.901,1119.924 1500.052,1121.85Z" style="fill:rgb(67,135,96);"/>
        <path d="M1494.589,1116.83C1496.036,1117.288 1501.27,1118.957 1511.172,1122.258C1515.361,1123.654 1517.628,1128.188 1516.232,1132.377C1514.836,1136.566 1510.302,1138.833 1506.113,1137.437C1493.501,1133.233 1489.615,1132.134 1488.015,1131.467C1485.976,1130.618 1485.212,1129.958 1484.175,1128.92C1481.053,1125.798 1481.053,1120.728 1484.175,1117.606C1487.012,1114.769 1491.458,1114.51 1494.589,1116.83Z" style="fill:rgb(67,135,96);"/>
    </g>
</svg>
