<?xml version="1.0" encoding="UTF-8" standalone="no"?>
<!DOCTYPE svg PUBLIC "-//W3C//DTD SVG 1.1//EN" "http://www.w3.org/Graphics/SVG/1.1/DTD/svg11.dtd">
<svg width="100%" height="100%" viewBox="0 0 1382 690" version="1.1" xmlns="http://www.w3.org/2000/svg" xmlns:xlink="http://www.w3.org/1999/xlink" xml:space="preserve" xmlns:serif="http://www.serif.com/" style="fill-rule:evenodd;clip-rule:evenodd;stroke-linejoin:round;stroke-miterlimit:2;">
    <g transform="matrix(1,0,0,1,0.000906,-0.008457)">
        <g transform="matrix(1,0,0,1,-471.48836,-552.347523)">
            <path d="M616.04,900.945C612.091,902.92 607.281,901.316 605.307,897.367C603.332,893.418 604.935,888.609 608.885,886.634C611.77,885.192 614.62,882.343 618.409,879.139C625.565,873.088 635.156,865.753 650.564,860.617C683.105,849.77 679.937,837.919 780.213,827.892C781.559,827.757 813.725,830.504 836.541,835.943C847.733,838.611 856.746,842.337 860.404,845.996C863.526,849.118 863.526,854.188 860.404,857.31C857.282,860.432 852.213,860.432 849.091,857.31C848.416,856.636 847.256,856.127 845.866,855.523C842.45,854.039 837.902,852.716 832.831,851.507C812.14,846.574 783.026,843.69 781.805,843.812C684.186,853.574 687.303,865.236 655.624,875.796C640.441,880.857 632.011,888.555 625.661,893.989C622.121,897.018 619.033,899.449 616.04,900.945Z" style="fill:white;"/>
        </g>
        <g transform="matrix(1,0,0,1,-471.48836,-552.347523)">
            <path d="M653.121,947.823C679.821,939.391 683.149,946.068 738.599,927.584C785.661,911.897 816.294,892.608 832.675,876.905C837.651,872.135 841.236,867.778 843.42,864.016C844.609,861.969 845.643,860.466 845.398,859.241C844.532,854.912 847.344,850.694 851.674,849.828C856.003,848.962 860.221,851.774 861.087,856.104C862.126,861.295 859.859,870.016 851.64,880.01C836.999,897.811 802.444,923.168 743.659,942.763C686.487,961.821 684.724,954.131 655.624,963.832C654.1,964.339 652.91,964.448 651.994,964.44L648.75,963.826L645.842,961.985L645.385,961.379C646.307,962.26 647.358,962.763 648.307,963.079C647.143,962.691 646.128,962.061 645.298,961.263L644.057,959.62C644.27,960.016 644.505,960.371 644.756,960.689C642.997,958.625 642.328,955.718 643.247,952.96C644.616,948.853 649.002,946.593 653.121,947.823ZM645.385,961.379C645.167,961.171 644.957,960.941 644.756,960.689C644.927,960.888 645.108,961.08 645.298,961.263L645.385,961.379ZM656.563,950.113L658.158,952.059C657.791,951.374 657.269,950.704 656.563,950.113Z" style="fill:white;"/>
        </g>
        <g transform="matrix(1,0,0,1,-471.48836,-552.347523)">
            <path d="M732.232,825.617C735.809,825.337 739.257,827.509 740.442,831.065C741.838,835.253 739.571,839.788 735.382,841.184L731.651,841.689C730.459,841.623 727.894,840.758 714.663,839.288C713.906,839.204 712.494,839.045 710.558,838.848C711.56,840.719 711.82,842.983 711.097,845.154C709.701,849.342 705.166,851.61 700.978,850.213C685.914,845.192 675.286,845.39 665.63,844.5C657.897,843.787 650.695,842.468 642.744,838.493C639.687,836.964 637.939,833.663 638.393,830.275C638.846,826.888 641.402,824.163 644.753,823.493C670.352,818.373 710.731,822.753 716.43,823.386C725.652,824.411 730.611,825.301 732.232,825.617Z" style="fill:white;"/>
        </g>
        <g transform="matrix(1,0,0,1,-471.48836,-552.347523)">
            <path d="M793.662,914.226C794.584,913.379 795.718,912.738 797.008,912.395C798.247,909.579 801.062,907.61 804.334,907.61C807.113,907.61 808.86,908.224 809.811,908.697L812.445,910.713L814.038,913.409L814.518,916.615L813.589,920.085C813.073,921.096 811.955,922.665 809.766,924.152C808.791,924.814 807.302,925.63 805.437,926.575C804.931,927.678 804.284,928.844 803.465,930.056C796.188,940.829 772.928,962.712 737.509,977.892C734.109,979.349 730.153,978.285 727.943,975.319C725.732,972.353 725.844,968.259 728.212,965.417C731.496,961.475 736.018,957.757 740.396,953.781C743.746,950.738 747.062,947.556 749.023,943.635C751.194,939.292 756.561,934.384 763.682,929.935C772.183,924.624 785.51,918.089 793.662,914.226Z" style="fill:white;"/>
        </g>
        <g transform="matrix(1,0,0,1,-471.48836,-552.347523)">
            <path d="M732.956,825.556C733.894,825.753 737.649,826.557 739.824,827.25C742.762,828.185 745.462,829.624 747.539,831.7C750.661,834.822 750.661,839.892 747.539,843.014C744.416,846.136 739.347,846.136 736.225,843.014C735.643,842.432 734.697,842.394 733.86,842.186C732.367,841.814 730.876,841.548 729.595,841.234C726.493,840.474 724.122,839.187 722.681,837.747C719.559,834.625 719.559,829.555 722.681,826.433C725.477,823.637 729.834,823.345 732.956,825.556Z" style="fill:white;"/>
        </g>
        <g transform="matrix(1,0,0,1,-471.48836,-552.347523)">
            <path d="M650.343,827.174C651.219,827.416 679.3,835.189 685.044,838.121C687.55,839.401 688.896,840.982 689.533,842.029L690.394,843.93L690.738,845.631L690.42,848.844L689.589,850.723L688.01,852.649L685.878,854.092C685.306,854.373 684.567,854.665 683.627,854.9C680.259,855.742 676.852,854.309 675.028,851.576C668.762,849.75 653.428,845.246 647.049,843.037C643.289,841.736 640.832,840.171 639.913,839.251C636.791,836.129 636.791,831.06 639.913,827.938C642.755,825.095 647.211,824.841 650.343,827.174ZM679.144,839.553C679.341,839.487 679.542,839.428 679.746,839.377C679.536,839.43 679.335,839.489 679.144,839.553Z" style="fill:white;"/>
        </g>
        <g transform="matrix(1,0,0,1,-471.48836,-552.347523)">
            <path d="M605.029,888.632C607.022,885.146 611.365,883.637 615.139,885.265C619.193,887.014 621.065,891.725 619.316,895.779C618.412,897.874 615.255,901.343 610.532,904.699C606.128,907.828 600.26,911.412 595.8,914.404C594.541,915.248 593.092,916.34 592.227,917.005C591.63,918.312 590.674,919.473 589.393,920.328C585.719,922.777 580.748,921.783 578.299,918.109L577.405,916.357L576.945,914.494L576.924,912.469L577.476,910.209C577.973,908.921 579.29,906.865 581.812,904.794C586.805,900.692 603.832,889.423 605.029,888.632ZM592.827,915.086C593.528,912.722 592.572,910.675 591.611,909.234C592.805,911.024 593.18,913.122 592.827,915.086Z" style="fill:white;"/>
        </g>
        <g transform="matrix(1,0,0,1,-471.48836,-552.347523)">
            <path d="M653.707,966.328L653.623,966.318C648.881,965.795 626.25,964.268 625.443,964.133C621.837,963.532 619.97,963.945 618.199,964.044C614.939,964.228 611.814,964.11 605.875,961.14C601.926,959.166 600.323,954.356 602.297,950.407C604.272,946.458 609.081,944.855 613.03,946.829C616.62,948.624 617.819,947.985 620.167,947.864C622.182,947.76 624.63,947.777 628.074,948.351C628.855,948.481 650.783,949.908 655.378,950.415C657.026,950.597 658.016,950.947 658.283,951.053L661.008,952.843C664.13,955.965 664.13,961.034 661.008,964.156C659.027,966.137 656.261,966.861 653.707,966.328Z" style="fill:white;"/>
        </g>
        <g transform="matrix(1,0,0,1,-471.48836,-552.347523)">
            <path d="M500.329,910.943C497.216,913.061 492.937,912.74 490.177,909.981C487.055,906.859 487.055,901.789 490.177,898.667C491.177,897.667 493.137,896.334 496.235,895.438C499.62,894.459 505.43,893.584 512.554,893.086C528.214,891.992 550.564,892.588 566.115,896.551C574.143,898.597 580.522,901.702 584.259,905.439C587.381,908.561 587.382,913.63 584.259,916.753C581.137,919.875 576.068,919.875 572.946,916.753C569.835,913.642 563.449,912.058 556.05,910.761C542.605,908.404 525.896,908.193 513.669,909.048C508.001,909.444 501.463,910.717 500.329,910.943Z" style="fill:white;"/>
        </g>
        <g transform="matrix(1,0,0,1,-471.48836,-552.347523)">
            <path d="M487.168,912.99C484.046,909.868 484.046,904.799 487.168,901.677C490.29,898.555 495.359,898.555 498.481,901.677C506.973,910.169 517.976,922.248 530.169,931.474C537.488,937.012 545.203,941.554 553.084,943.13C557.413,943.996 560.225,948.214 559.359,952.544C558.493,956.874 554.275,959.686 549.946,958.82C539.877,956.806 529.865,951.309 520.515,944.233C507.705,934.541 496.089,921.912 487.168,912.99Z" style="fill:white;"/>
        </g>
        <g transform="matrix(1,0,0,1,-471.48836,-552.347523)">
            <path d="M547.149,995.115C548.926,998.176 548.505,1002.168 545.885,1004.788C545.311,1005.362 544.743,1005.818 544.224,1006.167L542.184,1007.204L540.047,1007.68L538.193,1007.646L535.686,1006.913L533.57,1005.486L531.494,1002.548L530.725,999.484C530.402,996.151 532.543,984.097 543.173,952.207C544.569,948.019 549.103,945.751 553.292,947.148C557.481,948.544 559.748,953.078 558.352,957.267C552.516,974.774 549.302,985.701 547.737,992.302C547.502,993.291 547.306,994.26 547.149,995.115Z" style="fill:white;"/>
        </g>
        <g transform="matrix(1,0,0,1,-471.48836,-552.347523)">
            <path d="M543.178,1010.585C538.933,1011.798 534.501,1009.336 533.288,1005.091C532.075,1000.846 534.537,996.414 538.783,995.201C544.276,993.632 578.74,983.917 601.538,961.119C604.661,957.997 609.73,957.997 612.852,961.119C615.974,964.242 615.974,969.311 612.852,972.433C587.492,997.792 549.289,1008.84 543.178,1010.585Z" style="fill:white;"/>
        </g>
        <g transform="matrix(1,0,0,1,-471.48836,-552.347523)">
            <path d="M786.592,893.523C787.5,893.734 788.387,894.11 789.208,894.658C792.882,897.107 793.876,902.078 791.427,905.752C790.83,906.647 790.189,907.353 789.551,907.916L787.63,909.243L785.592,910.031L783.355,910.325C780.688,910.35 777.025,909.112 774.124,904.821C770.789,899.889 767.039,887.679 766.214,874.014C765.394,860.414 767.455,845.522 774.352,835.176C776.801,831.503 781.772,830.508 785.446,832.958C789.12,835.407 790.114,840.378 787.665,844.052C782.536,851.746 781.575,862.935 782.185,873.05C782.633,880.475 785.253,889.378 786.592,893.523Z" style="fill:white;"/>
        </g>
        <g transform="matrix(1,0,0,1,-471.48836,-552.347523)">
            <path d="M800.182,858.788C803.304,855.666 808.374,855.666 811.496,858.788C814.618,861.91 814.618,866.979 811.496,870.101L809.991,871.606C806.869,874.728 801.799,874.728 798.677,871.606C795.555,868.484 795.555,863.415 798.677,860.293L800.182,858.788Z" style="fill:white;"/>
        </g>
        <g transform="matrix(1,0,0,1,-471.48836,-552.347523)">
            <path d="M735.293,898.356C735.626,897.467 736.043,896.28 736.326,895.207C737.453,890.938 741.834,888.387 746.103,889.514C750.372,890.641 752.923,895.022 751.796,899.291C749.456,908.154 746.028,911.946 742.251,913.579C738.819,915.062 733.866,914.926 726.066,912.444C721.859,911.105 719.53,906.602 720.868,902.395C722.207,898.187 726.71,895.858 730.917,897.197C732.391,897.666 734.109,898.086 735.293,898.356Z" style="fill:white;"/>
        </g>
        <g transform="matrix(1,0,0,1,-471.48836,-552.347523)">
            <path d="M701.283,905.103C701.405,904.906 701.522,904.703 701.619,904.508C703.594,900.559 708.403,898.956 712.352,900.931C716.301,902.905 717.904,907.715 715.93,911.664C711.943,919.637 706.832,921.568 702.844,921.885C696.584,922.382 691.209,917.636 690.326,916.753C687.204,913.63 687.204,908.561 690.326,905.439C693.332,902.433 698.142,902.321 701.283,905.103Z" style="fill:white;"/>
        </g>
        <g transform="matrix(1,0,0,1,-471.48836,-552.347523)">
            <path d="M671.509,918.95C672.357,918.501 673.386,917.965 674.347,917.484C678.296,915.51 683.105,917.113 685.08,921.062C687.054,925.011 685.451,929.821 681.502,931.795C679,933.046 677.297,934.084 675.901,934.672C673.539,935.668 671.478,935.935 669.397,935.657C666.982,935.335 664.096,934.164 660.229,930.296C657.106,927.174 657.106,922.105 660.229,918.983C663.34,915.872 668.385,915.861 671.509,918.95Z" style="fill:white;"/>
        </g>
        <g transform="matrix(1,0,0,1,-471.48836,-552.347523)">
            <path d="M569.183,913.743C566.061,910.621 566.061,905.551 569.183,902.429C572.306,899.307 577.375,899.307 580.497,902.429C583.346,905.278 585.102,908.464 594.787,927.834C596.762,931.783 595.159,936.592 591.209,938.567C587.26,940.542 582.451,938.938 580.476,934.989C572.482,918.999 571.535,916.095 569.183,913.743Z" style="fill:white;"/>
        </g>
        <g transform="matrix(1,0,0,1,-471.48836,-552.347523)">
            <g transform="matrix(1.03069,0.530681,-0.324579,0.630397,647.981183,-272.860863)">
                <path d="M614.48,904.579C610.838,906.4 606.977,903.044 605.863,897.089C604.749,891.134 606.802,884.821 610.444,883C618.911,878.767 627.773,865.132 651.715,857.151C684.065,846.368 680.902,834.559 780.587,824.59C781.905,824.458 813.356,827.238 835.682,832.56C846.249,835.079 854.893,838.573 858.348,842.028C861.597,845.277 862.622,852.228 860.635,857.54C858.647,862.852 854.396,864.527 851.147,861.278C848.505,858.636 841.771,856.816 833.69,854.89C812.509,849.84 782.68,846.988 781.43,847.114C683.221,856.934 686.343,868.638 654.473,879.262C631.24,887.006 622.696,900.471 614.48,904.579Z" style="fill:white;"/>
            </g>
        </g>
        <g transform="matrix(1,0,0,1,-471.48836,-552.347523)">
            <g transform="matrix(1.03069,0.530681,-0.324579,0.630397,647.981183,-272.860863)">
                <path d="M652.812,944.825C680.869,935.678 683.306,942.934 739.751,924.119C794.925,905.726 827.602,882.583 841.343,865.875C843.588,863.145 845.63,859.45 846.346,858.102C846.231,853.194 848.102,848.55 851.098,846.949C854.718,845.013 858.618,848.247 859.802,854.166C860.464,857.478 860.524,861.4 859.469,865.806C858.326,870.583 855.263,877.071 849.579,883.982C835.074,901.618 800.748,926.815 742.508,946.229C685.336,965.287 683.573,957.597 654.473,967.297C652.285,968.026 650.929,967.686 650.048,967.345L647.886,965.94L647.489,965.404C648.091,965.957 648.738,966.305 649.458,966.545C648.709,966.295 648.012,965.855 647.384,965.261L645.918,963.277C646.176,963.758 646.438,964.173 646.708,964.531C644.636,961.997 643.524,957.653 644.075,953.236C644.836,947.134 648.483,943.19 652.215,944.434L652.812,944.825ZM647.489,965.404C647.221,965.157 646.961,964.869 646.708,964.531C646.923,964.795 647.149,965.039 647.384,965.261L647.489,965.404ZM653.335,945.167L654.137,945.692C653.919,945.486 653.657,945.291 653.335,945.167ZM655.114,946.726L656.297,948.402C655.991,947.832 655.616,947.262 655.114,946.726Z" style="fill:white;"/>
            </g>
        </g>
        <g transform="matrix(1,0,0,1,-471.48836,-552.347523)">
            <g transform="matrix(1.03069,0.530681,-0.324579,0.630397,647.981183,-272.860863)">
                <path d="M732.115,822.376C735.615,821.755 738.897,825.589 739.614,831.341C740.375,837.442 737.963,843.406 734.231,844.65C733.196,844.995 732.503,845.124 730.904,844.869C729.491,844.644 726.213,843.831 715.078,842.594C714.245,842.501 712.629,842.32 710.402,842.098C710.428,843.011 710.386,843.943 710.269,844.878C709.508,850.979 705.861,854.923 702.129,853.679C675.438,844.782 661.894,850.922 644.304,842.127C641.188,840.569 639.163,835.659 639.448,830.351C639.733,825.043 642.249,820.785 645.484,820.138C670.673,815.1 710.406,819.457 716.014,820.08C727.017,821.303 731.194,822.166 732.115,822.376Z" style="fill:white;"/>
            </g>
        </g>
        <g transform="matrix(1,0,0,1,-471.48836,-552.347523)">
            <g transform="matrix(1.03069,0.530681,-0.324579,0.630397,647.981183,-272.860863)">
                <path d="M794.842,911.202C795.324,910.591 795.864,910.077 796.456,909.681C797.228,909.165 798.024,908.895 798.811,908.848C800.071,906.104 802.076,904.328 804.334,904.328C807.022,904.328 808.588,905.179 809.274,905.699L811.043,907.587L812.46,910.401L813.148,913.012L813.426,915.959L812.82,920.902L811.203,924.657C810.679,925.48 809.628,926.792 807.919,927.953C806.942,928.617 805.439,929.436 803.554,930.384C802.992,931.507 802.303,932.705 801.467,933.942C794.264,944.607 771.17,966.425 736.107,981.452C732.903,982.826 729.553,980.282 728.128,975.393C726.703,970.503 727.604,964.647 730.274,961.443C733.545,957.518 738.065,953.799 742.423,949.84C745.693,946.871 748.922,943.898 750.835,940.072C752.989,935.764 758.394,930.593 765.458,926.18C774.546,920.502 786.666,915.102 794.842,911.202Z" style="fill:white;"/>
            </g>
        </g>
        <g transform="matrix(1,0,0,1,-471.48836,-552.347523)">
            <g transform="matrix(1.03069,0.530681,-0.324579,0.630397,647.981183,-272.860863)">
                <path d="M731.352,821.94C731.998,822.084 735.65,822.909 737.949,823.567C740.793,824.38 743.494,825.743 745.482,827.732C748.731,830.981 749.756,837.932 747.769,843.244C745.781,848.556 741.53,850.231 738.281,846.982C736.333,845.034 732.879,845.212 730.477,844.622C727.94,844 725.915,842.893 724.737,841.715C721.488,838.466 720.464,831.515 722.451,826.203C724.321,821.205 728.194,819.426 731.352,821.94Z" style="fill:white;"/>
            </g>
        </g>
        <g transform="matrix(1,0,0,1,-471.48836,-552.347523)">
            <g transform="matrix(1.03069,0.530681,-0.324579,0.630397,647.981183,-272.860863)">
                <path d="M648.59,823.45C648.673,823.491 648.781,823.545 648.864,823.582C655.184,826.442 677.651,831.509 683.463,834.477C685.249,835.389 686.396,836.563 686.975,837.325L688.806,840.881L689.365,843.044L689.667,845.806L689.524,848.82L688.949,851.528L688.096,853.7L686.839,855.68L685.053,857.31C684.543,857.642 683.784,858.028 682.73,858.292C680.412,858.871 678.186,857.489 676.682,854.906C669.696,852.373 655.358,848.981 648.237,846.515C644.99,845.391 642.763,844.014 641.969,843.22C638.72,839.97 637.695,833.02 639.683,827.707C641.554,822.706 645.432,820.929 648.59,823.45Z" style="fill:white;"/>
            </g>
        </g>
        <g transform="matrix(1,0,0,1,-471.48836,-552.347523)">
            <g transform="matrix(1.03069,0.530681,-0.324579,0.630397,647.981183,-272.860863)">
                <path d="M607.039,884.716C609.364,880.825 613.142,880.155 615.948,883.39C619.06,886.979 619.805,894.025 617.61,899.113C616.7,901.222 613.404,905.147 608.649,908.525C604.259,911.644 598.408,915.217 593.963,918.198C592.65,919.079 591.16,920.207 590.247,920.912C590.18,921.043 590.111,921.172 590.04,921.299C587.465,925.887 583.096,926.195 580.29,921.985L578.726,918.601L577.979,913.863L578.082,911.368L578.628,908.5L579.642,905.843L580.857,903.864C581.943,902.409 584.735,900.012 588.399,897.541C594.277,893.575 606.052,885.401 607.039,884.716ZM591.215,908.92C590.871,907.655 590.353,906.458 589.62,905.357C590.311,906.394 590.844,907.609 591.215,908.92Z" style="fill:white;"/>
            </g>
        </g>
        <g transform="matrix(1,0,0,1,-471.48836,-552.347523)">
            <g transform="matrix(1.03069,0.530681,-0.324579,0.630397,647.981183,-272.860863)">
                <path d="M654.324,969.658C654.24,969.647 654.13,969.634 654.036,969.624C649.328,969.104 626.86,967.6 626.059,967.467C616.396,965.856 616.075,969.094 607.434,964.774C603.792,962.953 601.74,956.64 602.853,950.685C603.967,944.73 607.828,941.374 611.471,943.195C615.107,945.013 616.645,944.86 618.758,944.688C620.877,944.516 623.38,944.338 627.458,945.018C628.246,945.149 650.336,946.599 654.965,947.109C656.088,947.233 656.779,947.453 656.96,947.525L658.952,948.874C662.201,952.123 663.225,959.074 661.238,964.386C659.748,968.371 656.984,970.309 654.324,969.658Z" style="fill:white;"/>
            </g>
        </g>
        <g transform="matrix(1,0,0,1,-471.48836,-552.347523)">
            <g transform="matrix(1.03069,0.530681,-0.324579,0.630397,647.981183,-272.860863)">
                <path d="M498.727,914.568C495.592,916.941 491.793,915.145 489.947,910.211C487.96,904.899 488.985,897.948 492.234,894.699C493.049,893.884 494.73,892.743 497.256,892.013C500.483,891.08 506.027,890.269 512.817,889.795C528.132,888.725 549.994,889.28 565.202,893.155C572.689,895.063 578.718,897.985 582.203,901.471C585.452,904.72 586.477,911.67 584.49,916.983C582.502,922.295 578.251,923.97 575.002,920.721C571.606,917.325 564.772,915.515 556.696,914.099C542.962,911.692 525.896,911.467 513.406,912.339C506.605,912.815 499.588,914.373 498.727,914.568Z" style="fill:white;"/>
            </g>
        </g>
        <g transform="matrix(1,0,0,1,-471.48836,-552.347523)">
            <g transform="matrix(1.03069,0.530681,-0.324579,0.630397,647.981183,-272.860863)">
                <path d="M489.224,916.959C485.975,913.709 484.95,906.759 486.938,901.446C488.925,896.134 493.176,894.459 496.425,897.708C510.28,911.564 530.93,935.491 552.353,939.776C556.133,940.532 558.827,946.164 558.364,952.345C557.902,958.526 554.457,962.93 550.677,962.174C527.226,957.484 504.39,932.125 489.224,916.959Z" style="fill:white;"/>
            </g>
        </g>
        <g transform="matrix(1,0,0,1,-471.48836,-552.347523)">
            <g transform="matrix(1.03069,0.530681,-0.324579,0.630397,647.981183,-272.860863)">
                <path d="M546.557,994.629C547.912,999.71 546.802,1005.783 543.829,1008.756C543.191,1009.394 542.573,1009.868 542.012,1010.198L540.012,1010.94L538.141,1010.859L536.659,1010.234L534.997,1008.807L533.611,1006.745L532.535,1004.018L531.872,1000.478C531.693,998.623 531.67,995.245 532.732,989.95C534.036,983.445 537.431,971.153 544.703,949.338C546.525,943.87 550.72,941.85 554.065,944.83C557.409,947.81 558.644,954.669 556.822,960.136C551.41,976.371 548.09,988.62 546.557,994.629Z" style="fill:white;"/>
            </g>
        </g>
        <g transform="matrix(1,0,0,1,-471.48836,-552.347523)">
            <g transform="matrix(1.03069,0.530681,-0.324579,0.630397,647.981183,-272.860863)">
                <path d="M542.169,1014.008C538.417,1015.079 534.838,1010.97 534.183,1004.836C533.527,998.701 536.041,992.851 539.793,991.779C545.38,990.183 580.404,980.34 603.595,957.151C606.844,953.902 611.095,955.577 613.082,960.889C615.069,966.202 614.045,973.152 610.796,976.401C585.827,1001.369 548.184,1012.289 542.169,1014.008Z" style="fill:white;"/>
            </g>
        </g>
        <g transform="matrix(1,0,0,1,-471.48836,-552.347523)">
            <g transform="matrix(1.03069,0.530681,-0.324579,0.630397,647.981183,-272.860863)">
                <path d="M784.578,890.038C786.508,889.951 788.449,891.18 789.856,893.686C792.43,898.275 792.242,905.418 789.436,909.628C785.198,915.985 777.948,915.37 772.781,902.059C769.821,894.436 767.272,882.099 767.141,869.228C767.001,855.57 769.54,841.505 776.343,831.3C779.15,827.09 783.519,827.398 786.094,831.987C788.668,836.575 788.48,843.718 785.674,847.928C778.948,858.016 780.38,874.98 783.034,885.461C783.418,886.975 784.062,888.731 784.578,890.038Z" style="fill:white;"/>
            </g>
        </g>
        <g transform="matrix(1,0,0,1,-471.48836,-552.347523)">
            <g transform="matrix(1.03069,0.530681,-0.324579,0.630397,647.981183,-272.860863)">
                <path d="M802.238,854.819C805.488,851.57 809.739,853.245 811.726,858.558C813.713,863.87 812.689,870.821 809.44,874.07L807.935,875.575C804.686,878.824 800.434,877.149 798.447,871.836C796.46,866.524 797.484,859.573 800.734,856.324L802.238,854.819Z" style="fill:white;"/>
            </g>
        </g>
        <g transform="matrix(1,0,0,1,-471.48836,-552.347523)">
            <g transform="matrix(1.03069,0.530681,-0.324579,0.630397,647.981183,-272.860863)">
                <path d="M736.937,895.281C737.16,894.639 737.505,893.613 737.726,892.777C739.235,887.06 743.299,884.422 746.796,886.89C750.293,889.358 751.906,896.004 750.397,901.721C748.469,909.021 746.266,913.011 743.613,915.357C740.405,918.196 735.728,918.617 727.174,915.895C723.435,914.706 720.991,908.778 721.718,902.665C722.446,896.553 726.071,892.556 729.81,893.745C732.783,894.691 735.881,895.144 736.937,895.281Z" style="fill:white;"/>
            </g>
        </g>
        <g transform="matrix(1,0,0,1,-471.48836,-552.347523)">
            <g transform="matrix(1.03069,0.530681,-0.324579,0.630397,647.981183,-272.860863)">
                <path d="M703.432,900.945C705.842,896.124 710.194,895.41 713.142,899.351C716.091,903.292 716.528,910.406 714.117,915.227C705.153,933.154 693.647,921.986 692.382,920.721C689.133,917.472 688.109,910.521 690.096,905.209C692.083,899.897 696.334,898.222 699.584,901.471C699.806,901.693 701.858,904.092 703.432,900.945Z" style="fill:white;"/>
            </g>
        </g>
        <g transform="matrix(1,0,0,1,-471.48836,-552.347523)">
            <g transform="matrix(1.03069,0.530681,-0.324579,0.630397,647.981183,-272.860863)">
                <path d="M671.011,916.362C671.693,916.005 673.827,914.89 675.906,913.85C679.549,912.029 683.41,915.385 684.524,921.34C685.637,927.295 683.585,933.608 679.942,935.429C674.835,937.983 672.403,939.307 669.894,938.973C667.83,938.697 665.589,937.569 662.285,934.265C659.036,931.016 658.011,924.065 659.998,918.753C661.986,913.44 666.237,911.765 669.486,915.015C670.016,915.545 670.675,916.091 671.011,916.362Z" style="fill:white;"/>
            </g>
        </g>
        <g transform="matrix(1,0,0,1,-471.48836,-552.347523)">
            <g transform="matrix(1.03069,0.530681,-0.324579,0.630397,647.981183,-272.860863)">
                <path d="M571.24,917.711C567.991,914.462 566.966,907.511 568.953,902.199C570.941,896.887 575.192,895.212 578.441,898.461C581.353,901.373 583.076,904.473 592.975,924.271C595.385,929.092 594.948,936.206 591.999,940.147C589.051,944.088 584.7,943.374 582.289,938.553C574.507,922.988 573.529,920 571.24,917.711Z" style="fill:white;"/>
            </g>
        </g>
        <g transform="matrix(1,0,0,1,-471.48836,-552.347523)">
            <g transform="matrix(0.974842,0.222897,-0.18169,0.794626,1166.168922,122.888745)">
                <path d="M615.482,902.878C611.393,904.922 606.72,902.51 605.054,897.494C603.387,892.478 605.354,886.745 609.443,884.701C612.341,883.252 615.229,880.385 619.035,877.167C626.15,871.15 635.676,863.843 650.996,858.736C683.468,847.912 680.299,836.076 780.359,826.07C781.694,825.936 813.583,828.696 836.212,834.091C847.247,836.721 856.195,840.438 859.802,844.046C863.224,847.468 863.738,853.655 860.948,857.854C858.159,862.053 853.115,862.683 849.693,859.26C847.203,856.77 840.776,855.175 833.16,853.359C812.282,848.382 782.891,845.511 781.659,845.634C683.825,855.417 686.94,867.095 655.192,877.678C639.922,882.767 631.422,890.495 625.036,895.96C621.514,898.974 618.46,901.389 615.482,902.878Z" style="fill:white;"/>
            </g>
        </g>
        <g transform="matrix(1,0,0,1,-471.48836,-552.347523)">
            <g transform="matrix(0.974842,0.222897,-0.18169,0.794626,1166.168922,122.888745)">
                <path d="M653.058,946.098C680.214,937.427 683.24,944.3 739.032,925.703C793.74,907.466 826.204,884.524 839.83,867.958C842.646,864.533 844.883,859.908 845.314,858.99C844.768,854.079 847.326,849.348 851.336,848.141C855.625,846.85 859.96,850.073 861.012,855.334C861.652,858.532 861.524,862.534 859.942,867.109C858.513,871.245 855.669,876.334 851.093,881.899C836.471,899.676 801.934,925.075 743.227,944.645C686.055,963.703 684.292,956.013 655.192,965.713C653.853,966.159 652.813,966.262 652.008,966.254L649.23,965.725L646.454,963.944L646.031,963.38C646.878,964.176 647.804,964.649 648.739,964.961C647.686,964.609 646.738,964.015 645.927,963.24L644.424,961.233C644.678,961.708 644.95,962.126 645.234,962.495C643.238,960.088 642.331,956.463 643.117,952.916C644.274,947.689 648.673,944.598 652.934,946.019L653.058,946.098ZM646.031,963.38C645.756,963.121 645.49,962.828 645.234,962.495C645.452,962.759 645.683,963.008 645.927,963.24L646.031,963.38ZM656.561,948.723L657.791,950.446C657.474,949.854 657.078,949.267 656.561,948.723Z" style="fill:white;"/>
            </g>
        </g>
        <g transform="matrix(1,0,0,1,-471.48836,-552.347523)">
            <g transform="matrix(0.974842,0.222897,-0.18169,0.794626,1166.168922,122.888745)">
                <path d="M732.16,823.816C735.943,823.408 739.542,826.368 740.573,831.021C741.73,836.248 739.211,841.645 734.95,843.066C733.577,843.523 732.662,843.711 730.543,843.372C729.139,843.148 725.884,842.34 714.825,841.112C714.153,841.037 712.967,840.904 711.359,840.738C711.589,842.172 711.561,843.692 711.227,845.197C710.07,850.424 705.671,853.515 701.41,852.095C686.217,847.031 675.504,847.218 665.765,846.32C658.177,845.621 651.104,844.326 643.303,840.426C639.984,838.766 637.97,834.602 638.373,830.233C638.776,825.865 641.498,822.358 645.035,821.651C670.475,816.563 710.604,820.934 716.268,821.563C725.768,822.618 730.725,823.531 732.16,823.816Z" style="fill:white;"/>
            </g>
        </g>
        <g transform="matrix(1,0,0,1,-471.48836,-552.347523)">
            <g transform="matrix(0.974842,0.222897,-0.18169,0.794626,1166.168922,122.888745)">
                <path d="M794.28,912.259C794.997,911.602 795.817,911.082 796.721,910.742C796.982,910.644 797.243,910.563 797.505,910.499C798.911,907.679 801.445,905.796 804.334,905.796C807.761,905.796 809.703,906.924 810.577,907.587L812.571,909.689L813.83,912.157L814.526,916.048L814.102,919.426L813.28,921.586L812.102,923.444C811.532,924.169 810.576,925.149 809.146,926.12C808.19,926.769 806.738,927.567 804.922,928.489C804.403,929.575 803.768,930.697 802.995,931.84C795.715,942.619 772.433,964.616 736.996,979.804C733.457,981.32 729.535,979.619 727.559,975.712C725.583,971.804 726.084,966.738 728.763,963.522C732.065,959.561 736.615,955.811 741.014,951.815C744.249,948.877 747.466,945.867 749.359,942.081C751.57,937.66 757.04,932.504 764.291,927.974C772.795,922.661 786.125,916.124 794.28,912.259Z" style="fill:white;"/>
            </g>
        </g>
        <g transform="matrix(1,0,0,1,-471.48836,-552.347523)">
            <g transform="matrix(0.974842,0.222897,-0.18169,0.794626,1166.168922,122.888745)">
                <path d="M732.452,823.672C733.208,823.83 736.493,824.527 738.576,825.122C741.744,826.028 744.721,827.535 746.936,829.75C750.359,833.172 750.872,839.359 748.083,843.558C745.293,847.756 740.249,848.386 736.827,844.964C736.172,844.309 735.144,844.276 734.202,844.041C732.707,843.669 731.215,843.403 729.932,843.089C726.967,842.361 724.66,841.074 723.283,839.697C719.861,836.275 719.347,830.087 722.137,825.889C724.681,822.06 729.098,821.199 732.452,823.672Z" style="fill:white;"/>
            </g>
        </g>
        <g transform="matrix(1,0,0,1,-471.48836,-552.347523)">
            <g transform="matrix(0.974842,0.222897,-0.18169,0.794626,1166.168922,122.888745)">
                <path d="M649.761,825.234C649.772,825.239 649.783,825.244 649.792,825.248C656.129,828.116 678.652,833.21 684.48,836.185C686.046,836.985 687.124,837.883 687.775,838.57L689.152,840.387L690.153,842.572L690.77,846.019L690.263,849.942L689.173,852.423L687.392,854.615L685.325,856.022C684.807,856.277 684.135,856.542 683.284,856.755C680.336,857.492 677.433,856.134 675.604,853.514C669.327,851.682 653.908,847.144 647.493,844.923C643.843,843.659 641.408,842.095 640.515,841.202C637.093,837.779 636.579,831.592 639.369,827.394C641.932,823.536 646.398,822.691 649.761,825.234Z" style="fill:white;"/>
            </g>
        </g>
        <g transform="matrix(1,0,0,1,-471.48836,-552.347523)">
            <g transform="matrix(0.974842,0.222897,-0.18169,0.794626,1166.168922,122.888745)">
                <path d="M605.539,886.771C607.851,882.931 612.17,881.636 615.712,883.936C619.615,886.469 621.106,892.413 619.041,897.201C618.103,899.375 614.811,903.187 609.908,906.67C604.564,910.467 594.497,917.13 591.681,918.988C591.239,919.829 590.685,920.601 590.02,921.268C586.602,924.698 581.558,924.078 578.762,919.885L577.407,917L576.878,913.705L577.337,910.008L578.167,907.851L579.331,905.963C580.467,904.44 583.341,901.958 587.176,899.371C592.913,895.5 604.384,887.57 605.539,886.771ZM592.009,909.039C591.772,908.492 591.486,907.965 591.147,907.458C591.482,907.959 591.768,908.489 592.009,909.039Z" style="fill:white;"/>
            </g>
        </g>
        <g transform="matrix(1,0,0,1,-471.48836,-552.347523)">
            <g transform="matrix(0.974842,0.222897,-0.18169,0.794626,1166.168922,122.888745)">
                <path d="M653.933,968.159C653.884,968.153 653.831,968.147 653.784,968.141C649.054,967.62 626.486,966.101 625.682,965.967C621.915,965.339 619.965,965.757 618.116,965.861C615.021,966.035 612.072,965.893 606.433,963.073C602.344,961.029 600.378,955.297 602.044,950.281C603.711,945.265 608.383,942.852 612.472,944.896C615.516,946.419 616.802,946.308 618.572,946.164C620.828,945.98 623.493,945.793 627.836,946.517C628.619,946.648 650.609,948.083 655.217,948.592C656.673,948.752 657.558,949.058 657.794,949.151L660.406,950.892C663.828,954.315 664.342,960.502 661.552,964.7C659.651,967.562 656.702,968.766 653.933,968.159Z" style="fill:white;"/>
            </g>
        </g>
        <g transform="matrix(1,0,0,1,-471.48836,-552.347523)">
            <g transform="matrix(0.974842,0.222897,-0.18169,0.794626,1166.168922,122.888745)">
                <path d="M499.796,912.851C496.462,915.188 492.139,914.295 489.633,910.525C486.844,906.326 487.357,900.139 490.78,896.717C491.737,895.759 493.655,894.429 496.622,893.571C499.948,892.609 505.659,891.758 512.657,891.269C528.184,890.184 550.347,890.765 565.767,894.694C573.668,896.708 579.979,899.81 583.657,903.488C587.079,906.911 587.593,913.098 584.803,917.297C582.014,921.495 576.97,922.125 573.548,918.703C570.362,915.517 563.878,913.925 556.3,912.596C542.743,910.22 525.895,910.004 513.566,910.866C507.627,911.281 500.767,912.653 499.796,912.851Z" style="fill:white;"/>
            </g>
        </g>
        <g transform="matrix(1,0,0,1,-471.48836,-552.347523)">
            <g transform="matrix(0.974842,0.222897,-0.18169,0.794626,1166.168922,122.888745)">
                <path d="M487.77,914.941C484.348,911.518 483.834,905.331 486.624,901.133C489.413,896.934 494.457,896.304 497.879,899.726C511.523,913.371 531.705,937.069 552.802,941.289C557.16,942.16 560.121,947.208 559.41,952.554C558.7,957.9 554.585,961.533 550.227,960.661C526.45,955.906 503.148,930.319 487.77,914.941Z" style="fill:white;"/>
            </g>
        </g>
        <g transform="matrix(1,0,0,1,-471.48836,-552.347523)">
            <g transform="matrix(0.974842,0.222897,-0.18169,0.794626,1166.168922,122.888745)">
                <path d="M547.444,994.888C549.006,998.882 548.204,1003.817 545.283,1006.738C544.533,1007.488 543.795,1008.043 543.135,1008.431L540.367,1009.444L538.103,1009.431L535.512,1008.453L533.497,1006.74L532.123,1004.714L531.234,1002.478L530.744,999.871C530.594,998.322 530.635,995.541 531.521,991.121C532.809,984.694 536.174,972.573 543.357,951.022C545.029,946.009 549.703,943.603 553.79,945.653C557.877,947.703 559.838,953.438 558.167,958.452C552.297,976.064 548.861,989.149 547.444,994.888Z" style="fill:white;"/>
            </g>
        </g>
        <g transform="matrix(1,0,0,1,-471.48836,-552.347523)">
            <g transform="matrix(0.974842,0.222897,-0.18169,0.794626,1166.168922,122.888745)">
                <path d="M542.795,1012.452C538.495,1013.68 534.191,1010.395 533.189,1005.119C532.188,999.844 534.866,994.563 539.166,993.335C544.679,991.76 579.26,982.049 602.141,959.169C605.563,955.747 610.607,956.377 613.396,960.575C616.186,964.774 615.672,970.961 612.25,974.384C586.972,999.66 548.886,1010.712 542.795,1012.452Z" style="fill:white;"/>
            </g>
        </g>
        <g transform="matrix(1,0,0,1,-471.48836,-552.347523)">
            <g transform="matrix(0.974842,0.222897,-0.18169,0.794626,1166.168922,122.888745)">
                <path d="M786.115,891.639C787.438,891.914 788.723,892.601 789.835,893.717C793.253,897.146 793.759,903.334 790.963,907.527L787.887,910.689L785.71,911.752L783.341,912.139C780.726,912.163 777.439,910.814 774.594,906.606C771.084,901.416 767.089,888.636 766.222,874.256C765.358,859.934 767.553,844.295 774.816,833.401C777.611,829.208 782.656,828.588 786.073,832.017C789.491,835.446 789.996,841.635 787.201,845.827C782.437,852.973 781.611,863.414 782.178,872.807C782.585,879.561 784.877,887.667 786.115,891.639Z" style="fill:white;"/>
            </g>
        </g>
        <g transform="matrix(1,0,0,1,-471.48836,-552.347523)">
            <g transform="matrix(0.974842,0.222897,-0.18169,0.794626,1166.168922,122.888745)">
                <path d="M800.784,856.837C804.207,853.415 809.25,854.045 812.04,858.244C814.83,862.442 814.316,868.629 810.894,872.052L809.389,873.557C805.966,876.979 800.923,876.349 798.133,872.15C795.344,867.952 795.857,861.764 799.28,858.342L800.784,856.837Z" style="fill:white;"/>
            </g>
        </g>
        <g transform="matrix(1,0,0,1,-471.48836,-552.347523)">
            <g transform="matrix(0.974842,0.222897,-0.18169,0.794626,1166.168922,122.888745)">
                <path d="M735.699,896.631C735.946,895.921 736.238,895.028 736.45,894.225C737.811,889.072 742.326,886.243 746.526,887.912C750.727,889.581 753.032,895.12 751.672,900.273C749.827,907.262 747.548,911.148 745.009,913.395C741.392,916.594 736.125,917.388 726.483,914.32C722.209,912.961 719.64,907.6 720.748,902.356C721.856,897.113 726.226,893.96 730.5,895.32C732.35,895.909 734.443,896.374 735.699,896.631Z" style="fill:white;"/>
            </g>
        </g>
        <g transform="matrix(1,0,0,1,-471.48836,-552.347523)">
            <g transform="matrix(0.974842,0.222897,-0.18169,0.794626,1166.168922,122.888745)">
                <path d="M701.453,903.793C701.624,903.539 701.816,903.232 701.955,902.954C704.264,898.337 709.194,896.888 712.958,899.72C716.721,902.553 717.902,908.601 715.594,913.218C711.576,921.252 706.747,923.385 702.727,923.704C696.78,924.176 691.767,919.542 690.928,918.703C687.506,915.281 686.992,909.093 689.782,904.895C692.572,900.696 697.615,900.066 701.038,903.488C701.072,903.523 701.259,903.656 701.453,903.793Z" style="fill:white;"/>
            </g>
        </g>
        <g transform="matrix(1,0,0,1,-471.48836,-552.347523)">
            <g transform="matrix(0.974842,0.222897,-0.18169,0.794626,1166.168922,122.888745)">
                <path d="M671.327,917.404C672.277,916.899 673.65,916.178 674.905,915.551C678.994,913.507 683.666,915.919 685.333,920.936C686.999,925.952 685.033,931.684 680.944,933.728C675.233,936.583 672.396,937.858 669.59,937.484C667.248,937.172 664.582,935.998 660.831,932.247C657.408,928.825 656.895,922.637 659.685,918.439C662.474,914.24 667.518,913.61 670.94,917.032C671.061,917.154 671.194,917.28 671.327,917.404Z" style="fill:white;"/>
            </g>
        </g>
        <g transform="matrix(1,0,0,1,-471.48836,-552.347523)">
            <g transform="matrix(0.974842,0.222897,-0.18169,0.794626,1166.168922,122.888745)">
                <path d="M569.786,915.693C566.363,912.271 565.85,906.084 568.639,901.885C571.429,897.687 576.473,897.056 579.895,900.479C582.797,903.381 584.585,906.548 594.451,926.28C596.76,930.897 595.578,936.945 591.815,939.778C588.051,942.61 583.121,941.16 580.812,936.543C572.998,920.914 572.085,917.992 569.786,915.693Z" style="fill:white;"/>
            </g>
        </g>
        <g transform="matrix(1,0,0,1,-471.48836,-552.347523)">
            <path d="M1194.712,1044.48C1184.897,1034.297 1176.901,1024.047 1161.671,1017.103C1145.023,1009.513 1119.986,1005.956 1075.448,1009.668C1015.075,1014.699 1000.31,1025.983 986.728,1037.66C980.142,1043.323 973.741,1048.934 963.614,1053.997C959.665,1055.972 954.856,1054.369 952.881,1050.42C950.907,1046.47 952.51,1041.661 956.459,1039.686C965.179,1035.327 970.626,1030.404 976.297,1025.528C991.314,1012.616 1007.366,999.286 1074.119,993.723C1122.805,989.666 1150.111,994.248 1168.308,1002.545C1186.738,1010.947 1196.07,1023.257 1208.355,1035.542L1210.013,1037.729L1211.067,1040.524C1211.444,1042.264 1211.671,1044.903 1209.854,1048.538C1207.879,1052.488 1203.07,1054.091 1199.121,1052.116C1196.169,1050.64 1194.527,1047.58 1194.712,1044.48Z" style="fill:white;"/>
        </g>
        <g transform="matrix(1,0,0,1,-471.48836,-552.347523)">
            <path d="M1196.483,1049.848C1198.458,1045.899 1203.267,1044.296 1207.217,1046.27C1211.166,1048.245 1212.769,1053.054 1210.794,1057.003C1204.386,1069.819 1179.341,1121.358 1060.992,1155.173C1013.988,1168.603 993.972,1167.707 979.417,1166.932C971.043,1166.486 964.748,1165.943 955.042,1169.178C950.853,1170.574 946.319,1168.307 944.923,1164.119C943.527,1159.93 945.794,1155.396 949.983,1153.999C962.051,1149.977 969.854,1150.4 980.267,1150.955C993.891,1151.68 1012.602,1152.358 1056.597,1139.788C1166.489,1108.39 1190.533,1061.748 1196.483,1049.848Z" style="fill:white;"/>
        </g>
        <g transform="matrix(1,0,0,1,-471.48836,-552.347523)">
            <path d="M958.25,1040.769C960.57,1040.524 962.977,1041.29 964.753,1043.066L966.191,1044.887L966.827,1046.254L967.257,1049.671L966.398,1052.614L964.391,1055.108L962.961,1056.055L961.21,1056.715L958.244,1056.887C958.149,1056.875 957.763,1056.66 957.041,1056.641C954.752,1056.58 950.316,1058.471 942.18,1066.607C934.402,1074.385 929.633,1077.059 924.878,1079.722C921.086,1081.845 917.304,1083.958 911.142,1090.121C908.02,1093.243 902.95,1093.243 899.828,1090.121C896.706,1086.999 896.706,1081.929 899.828,1078.807C907.559,1071.076 912.304,1068.425 917.061,1065.761C920.856,1063.637 924.659,1061.5 930.866,1055.293C943.89,1042.269 953.721,1040.643 958.25,1040.769ZM951.265,1050.358C951.429,1051.477 951.965,1052.906 953.439,1054.38C952.296,1053.237 951.571,1051.832 951.265,1050.358Z" style="fill:white;"/>
        </g>
        <g transform="matrix(1,0,0,1,-471.48836,-552.347523)">
            <path d="M1017.462,1060.536C1021.843,1061.084 1024.956,1065.085 1024.408,1069.467C1023.86,1073.848 1019.859,1076.96 1015.477,1076.413C1011.345,1075.896 1007.48,1078.105 1004.159,1081.091C1000.031,1084.802 996.758,1089.921 995.017,1094.891C994.129,1097.428 993.618,1099.905 993.799,1102.069C993.867,1102.886 993.898,1103.683 994.465,1104.145C996.002,1105.397 998.559,1104.914 1002.302,1103.979C1006.586,1102.908 1010.933,1105.516 1012.004,1109.799C1013.075,1114.083 1010.466,1118.43 1006.183,1119.501C995.668,1122.13 988.678,1120.067 984.361,1116.551C977.79,1111.199 976.031,1100.697 979.917,1089.602C983.03,1080.715 989.495,1071.558 997.434,1066.037C1003.513,1061.809 1010.428,1059.657 1017.462,1060.536Z" style="fill:white;"/>
        </g>
        <g transform="matrix(1,0,0,1,-471.48836,-552.347523)">
            <path d="M1135.097,1097.217C1135.734,1097.571 1136.333,1098.018 1136.873,1098.558C1139.996,1101.681 1139.996,1106.75 1136.873,1109.872L1134.246,1111.64L1131.337,1112.282L1128.405,1111.866L1125.416,1110.219C1124.105,1109.17 1121.71,1106.307 1119.089,1102.535C1114.668,1096.172 1108.89,1086.619 1106.749,1084.477C1104.609,1082.337 1102.551,1078.936 1100.94,1074.483C1098.086,1066.596 1096.283,1054.783 1095.906,1042.944C1095.526,1031.034 1096.601,1019.12 1099.125,1011.129C1100.581,1006.518 1102.621,1002.988 1104.868,1000.741C1107.99,997.619 1113.059,997.619 1116.181,1000.741C1119.303,1003.864 1119.303,1008.933 1116.181,1012.055C1114.922,1013.315 1114.319,1015.761 1113.644,1018.683C1112.139,1025.211 1111.623,1033.828 1111.898,1042.434C1112.173,1051.085 1113.253,1059.732 1115.098,1066.258C1115.965,1069.324 1116.762,1071.863 1118.063,1073.164C1120.171,1075.273 1125.542,1083.501 1130.201,1090.432C1131.871,1092.916 1134.098,1095.897 1135.097,1097.217ZM1128.131,1096.833C1127.179,1097.215 1126.324,1097.794 1125.56,1098.558C1126.32,1097.798 1127.196,1097.223 1128.131,1096.833Z" style="fill:white;"/>
        </g>
        <g transform="matrix(1,0,0,1,-471.48836,-552.347523)">
            <path d="M1131.681,1041.199C1131.681,1036.783 1135.266,1033.199 1139.681,1033.199C1144.097,1033.199 1147.681,1036.783 1147.681,1041.199L1147.681,1042.139C1147.681,1046.554 1144.097,1050.139 1139.681,1050.139C1135.266,1050.139 1131.681,1046.554 1131.681,1042.139L1131.681,1041.199Z" style="fill:white;"/>
        </g>
        <g transform="matrix(1,0,0,1,-471.48836,-552.347523)">
            <path d="M1014.064,997.494C1013.73,998.338 1013.134,999.835 1012.718,1000.831C1011.618,1003.468 1009.196,1005.318 1006.362,1005.685L993.878,1007.301C992.941,1008.935 992.025,1010.26 991.183,1011.42C990.565,1012.27 989.689,1013.544 989.452,1013.889C989.465,1014.063 989.495,1014.393 989.539,1014.629C989.669,1015.324 989.892,1016.114 990.199,1017.036C991.596,1021.225 989.329,1025.759 985.14,1027.155C980.951,1028.552 976.417,1026.285 975.02,1022.096C972.088,1013.299 973.46,1009.409 975.783,1005.544C977.042,1003.449 979.273,1001.42 981.291,996.743C982.409,994.152 984.81,992.341 987.609,991.979L999.836,990.397C1001.301,987.421 1003.019,985.014 1005.963,983.41C1009.486,981.49 1015.841,980.36 1028.756,983.588C1043.982,987.395 1042.678,989.396 1056.729,996.421C1060.678,998.396 1062.281,1003.205 1060.307,1007.154C1058.332,1011.103 1053.523,1012.707 1049.573,1010.732C1037.112,1004.501 1038.38,1002.487 1024.875,999.111C1021.332,998.225 1018.552,997.699 1016.344,997.506C1015.545,997.436 1014.644,997.463 1014.064,997.494Z" style="fill:white;"/>
        </g>
        <g transform="matrix(1,0,0,1,-471.48836,-552.347523)">
            <path d="M809.815,1084.24C816.466,1089.132 820.83,1093.029 823.573,1096.402C826.905,1100.498 828.331,1104.2 828.726,1107.84C829.151,1111.76 828.169,1115.785 826.271,1120.707C832.396,1128.847 835.163,1133.846 836.398,1139.237C837.566,1144.336 837.261,1149.926 836.522,1159.477C848.519,1166.602 853.447,1166.094 863.597,1188.438C878.015,1192.419 884.213,1198.103 887.015,1202.705C888.988,1205.944 889.486,1209.661 889.478,1212.62C895.425,1216.278 896.852,1218.074 900.92,1223.616C902.501,1222.408 904.468,1220.82 906.179,1219.179C915.343,1210.393 927.201,1195.876 935.224,1181.983C938.79,1175.807 941.685,1169.835 942.923,1164.666C942.51,1163.184 942.519,1161.568 943.042,1159.999C944.716,1154.978 945.909,1153.979 945.976,1153.914L948.187,1152.386L951.129,1151.65L954.377,1152.148L955.998,1152.977L957.609,1154.394L959.077,1156.879L959.572,1159.708C959.572,1168.981 954.307,1181.752 946.436,1194.385C935.454,1212.011 919.752,1229.594 910.266,1236.792C905.839,1240.152 901.966,1241.51 899.638,1241.608L897.725,1241.512L895.541,1240.925L893.347,1239.676L891.561,1237.87C885.267,1229.479 886.04,1229.025 877.034,1223.854C875.07,1222.727 873.675,1220.819 873.197,1218.605L873.115,1215.416C873.177,1215.006 873.303,1214.44 873.473,1213.748C873.596,1213.25 873.972,1212.377 873.541,1211.391C873.07,1210.313 871.964,1209.312 870.183,1208.196C867.131,1206.283 862.61,1204.544 856.061,1203.033C853.585,1202.461 851.528,1200.747 850.518,1198.415C840.496,1175.255 836.439,1178.767 823.744,1170.34C821.326,1168.735 819.967,1165.946 820.193,1163.052C820.988,1152.871 821.894,1147.578 820.802,1142.809C819.769,1138.302 816.773,1134.471 810.814,1126.85C809.011,1124.542 808.612,1121.433 809.775,1118.745C811.431,1114.917 813.116,1112.299 812.819,1109.566C812.657,1108.07 811.548,1106.784 809.812,1104.99C806.695,1101.771 801.834,1098.039 794.703,1093.135C792.546,1091.651 791.251,1089.206 791.236,1086.588C791.222,1084.114 791.429,1080.848 793.329,1077.54C795.057,1074.532 798.25,1071.131 805.217,1068.911C814.175,1066.055 832.127,1064.828 868.054,1069.96C886.644,1072.616 886.815,1070.887 903.419,1079.189C907.369,1081.164 908.972,1085.973 906.997,1089.923C905.022,1093.872 900.213,1095.475 896.264,1093.5C881.985,1086.361 881.778,1088.083 865.791,1085.8C833.927,1081.248 818.021,1081.622 810.076,1084.155C809.987,1084.183 809.9,1084.212 809.815,1084.24Z" style="fill:white;"/>
        </g>
        <g transform="matrix(1,0,0,1,-471.48836,-552.347523)">
            <path d="M878.295,1137.722C878.173,1138.097 878.022,1138.468 877.84,1138.831C875.865,1142.78 871.056,1144.383 867.107,1142.409L865.494,1141.396L863.945,1139.886L862.335,1136.946L861.9,1134.707L862.025,1132.463L863.481,1128.826C864.409,1127.399 866.193,1125.44 869.857,1123.675C874.299,1121.534 883.365,1118.898 900.839,1116.956C905.228,1116.469 909.186,1119.636 909.674,1124.024C910.161,1128.412 906.995,1132.371 902.606,1132.858C890.418,1134.213 882.032,1136.532 878.295,1137.722Z" style="fill:white;"/>
        </g>
        <g transform="matrix(1,0,0,1,-471.48836,-552.347523)">
            <path d="M907.982,1142.506C908.739,1141.207 909.869,1140.107 911.313,1139.385C913.216,1138.433 914.46,1138.099 915.019,1137.994L917.272,1137.877L919.161,1138.266L922.106,1140.016L923.828,1142.328L924.661,1145.649L924.159,1148.72L923.266,1150.463C922.973,1150.901 922.422,1151.619 921.496,1152.45C917.642,1155.908 894.437,1171.354 890.252,1173.447C886.303,1175.422 881.493,1173.818 879.519,1169.869C877.544,1165.92 879.147,1161.111 883.096,1159.136C886.018,1157.675 901.523,1146.985 907.982,1142.506Z" style="fill:white;"/>
        </g>
        <g transform="matrix(1,0,0,1,-471.48836,-552.347523)">
            <g transform="matrix(0.300863,0.338656,-0.36801,0.326941,1574.634327,36.616609)">
                <path d="M1185.27,1047.581C1177.202,1038.901 1170.075,1030.279 1157.149,1024.386C1141.564,1017.28 1118.074,1014.406 1076.376,1017.881C1020.162,1022.565 1006.216,1032.596 993.569,1043.469C986.432,1049.606 979.443,1055.634 968.468,1061.122C959.904,1065.404 949.173,1062.482 944.519,1054.601C939.866,1046.719 943.041,1036.844 951.605,1032.562C959.477,1028.626 964.337,1024.121 969.456,1019.719C985.409,1006.002 1002.275,991.42 1073.191,985.51C1124.721,981.216 1153.569,986.48 1172.83,995.262C1192.452,1004.208 1202.613,1017.114 1215.693,1030.194L1218.735,1034.2L1220.567,1039.04L1220.714,1045.802C1220.438,1047.467 1219.892,1049.453 1218.742,1051.754C1214.668,1059.902 1204.171,1063.474 1195.317,1059.725C1189.782,1057.381 1186.191,1052.729 1185.27,1047.581ZM1189.631,1052.131C1189.656,1052.156 1189.68,1052.181 1189.703,1052.203C1189.679,1052.179 1189.655,1052.155 1189.631,1052.131Z" style="fill:white;"/>
            </g>
        </g>
        <g transform="matrix(1,0,0,1,-471.48836,-552.347523)">
            <g transform="matrix(0.300863,0.338656,-0.36801,0.326941,1574.634327,36.616609)">
                <path d="M1187.595,1046.633C1191.67,1038.484 1202.166,1034.913 1211.021,1038.662C1219.875,1042.411 1223.756,1052.071 1219.682,1060.219C1213.005,1073.573 1187.359,1127.764 1064.031,1163.001C1014.946,1177.026 994.022,1175.977 978.822,1175.168C971.856,1174.797 966.6,1174.178 958.527,1176.869C949.363,1179.923 939.227,1175.557 935.908,1167.123C932.588,1158.69 937.334,1149.363 946.498,1146.309C957.254,1142.724 965.161,1142.158 973.665,1142.391C987.716,1142.776 1004.044,1146.107 1053.558,1131.96C1158.478,1101.982 1181.915,1057.994 1187.595,1046.633Z" style="fill:white;"/>
            </g>
        </g>
        <g transform="matrix(1,0,0,1,-471.48836,-552.347523)">
            <g transform="matrix(0.300863,0.338656,-0.36801,0.326941,1574.634327,36.616609)">
                <path d="M958.616,1032.48C963.542,1032.359 968.496,1034.123 972.091,1037.718L976.074,1043.881L976.888,1050.306L975.242,1055.917L971.104,1061.025L967.603,1063.286L963.267,1064.783L959.295,1065.204L958.232,1065.06C956.756,1065.999 952.877,1068.595 949.518,1071.954C942.441,1079.032 937.511,1082.347 933.07,1084.96C928.842,1087.447 925.175,1088.774 918.48,1095.468C911.88,1102.068 900.699,1102.496 893.527,1096.423C886.354,1090.349 885.89,1080.06 892.49,1073.459C899.532,1066.416 904.443,1063.122 908.882,1060.515C913.102,1058.035 916.786,1056.687 923.528,1049.946C938.421,1035.051 949.075,1032.988 954.364,1032.51C955.847,1032.375 957.306,1032.392 958.616,1032.48ZM954.437,1064.547L954.104,1064.502C954.165,1064.519 954.281,1064.534 954.437,1064.547ZM941.477,1049.789C941.448,1052.067 942.099,1055.726 946.101,1059.728C943.261,1056.888 941.729,1053.365 941.477,1049.789Z" style="fill:white;"/>
            </g>
        </g>
        <g transform="matrix(1,0,0,1,-471.48836,-552.347523)">
            <g transform="matrix(0.300863,0.338656,-0.36801,0.326941,1574.634327,36.616609)">
                <path d="M1004.959,1095.498C1012.452,1095.779 1019.215,1100.469 1021.285,1107.479C1023.84,1116.135 1018.279,1125.071 1008.873,1127.423C993.788,1131.194 983.902,1127.562 977.709,1122.518C971.076,1117.116 967.342,1108.522 968.243,1098.14C969.259,1086.43 976.731,1071.846 987.392,1062.707C996.509,1054.891 1007.683,1050.975 1018.847,1052.371C1028.505,1053.578 1035.281,1061.774 1033.969,1070.662C1032.657,1079.55 1023.751,1085.785 1014.093,1084.578C1013.369,1084.488 1012.987,1085.316 1012.369,1085.77C1010.678,1087.014 1009.189,1088.65 1007.9,1090.421C1006.73,1092.028 1005.727,1093.756 1004.959,1095.498Z" style="fill:white;"/>
            </g>
        </g>
        <g transform="matrix(1,0,0,1,-471.48836,-552.347523)">
            <g transform="matrix(0.300863,0.338656,-0.36801,0.326941,1574.634327,36.616609)">
                <path d="M1099.066,1089.473C1096.397,1086.682 1093.714,1082.443 1091.707,1076.896C1088.654,1068.459 1086.653,1055.83 1086.249,1043.165C1085.841,1030.374 1087.084,1017.585 1089.795,1009.003C1091.711,1002.935 1094.572,998.351 1097.529,995.394C1104.129,988.793 1115.311,988.366 1122.483,994.44C1129.35,1000.255 1130.068,1009.935 1124.323,1016.542C1124.019,1018.071 1121.239,1032.327 1121.554,1042.212C1121.885,1052.572 1125.802,1067.538 1126.074,1068.564C1129.585,1072.733 1139.605,1087.526 1142.351,1091.601C1142.631,1091.81 1142.906,1092.029 1143.175,1092.257C1150.347,1098.33 1150.812,1108.62 1144.212,1115.22L1138.491,1119.044L1131.744,1120.526L1124.98,1119.576L1118.824,1116.235C1117.188,1114.925 1114.052,1111.433 1110.78,1106.724C1106.898,1101.138 1099.528,1090.161 1099.066,1089.473ZM1130.135,1087.997C1125.374,1088.11 1121.446,1089.986 1118.221,1093.211C1121.436,1089.996 1125.739,1088.245 1130.135,1087.997Z" style="fill:white;"/>
            </g>
        </g>
        <g transform="matrix(1,0,0,1,-471.48836,-552.347523)">
            <g transform="matrix(0.300863,0.338656,-0.36801,0.326941,1574.634327,36.616609)">
                <path d="M1123.907,1047.594C1123.639,1045.748 1124.82,1044.351 1128.278,1044.31L1122.021,1042.118L1122.021,1041.225L1131.74,1044.615C1136.293,1045.366 1143.105,1047.566 1152.884,1051.992C1152.884,1051.992 1153.096,1051.832 1153.427,1051.506L1152.884,1052.933C1146.411,1059.638 1135.239,1060.246 1127.952,1054.289C1125.35,1052.161 1123.592,1049.481 1123.907,1047.594ZM1153.427,1051.506L1157.342,1041.225C1157.342,1047.017 1154.616,1050.335 1153.427,1051.506Z" style="fill:white;"/>
            </g>
        </g>
        <g transform="matrix(1,0,0,1,-471.48836,-552.347523)">
            <g transform="matrix(0.300863,0.338656,-0.36801,0.326941,1574.634327,36.616609)">
                <path d="M1020.165,1006.577C1017.415,1010.49 1012.926,1013.18 1007.795,1013.844L1000.022,1014.85C999.901,1015.028 999.783,1015.2 999.67,1015.363C1002.121,1023.77 996.904,1032.53 987.789,1035.103C978.471,1037.733 968.585,1032.907 965.726,1024.332C961.732,1012.349 964.021,1007.066 967.186,1001.799C968.319,999.914 970.406,998.124 972.223,993.915C974.565,988.487 979.892,984.633 986.176,983.82L993.631,982.856C995.518,980.237 997.79,978.087 1000.792,976.451C1005.53,973.869 1014.075,971.324 1031.446,975.666C1047.799,979.755 1046.492,981.752 1061.582,989.297C1070.147,993.579 1073.322,1003.454 1068.669,1011.335C1064.015,1019.217 1053.284,1022.139 1044.72,1017.857C1033.297,1012.145 1034.565,1010.127 1022.186,1007.033C1021.523,1006.867 1020.838,1006.715 1020.165,1006.577Z" style="fill:white;"/>
            </g>
        </g>
        <g transform="matrix(1,0,0,1,-471.48836,-552.347523)">
            <g transform="matrix(0.300863,0.338656,-0.36801,0.326941,1574.634327,36.616609)">
                <path d="M863.858,1214.683C861.849,1213.746 857.727,1211.962 853.564,1211.001C848.059,1209.73 843.553,1206.102 841.453,1201.251C832.692,1181.004 828.934,1184.222 817.837,1176.855C812.871,1173.558 810.116,1168.13 810.554,1162.51C811.267,1153.386 812.298,1148.649 811.319,1144.375C810.471,1140.67 807.679,1137.678 802.781,1131.413C799.261,1126.91 798.479,1121.065 800.71,1115.91C801.406,1114.3 802.217,1112.184 802.718,1110.849C800.645,1108.946 795.016,1103.929 788.665,1099.561C784.229,1096.511 781.605,1091.723 781.576,1086.627C781.551,1082.255 782.202,1076.281 787.053,1070.501C790.554,1066.329 796.935,1061.191 811.023,1059.125C821.773,1057.548 839.722,1057.548 869.632,1061.821C889.971,1064.726 890.106,1062.982 908.273,1072.065C916.837,1076.347 920.013,1086.222 915.359,1094.104C910.706,1101.985 899.975,1104.907 891.41,1100.625C878.693,1094.266 878.452,1095.973 864.213,1093.939C849.813,1091.882 838.73,1090.88 830.196,1090.669C835.847,1097.109 837.833,1102.367 838.345,1107.089C838.764,1110.949 838.182,1114.91 836.754,1119.471C840.454,1124.64 842.742,1128.581 844.211,1132.303C846.719,1138.651 847.085,1144.548 846.459,1155.301C856.553,1160.917 861.843,1162.796 870.958,1181.917C885.927,1186.867 892.384,1193.659 895.588,1198.921C897.405,1201.903 898.323,1205.183 898.739,1208.236C900.001,1209.107 901.048,1209.92 901.998,1210.769C909.22,1203.34 917.724,1192.666 924.326,1182.071C928.178,1175.889 931.624,1169.852 933.122,1164.661C932.796,1162.415 932.979,1160.07 933.748,1157.763C936.327,1150.024 938.611,1148.591 938.714,1148.491L943.588,1145.139L950.517,1143.415L958.235,1144.589L961.912,1146.466L965.366,1149.496L968.297,1154.431L969.232,1159.708C969.232,1169.993 963.696,1184.228 954.967,1198.238C943.369,1216.852 926.683,1235.356 916.666,1242.957C909.901,1248.091 903.667,1249.699 900.11,1249.85L896.108,1249.646L891.461,1248.397L886.913,1245.816L883.426,1242.302C878.27,1235.427 879.048,1234.94 871.67,1230.705C867.532,1228.329 864.646,1224.485 863.696,1220.084C863.556,1219.436 863.704,1216.814 863.858,1214.683Z" style="fill:white;"/>
            </g>
        </g>
        <g transform="matrix(1,0,0,1,-471.48836,-552.347523)">
            <g transform="matrix(0.300863,0.338656,-0.36801,0.326941,1574.634327,36.616609)">
                <path d="M885.372,1144.279C880.363,1151.196 870.342,1153.578 862.253,1149.533L858.674,1147.23L855.409,1143.792L853.03,1139.149L852.222,1133.83L853.03,1129.018L854.856,1125.121L857.57,1121.709C858.612,1120.656 859.962,1119.507 861.762,1118.356C866.01,1115.64 876.3,1111.363 899.606,1108.773C909.282,1107.698 918.087,1114.055 919.256,1122.959C920.424,1131.864 913.516,1139.967 903.84,1141.042C896.015,1141.911 889.333,1143.326 885.372,1144.279Z" style="fill:white;"/>
            </g>
        </g>
        <g transform="matrix(1,0,0,1,-471.48836,-552.347523)">
            <g transform="matrix(0.300863,0.338656,-0.36801,0.326941,1574.634327,36.616609)">
                <path d="M900.419,1137.223C901.938,1135.221 903.971,1133.504 906.459,1132.26C909.77,1130.605 911.994,1130.116 912.968,1129.933L918.213,1129.665L922.649,1130.576L928.121,1133.51L932.729,1139.137L934.318,1145.431L933.373,1151.184L931.655,1154.535L928.483,1158.131C924.365,1161.826 899.578,1178.335 895.106,1180.571C886.541,1184.853 875.81,1181.932 871.157,1174.051C866.503,1166.169 869.678,1156.294 878.242,1152.012C880.826,1150.72 894.069,1141.617 900.419,1137.223Z" style="fill:white;"/>
            </g>
        </g>
        <g transform="matrix(1,0,0,1,-471.48836,-552.347523)">
            <path d="M1415.195,854.32C1392.735,847.807 1314.869,836.81 1229.864,865.145C1226.431,866.289 1205.784,878.68 1192.843,887.051C1192.295,889.237 1190.833,891.18 1188.661,892.266C1184.162,894.516 1181.482,895.62 1180.302,895.956L1178.284,896.326L1176.431,896.261L1174.579,895.763L1172.965,894.897L1171.552,893.65L1170.377,891.941L1169.64,889.815L1169.495,887.926L1169.96,885.526L1170.849,883.734C1171.384,882.913 1174.036,880.376 1178.45,877.391C1191.008,868.898 1220.486,851.406 1224.805,849.966C1317.378,819.108 1401.943,833.056 1422.284,839.766C1426.579,841.182 1429.017,842.89 1429.888,843.796L1431.675,846.531L1432.279,850.107L1431.359,853.469L1429.593,855.765C1428.704,856.578 1426.416,858.208 1422.057,858.208C1419.145,858.208 1416.595,856.648 1415.195,854.32Z" style="fill:white;"/>
        </g>
        <g transform="matrix(1,0,0,1,-471.48836,-552.347523)">
            <path d="M1196.686,914.828C1229.816,916.243 1301.265,916.361 1356.628,894.216C1402.913,875.702 1409.102,860.1 1410.794,855.026C1412.19,850.837 1416.724,848.57 1420.913,849.966C1425.102,851.362 1427.369,855.897 1425.973,860.085C1423.946,866.166 1418.039,886.884 1362.57,909.072C1291.044,937.682 1193.744,930.884 1179.002,929.831C1174.959,929.542 1171.771,926.275 1171.581,922.226C1171.391,918.177 1174.259,914.626 1178.257,913.96L1189.279,912.123C1192.151,911.644 1194.923,912.762 1196.686,914.828Z" style="fill:white;"/>
        </g>
        <g transform="matrix(1,0,0,1,-471.48836,-552.347523)">
            <path d="M1328.464,889.076C1332.274,891.108 1333.794,895.825 1331.851,899.71C1331.386,900.641 1330.877,901.38 1330.381,901.969L1328.657,903.577L1326.502,904.735L1323.787,905.285L1321.077,904.979L1318.906,904.068L1317.111,902.72C1316.566,902.203 1316.008,901.558 1315.483,900.763C1314.027,898.556 1312.439,893.951 1312.183,887.913C1311.697,876.432 1315.528,859.024 1330.918,847.482C1334.45,844.832 1339.469,845.549 1342.118,849.082C1344.767,852.614 1344.05,857.632 1340.518,860.282C1331.742,866.864 1328.72,876.365 1328.219,883.745C1328.099,885.506 1328.26,887.48 1328.464,889.076Z" style="fill:white;"/>
        </g>
        <g transform="matrix(1,0,0,1,-471.48836,-552.347523)">
            <path d="M1348.817,866.741C1347.261,863.729 1347.745,859.933 1350.268,857.41C1353.39,854.288 1358.46,854.288 1361.582,857.41C1366.104,861.932 1366.739,865.108 1366.619,867.327C1366.503,869.453 1365.449,872.204 1361.582,876.071C1358.46,879.194 1353.39,879.194 1350.268,876.072C1347.745,873.548 1347.261,869.752 1348.817,866.741Z" style="fill:white;"/>
        </g>
        <g transform="matrix(1,0,0,1,-471.48836,-552.347523)">
            <path d="M1102.429,896.413C1100.056,898.673 1096.428,899.326 1093.329,897.777L1091.461,896.568L1089.834,894.788L1088.986,893.212L1088.443,891.163L1088.457,888.911L1089.014,886.894L1090.619,884.402L1092.672,882.755C1094.047,881.94 1097.886,880.778 1103.512,880.134C1119.898,878.257 1156.046,877.758 1171.956,880.94C1176.286,881.806 1179.098,886.024 1178.232,890.354C1177.366,894.683 1173.148,897.495 1168.818,896.629C1152.969,893.46 1115.344,894.35 1102.429,896.413Z" style="fill:white;"/>
        </g>
        <g transform="matrix(1,0,0,1,-471.48836,-552.347523)">
            <path d="M1099.484,947.345C1101.407,947.999 1103.083,949.381 1104.062,951.339C1106.037,955.289 1104.434,960.098 1100.484,962.072C1097.224,963.703 1094.425,963.673 1092.132,962.994C1088.997,962.067 1086.015,959.6 1084.496,954.81C1082.315,947.928 1083.751,931.442 1084.559,917.341C1084.833,912.544 1084.992,908.071 1084.713,904.574C1084.612,903.304 1084.586,902.239 1084.24,901.547C1082.266,897.598 1083.869,892.789 1087.818,890.814C1091.768,888.84 1096.577,890.443 1098.551,894.392C1099.884,897.058 1100.735,901.525 1100.839,907.092C1101.018,916.631 1099.432,930.367 1099.197,940.813C1099.149,942.915 1099.32,945.469 1099.484,947.345Z" style="fill:white;"/>
        </g>
        <g transform="matrix(1,0,0,1,-471.48836,-552.347523)">
            <path d="M1093.926,964.344C1089.737,965.74 1085.203,963.473 1083.806,959.284C1082.41,955.095 1084.677,950.561 1088.866,949.165C1095.537,946.941 1137.835,932.856 1170.484,916.532C1174.433,914.558 1179.242,916.161 1181.217,920.11C1183.191,924.06 1181.588,928.869 1177.639,930.843C1144.148,947.588 1100.769,962.062 1093.926,964.344Z" style="fill:white;"/>
        </g>
        <g transform="matrix(1,0,0,1,-471.48836,-552.347523)">
            <g transform="matrix(0.88283,0.469693,-0.469693,0.88283,763.748702,-204.497857)">
                <path d="M1415.195,854.32C1392.735,847.807 1314.869,836.81 1229.864,865.145C1226.431,866.289 1205.784,878.68 1192.843,887.051C1192.295,889.237 1190.833,891.18 1188.661,892.266C1184.162,894.516 1181.482,895.62 1180.302,895.956L1178.284,896.326L1176.431,896.261L1174.579,895.763L1172.965,894.897L1171.552,893.65L1170.377,891.941L1169.64,889.815L1169.495,887.926L1169.96,885.526L1170.849,883.734C1171.384,882.913 1174.036,880.376 1178.45,877.391C1191.008,868.898 1220.486,851.406 1224.805,849.966C1317.378,819.108 1401.943,833.056 1422.284,839.766C1426.579,841.182 1429.017,842.89 1429.888,843.796L1431.675,846.531L1432.279,850.107L1431.359,853.469L1429.593,855.765C1428.704,856.578 1426.416,858.208 1422.057,858.208C1419.145,858.208 1416.595,856.648 1415.195,854.32Z" style="fill:white;"/>
            </g>
        </g>
        <g transform="matrix(1,0,0,1,-471.48836,-552.347523)">
            <g transform="matrix(0.88283,0.469693,-0.469693,0.88283,763.748702,-204.497857)">
                <path d="M1196.686,914.828C1229.816,916.243 1301.265,916.361 1356.628,894.216C1402.913,875.702 1409.102,860.1 1410.794,855.026C1412.19,850.837 1416.724,848.57 1420.913,849.966C1425.102,851.362 1427.369,855.897 1425.973,860.085C1423.946,866.166 1418.039,886.884 1362.57,909.072C1291.044,937.682 1193.744,930.884 1179.002,929.831C1174.959,929.542 1171.771,926.275 1171.581,922.226C1171.391,918.177 1174.259,914.626 1178.257,913.96L1189.279,912.123C1192.151,911.644 1194.923,912.762 1196.686,914.828Z" style="fill:white;"/>
            </g>
        </g>
        <g transform="matrix(1,0,0,1,-471.48836,-552.347523)">
            <g transform="matrix(0.88283,0.469693,-0.469693,0.88283,763.748702,-204.497857)">
                <path d="M1328.464,889.076C1332.274,891.108 1333.794,895.825 1331.851,899.71C1331.386,900.641 1330.877,901.38 1330.381,901.969L1328.657,903.577L1326.502,904.735L1323.787,905.285L1321.077,904.979L1318.906,904.068L1317.111,902.72C1316.566,902.203 1316.008,901.558 1315.483,900.763C1314.027,898.556 1312.439,893.951 1312.183,887.913C1311.697,876.432 1315.528,859.024 1330.918,847.482C1334.45,844.832 1339.469,845.549 1342.118,849.082C1344.767,852.614 1344.05,857.632 1340.518,860.282C1331.742,866.864 1328.72,876.365 1328.219,883.745C1328.099,885.506 1328.26,887.48 1328.464,889.076Z" style="fill:white;"/>
            </g>
        </g>
        <g transform="matrix(1,0,0,1,-471.48836,-552.347523)">
            <g transform="matrix(0.88283,0.469693,-0.469693,0.88283,763.748702,-204.497857)">
                <path d="M1348.817,866.741C1347.261,863.729 1347.745,859.933 1350.268,857.41C1353.39,854.288 1358.46,854.288 1361.582,857.41C1366.104,861.932 1366.739,865.108 1366.619,867.327C1366.503,869.453 1365.449,872.204 1361.582,876.071C1358.46,879.194 1353.39,879.194 1350.268,876.072C1347.745,873.548 1347.261,869.752 1348.817,866.741Z" style="fill:white;"/>
            </g>
        </g>
        <g transform="matrix(1,0,0,1,-471.48836,-552.347523)">
            <g transform="matrix(0.88283,0.469693,-0.469693,0.88283,763.748702,-204.497857)">
                <path d="M1102.429,896.413C1100.056,898.673 1096.428,899.326 1093.329,897.777L1091.461,896.568L1089.834,894.788L1088.986,893.212L1088.443,891.163L1088.457,888.911L1089.014,886.894L1090.619,884.402L1092.672,882.755C1094.047,881.94 1097.886,880.778 1103.512,880.134C1119.898,878.257 1156.046,877.758 1171.956,880.94C1176.286,881.806 1179.098,886.024 1178.232,890.354C1177.366,894.683 1173.148,897.495 1168.818,896.629C1152.969,893.46 1115.344,894.35 1102.429,896.413Z" style="fill:white;"/>
            </g>
        </g>
        <g transform="matrix(1,0,0,1,-471.48836,-552.347523)">
            <g transform="matrix(0.88283,0.469693,-0.469693,0.88283,763.748702,-204.497857)">
                <path d="M1099.484,947.345C1101.407,947.999 1103.083,949.381 1104.062,951.339C1106.037,955.289 1104.434,960.098 1100.484,962.072C1097.224,963.703 1094.425,963.673 1092.132,962.994C1088.997,962.067 1086.015,959.6 1084.496,954.81C1082.315,947.928 1083.751,931.442 1084.559,917.341C1084.833,912.544 1084.992,908.071 1084.713,904.574C1084.612,903.304 1084.586,902.239 1084.24,901.547C1082.266,897.598 1083.869,892.789 1087.818,890.814C1091.768,888.84 1096.577,890.443 1098.551,894.392C1099.884,897.058 1100.735,901.525 1100.839,907.092C1101.018,916.631 1099.432,930.367 1099.197,940.813C1099.149,942.915 1099.32,945.469 1099.484,947.345Z" style="fill:white;"/>
            </g>
        </g>
        <g transform="matrix(1,0,0,1,-471.48836,-552.347523)">
            <g transform="matrix(0.88283,0.469693,-0.469693,0.88283,763.748702,-204.497857)">
                <path d="M1093.926,964.344C1089.737,965.74 1085.203,963.473 1083.806,959.284C1082.41,955.095 1084.677,950.561 1088.866,949.165C1095.537,946.941 1137.835,932.856 1170.484,916.532C1174.433,914.558 1179.242,916.161 1181.217,920.11C1183.191,924.06 1181.588,928.869 1177.639,930.843C1144.148,947.588 1100.769,962.062 1093.926,964.344Z" style="fill:white;"/>
            </g>
        </g>
        <g transform="matrix(1,0,0,1,-471.48836,-552.347523)">
            <g transform="matrix(0.816923,0.13329,-0.211302,1.295053,-191.802141,-617.310739)">
                <path d="M1412.824,852.013C1390.271,845.637 1314.533,835.385 1231.85,862.946C1228.424,864.088 1207.818,876.624 1195.037,884.862C1194.94,884.924 1194.843,884.987 1194.746,885.049C1194.773,886.867 1193.518,888.673 1191.087,889.889C1186.28,892.292 1183.351,893.459 1182.09,893.818L1178.814,894.404L1175.404,894.284L1172.244,893.431L1169.371,891.599L1168.422,890.391L1167.861,888.798L1167.986,887.125L1168.611,885.785C1169.286,884.751 1174.091,880.929 1181.222,876.333C1195.501,867.13 1218.992,853.441 1222.819,852.165C1317.226,820.696 1403.513,835.118 1424.257,841.96C1428.937,843.504 1431.436,845.19 1432.384,846.178L1433.627,848.032L1433.95,849.884L1432.881,852.542L1430.434,854.535L1427.082,855.786C1425.948,856.053 1424.296,856.304 1422.057,856.304C1417.719,856.304 1414.045,854.497 1412.824,852.013Z" style="fill:white;"/>
            </g>
        </g>
        <g transform="matrix(1,0,0,1,-471.48836,-552.347523)">
            <g transform="matrix(0.816923,0.13329,-0.211302,1.295053,-191.802141,-617.310739)">
                <path d="M1198.827,916.818C1232.208,918.143 1300.95,917.884 1354.423,896.495C1401.129,877.813 1407.218,861.421 1408.925,856.301C1410.023,853.008 1415.152,850.897 1420.372,851.589C1425.592,852.282 1428.939,855.517 1427.841,858.81C1425.83,864.844 1419.815,884.776 1364.775,906.793C1292.173,935.834 1193.448,928.978 1178.485,927.909C1173.864,927.579 1170.271,925.22 1169.933,922.294C1169.595,919.369 1172.607,916.706 1177.103,915.956L1188.125,914.119C1192.343,913.416 1196.652,914.588 1198.827,916.818Z" style="fill:white;"/>
            </g>
        </g>
        <g transform="matrix(1,0,0,1,-471.48836,-552.347523)">
            <g transform="matrix(0.816923,0.13329,-0.211302,1.295053,-191.802141,-617.310739)">
                <path d="M1330.478,891.246C1333.679,892.754 1335.182,895.429 1333.913,897.967C1332.881,900.031 1331.299,901.169 1330.158,901.791L1327.023,902.973L1324.098,903.375L1320.392,903.101L1317.63,902.262L1314.911,900.6C1314.359,900.128 1313.766,899.501 1313.238,898.699C1311.657,896.304 1310.08,890.33 1310.581,882.942C1311.287,872.532 1315.941,859.242 1328.321,849.957C1331.755,847.382 1337.857,847.05 1341.939,849.216C1346.021,851.382 1346.548,855.231 1343.115,857.806C1333.526,864.998 1330.44,875.4 1329.893,883.464C1329.707,886.207 1330.096,889.163 1330.478,891.246Z" style="fill:white;"/>
            </g>
        </g>
        <g transform="matrix(1,0,0,1,-471.48836,-552.347523)">
            <g transform="matrix(0.816923,0.13329,-0.211302,1.295053,-191.802141,-617.310739)">
                <path d="M1348.165,866.744C1348.027,866.6 1347.886,866.455 1347.75,866.319C1344.904,863.473 1346.257,859.705 1350.769,857.91C1355.28,856.115 1361.254,856.968 1364.1,859.814C1367.625,863.339 1368.384,865.372 1368.29,867.102C1368.198,868.794 1367.178,870.589 1364.1,873.667C1361.254,876.513 1355.28,877.366 1350.769,875.571C1346.257,873.776 1344.904,870.008 1347.75,867.162C1347.885,867.027 1348.025,866.886 1348.165,866.744Z" style="fill:white;"/>
            </g>
        </g>
        <g transform="matrix(1,0,0,1,-471.48836,-552.347523)">
            <g transform="matrix(0.816923,0.13329,-0.211302,1.295053,-191.802141,-617.310739)">
                <path d="M1104.674,894.25C1104.611,894.303 1104.547,894.356 1104.481,894.409C1101.168,897.046 1095.084,897.49 1090.903,895.4L1088.114,893.379L1086.793,890.922L1086.995,888.56L1088.236,886.664C1089.282,885.578 1092.001,883.842 1097.187,882.879C1110.489,880.409 1154.905,879.292 1173.308,882.973C1178.393,883.99 1181.212,887.42 1179.6,890.627C1177.988,893.835 1172.551,895.613 1167.466,894.596C1152.63,891.629 1117.94,892.377 1104.674,894.25ZM1104.665,886.984C1104.218,886.593 1103.643,886.21 1102.91,885.844C1103.587,886.182 1104.173,886.566 1104.665,886.984Z" style="fill:white;"/>
            </g>
        </g>
        <g transform="matrix(1,0,0,1,-471.48836,-552.347523)">
            <path d="M509.521,681.957C510.917,677.768 515.451,675.501 519.64,676.897C523.829,678.293 526.096,682.828 524.7,687.016C522.569,693.407 521.623,692.174 486.644,762.132C484.669,766.082 479.86,767.685 475.911,765.71C471.961,763.736 470.358,758.926 472.333,754.977C506.372,686.897 507.448,688.176 509.521,681.957Z" style="fill:white;"/>
        </g>
        <g transform="matrix(1,0,0,1,-471.48836,-552.347523)">
            <g transform="matrix(0.816923,0.13329,-0.211302,1.295053,-191.802141,-617.310739)">
                <path d="M1095.911,962.144C1091.195,963.717 1085.343,962.578 1082.851,959.603C1080.358,956.627 1082.164,952.936 1086.88,951.364C1093.515,949.152 1135.588,935.144 1168.058,918.91C1172.238,916.82 1178.322,917.264 1181.636,919.901C1184.949,922.538 1184.245,926.376 1180.065,928.466C1146.395,945.3 1102.791,959.851 1095.911,962.144Z" style="fill:white;"/>
            </g>
        </g>
    </g>
</svg>
