<?xml version="1.0" encoding="UTF-8" standalone="no"?>
<!DOCTYPE svg PUBLIC "-//W3C//DTD SVG 1.1//EN" "http://www.w3.org/Graphics/SVG/1.1/DTD/svg11.dtd">
<svg width="100%" height="100%" viewBox="0 0 1546 1260" version="1.1" xmlns="http://www.w3.org/2000/svg" xmlns:xlink="http://www.w3.org/1999/xlink" xml:space="preserve" xmlns:serif="http://www.serif.com/" style="fill-rule:evenodd;clip-rule:evenodd;stroke-linejoin:round;stroke-miterlimit:2;">
    <g transform="matrix(1,0,0,1,-444.629631,-326.262944)">
        <path d="M1107.149,917.385C1108.35,918.56 1109.192,920.121 1109.46,921.91C1110.115,926.276 1107.102,930.353 1102.735,931.008L1099.978,930.949L1097.423,929.996L1094.847,927.764C1094.108,926.857 1092.831,924.786 1091.225,921.594C1076.069,891.47 1012.098,734.865 956.273,659.71C930.009,624.352 856.488,555.159 786.98,534.701C764.955,528.218 743.366,526.669 724.016,533.358C704.865,539.979 688.114,554.741 675.195,580.137C640.446,648.445 584.803,671.49 541.097,690.82C527.466,696.848 515.08,702.479 505.135,709.256C496.283,715.289 489.441,722.181 485.926,731.479C453.882,816.224 453.609,869.074 476.702,902.724C499.694,936.228 545.075,949.773 601.341,957.441C719.988,973.61 885.935,962.095 1008.134,1027.671C1012.024,1029.758 1013.488,1034.612 1011.4,1038.503C1009.312,1042.393 1004.459,1043.857 1000.568,1041.769C880.034,977.087 716.211,989.243 599.18,973.294C537.605,964.903 488.672,948.443 463.51,911.778C438.449,875.259 436.186,817.786 470.96,725.821C479.811,702.41 504.075,689.699 534.625,676.187C575.641,658.047 628.324,636.986 660.934,572.883C676.14,542.992 696.248,526.028 718.789,518.236C741.131,510.513 766.067,511.866 791.498,519.352C864.358,540.797 941.586,613.106 969.117,650.169C1019.272,717.691 1076.089,850.178 1098.836,900.18C1102.509,908.252 1106.231,915.59 1107.149,917.385ZM1102.959,915.22C1102.024,915.044 1101.153,915.066 1100.362,915.185C1101.248,915.052 1102.123,915.07 1102.959,915.22Z" style="fill:rgb(185,0,166);"/>
        <path d="M1101.29,1372.342C1103.05,1373.451 1104.379,1375.241 1104.849,1377.434C1105.774,1381.751 1103.02,1386.007 1098.703,1386.932L1095.704,1387.133L1092.639,1386.389C1091.068,1385.734 1089.569,1384.657 1088.299,1383.011C1086.12,1380.189 1084.249,1373.663 1085.143,1364.299C1088.826,1325.713 1134.195,1222.268 1296.408,1209.637C1300.81,1209.295 1304.662,1212.59 1305.004,1216.992C1305.347,1221.394 1302.052,1225.246 1297.65,1225.589C1166.368,1235.812 1116.686,1308.691 1104.16,1350.852C1101.608,1359.44 1101.306,1368.837 1101.29,1372.342Z" style="fill:rgb(185,0,166);"/>
        <path d="M1106.567,1352.217C1106.424,1354.811 1105.165,1377.698 1105.023,1382.415C1104.421,1402.4 1102.134,1414.146 1096.742,1423.684C1091.407,1433.122 1082.881,1440.503 1068.784,1451.3C1041.003,1472.578 1019.4,1482.953 1000.003,1484.939C981.159,1486.869 964.096,1481.169 945.341,1468.898C919.644,1452.083 890.27,1422.354 846.12,1384.512C753.304,1304.954 741.746,1329.353 618.935,1322.128C549.741,1318.058 512.347,1297.131 493.837,1270.564C476.13,1245.152 475.212,1214.031 481.606,1185.091C490.926,1142.909 515.691,1105.731 521.897,1099.526C555.909,1065.514 587.458,1036.257 632.562,1017.171C699.623,988.793 797.112,982.848 979.19,1019.265C983.52,1020.131 986.332,1024.349 985.466,1028.679C984.6,1033.008 980.382,1035.82 976.052,1034.954C798.894,999.522 704.046,1004.295 638.797,1031.906C595.693,1050.146 565.714,1078.336 533.211,1110.839C527.592,1116.458 505.668,1150.351 497.23,1188.543C491.785,1213.185 491.887,1239.779 506.964,1261.417C523.579,1285.263 557.767,1302.503 619.874,1306.156C747.976,1313.691 759.717,1289.379 856.533,1372.364C887.78,1399.147 911.535,1421.854 931.838,1438.714C953.871,1457.01 971.295,1468.367 990.548,1469.25C1009.871,1470.136 1030.551,1460.429 1059.055,1438.598C1070.864,1429.553 1078.344,1423.716 1082.813,1415.811C1087.225,1408.006 1088.538,1398.287 1089.03,1381.933C1089.175,1377.141 1089.501,1359.323 1090.463,1351.54C1091.033,1346.929 1092.794,1344.141 1093.578,1343.358C1096.7,1340.236 1101.769,1340.236 1104.891,1343.358C1107.285,1345.751 1107.844,1349.289 1106.567,1352.217Z" style="fill:rgb(185,0,166);"/>
        <path d="M1111.021,1316.047C1109.625,1311.859 1111.892,1307.324 1116.081,1305.928C1120.269,1304.532 1124.804,1306.799 1126.2,1310.988C1140.508,1353.911 1152.528,1366.752 1168.778,1383.466C1180.322,1395.34 1193.84,1409.069 1211.377,1435.374C1213.826,1439.048 1212.832,1444.019 1209.158,1446.468C1205.484,1448.917 1200.513,1447.923 1198.064,1444.249C1181.292,1419.091 1168.347,1405.976 1157.306,1394.62C1139.678,1376.488 1126.543,1362.613 1111.021,1316.047Z" style="fill:rgb(185,0,166);"/>
        <path d="M1248.46,1450.219C1247.389,1448.444 1244.634,1443.962 1242.116,1440.624C1235.288,1431.572 1226.526,1420.942 1223.398,1414.686C1195.467,1358.828 1199.465,1328.205 1202.208,1308.681C1203.12,1302.191 1204.273,1297.29 1202.871,1293.085C1201.475,1288.896 1203.742,1284.362 1207.931,1282.965C1212.12,1281.569 1216.654,1283.836 1218.05,1288.025C1220.105,1294.188 1219.389,1301.394 1218.053,1310.908C1215.551,1328.716 1212.232,1356.581 1237.709,1407.531C1242.135,1416.383 1258.554,1434.281 1262.92,1443.111C1266.152,1449.647 1264.386,1454.607 1262.043,1456.95C1258.921,1460.072 1253.851,1460.072 1250.729,1456.95C1248.895,1455.115 1248.138,1452.608 1248.46,1450.219ZM1249.336,1447.51C1249.697,1446.836 1250.161,1446.204 1250.729,1445.636C1250.2,1446.165 1249.696,1446.78 1249.336,1447.51Z" style="fill:rgb(185,0,166);"/>
        <path d="M1303.105,1440.935C1305.315,1444.057 1305.023,1448.414 1302.228,1451.209C1301.599,1451.838 1301.01,1452.306 1300.491,1452.656L1298.554,1453.667L1295.095,1454.238L1291.992,1453.513L1289.488,1451.804L1287.858,1449.59L1286.975,1447.101C1286.708,1445.847 1286.593,1443.791 1286.888,1441.078C1288.037,1430.503 1295.648,1402.894 1299.033,1383.982C1299.697,1380.272 1300.191,1376.928 1300.399,1374.179C1300.52,1372.593 1300.717,1371.347 1300.463,1370.584C1299.066,1366.395 1301.333,1361.861 1305.522,1360.464C1309.711,1359.068 1314.245,1361.335 1315.641,1365.524C1316.696,1368.687 1316.665,1375.333 1315.306,1383.736C1312.782,1399.337 1306.579,1422.615 1303.854,1436.412C1303.552,1437.945 1303.298,1439.57 1303.105,1440.935Z" style="fill:rgb(185,0,166);"/>
        <path d="M1408.597,1428.414C1411.72,1425.292 1416.789,1425.292 1419.911,1428.414C1423.033,1431.537 1423.033,1436.606 1419.911,1439.728C1392.345,1467.293 1352.624,1466.611 1346.935,1467.749C1342.606,1468.615 1338.388,1465.803 1337.522,1461.473C1336.656,1457.144 1339.468,1452.925 1343.797,1452.06C1348.817,1451.055 1384.272,1452.738 1408.597,1428.414Z" style="fill:rgb(185,0,166);"/>
        <path d="M1274.63,1480.337C1276.026,1476.148 1280.56,1473.881 1284.749,1475.277C1288.938,1476.674 1291.205,1481.208 1289.808,1485.397C1276.609,1524.995 1279.206,1537.042 1283.043,1551.719C1283.388,1553.038 1283.738,1554.376 1284.087,1555.75C1291.204,1544.487 1300.667,1530.173 1309.567,1518.825C1317.277,1508.995 1324.854,1501.401 1330.307,1498.674C1334.256,1496.699 1339.066,1498.302 1341.04,1502.252C1343.015,1506.201 1341.412,1511.01 1337.463,1512.985C1333.325,1515.053 1328.005,1521.243 1322.156,1528.7C1306.591,1548.545 1289.273,1577.773 1286.739,1582.044C1284.964,1585.038 1281.457,1586.54 1278.065,1585.76C1274.673,1584.979 1272.175,1582.096 1271.886,1578.628C1271.078,1568.93 1269.221,1562.109 1267.563,1555.766C1263.203,1539.087 1259.629,1525.336 1274.63,1480.337Z" style="fill:rgb(185,0,166);"/>
        <path d="M1521.472,1517.213C1521.975,1515.455 1522.047,1513.844 1521.64,1512.344C1520.511,1508.177 1516.54,1505.211 1511.754,1502.45C1494.869,1492.708 1467.276,1488.233 1456.345,1483.549C1419.73,1467.856 1375.748,1468.592 1367.265,1468.766C1365.852,1468.795 1365.029,1468.77 1364.869,1468.755L1362.687,1468.24L1360.438,1466.905L1358.436,1464.363C1356.462,1460.414 1358.065,1455.605 1362.014,1453.63C1363.253,1453.011 1364.576,1452.743 1365.87,1452.79L1366.937,1452.769C1376.055,1452.583 1423.294,1451.977 1462.648,1468.842C1473.929,1473.677 1502.324,1478.537 1519.75,1488.592C1528.694,1493.752 1534.972,1500.371 1537.083,1508.158C1538.609,1513.789 1538.178,1520.194 1534.552,1527.448C1533.116,1530.32 1531.078,1532.058 1528.546,1533.066C1526.206,1533.999 1523.015,1534.275 1518.74,1533.196C1510.568,1531.134 1494.295,1522.82 1462.699,1518.306C1451.347,1516.684 1372.201,1504.554 1356.313,1507.202C1351.957,1507.927 1347.832,1504.981 1347.106,1500.626C1346.38,1496.27 1349.327,1492.145 1353.682,1491.419C1370.293,1488.651 1453.094,1500.771 1464.962,1502.467C1488.609,1505.845 1504.074,1511.221 1514.1,1514.809C1516.744,1515.755 1519.547,1516.632 1521.472,1517.213Z" style="fill:rgb(185,0,166);"/>
        <path d="M1032.592,1485.855C1032.983,1485.241 1034.558,1482.783 1037.734,1478.018C1043.033,1470.07 1046.852,1466.785 1048.875,1465.46C1049.79,1464.316 1051.003,1463.104 1052.557,1461.895C1056.373,1458.925 1062.929,1455.394 1071.264,1451.884C1097.349,1440.899 1141.59,1429.527 1167.503,1432.118C1169.98,1432.366 1194.818,1434.892 1200.607,1436.231C1202.078,1436.572 1203.079,1437.006 1203.606,1437.288L1205.592,1438.756C1208.714,1441.878 1208.714,1446.947 1205.592,1450.069C1203.236,1452.426 1199.77,1453.004 1196.87,1451.803C1194.775,1451.545 1168.145,1448.262 1165.911,1448.039C1142.076,1445.655 1101.468,1456.526 1077.473,1466.63C1069.503,1469.986 1061.389,1475.404 1061.389,1475.404C1061.389,1475.404 1061.589,1475.098 1061.659,1474.958L1060.643,1476.541L1059.325,1477.859C1058.71,1478.355 1056.968,1478.012 1051.047,1486.893C1044.89,1496.129 1044.947,1496.103 1044.269,1496.781C1041.147,1499.903 1036.077,1499.903 1032.955,1496.781C1029.959,1493.785 1029.838,1488.996 1032.592,1485.855Z" style="fill:rgb(185,0,166);"/>
        <path d="M1204.202,1468.587C1206.972,1467.69 1210.135,1468.34 1212.333,1470.539C1214.747,1472.952 1215.48,1474.906 1215.652,1475.57L1215.914,1477.557L1215.726,1479.351L1214.239,1482.546L1211.871,1484.619L1208.997,1485.623L1205.472,1485.456C1200.68,1484.423 1171.548,1474.168 1086.119,1482.711C1077.841,1483.539 1061.717,1488.245 1049.276,1494.366C1045.378,1496.284 1041.852,1498.331 1039.13,1500.478C1037.48,1501.78 1036.055,1502.905 1035.607,1504.248C1034.211,1508.437 1029.677,1510.704 1025.488,1509.308C1021.299,1507.911 1019.032,1503.377 1020.428,1499.188C1022.13,1494.083 1027.47,1488.472 1035.33,1483.741C1049.948,1474.941 1073.408,1467.902 1084.527,1466.791C1155.215,1459.722 1192.045,1465.792 1204.202,1468.587Z" style="fill:rgb(185,0,166);"/>
        <path d="M1240.95,1488.425C1242.417,1486.731 1244.583,1485.659 1246.997,1485.659C1250.247,1485.659 1252.211,1486.066 1252.77,1486.276L1254.366,1487.08L1255.911,1488.384L1257.065,1489.994L1257.883,1492.237L1258.001,1494.68L1257.51,1496.728L1256.507,1498.577L1255.222,1499.975L1252.115,1501.734C1245.898,1504.075 1199.993,1515.774 1082.948,1574.295C1078.999,1576.27 1074.19,1574.667 1072.215,1570.717C1070.24,1566.768 1071.844,1561.959 1075.793,1559.984C1171.953,1511.905 1224.679,1493.576 1240.95,1488.425Z" style="fill:rgb(185,0,166);"/>
        <path d="M1139.156,1069.174C1142.613,1071.333 1143.926,1075.814 1142.067,1079.533C1140.092,1083.482 1135.283,1085.085 1131.334,1083.111C1129.804,1082.346 1124.144,1077.078 1116.476,1068.562C1090.097,1039.264 1031.918,969.452 1025.434,961.671C949.42,870.455 881.696,853.271 866.605,849.498C862.321,848.427 859.713,844.08 860.784,839.796C861.855,835.513 866.202,832.905 870.485,833.975C886.346,837.941 957.835,855.56 1037.725,951.428C1044.181,959.175 1102.103,1028.686 1128.367,1057.856C1133.427,1063.476 1138.549,1068.572 1139.156,1069.174Z" style="fill:rgb(185,0,166);"/>
        <path d="M1324.697,738.503C1325.91,734.258 1330.342,731.796 1334.587,733.009C1338.833,734.222 1341.295,738.653 1340.082,742.899C1330.353,776.95 1293.577,870.941 1326.457,1035.35C1327.323,1039.679 1324.51,1043.898 1320.181,1044.763C1315.851,1045.629 1311.633,1042.817 1310.767,1038.488C1277.041,869.845 1314.718,773.432 1324.697,738.503Z" style="fill:rgb(185,0,166);"/>
        <path d="M1690.962,948.788C1695.246,947.718 1699.593,950.326 1700.664,954.609C1701.735,958.893 1699.126,963.24 1694.843,964.311C1679.605,968.12 1565.352,996.653 1493.196,1028.388C1475.232,1036.289 1459.93,1044.336 1449.677,1052.288C1444.123,1056.595 1440.089,1060.595 1438.718,1064.708C1437.322,1068.896 1432.788,1071.163 1428.599,1069.767C1424.41,1068.371 1422.143,1063.836 1423.539,1059.648C1425.676,1053.237 1431.213,1046.36 1439.871,1039.645C1450.932,1031.066 1467.374,1022.265 1486.755,1013.742C1559.833,981.601 1675.529,952.647 1690.962,948.788Z" style="fill:rgb(185,0,166);"/>
        <path d="M1615.382,1224.568C1616.515,1227.442 1615.92,1230.843 1613.598,1233.165C1610.475,1236.287 1605.406,1236.287 1602.284,1233.165L1600.859,1231.293L1599.785,1228.435C1599.103,1225.364 1598.902,1214.655 1566.401,1190.279C1543.567,1173.155 1512.94,1167.342 1483.616,1166.454C1438.194,1165.077 1395.637,1175.74 1387.144,1177.863C1382.861,1178.934 1378.513,1176.326 1377.443,1172.042C1376.372,1167.759 1378.98,1163.412 1383.263,1162.341C1392.14,1160.121 1436.626,1149.022 1484.101,1150.461C1516.707,1151.449 1550.611,1158.437 1576.001,1177.479C1612.136,1204.58 1615.134,1221.792 1615.382,1224.568Z" style="fill:rgb(185,0,166);"/>
        <path d="M1207.317,1148.671C1204.712,1146.771 1199.585,1143.223 1194.423,1140.732C1161.285,1124.743 1087.668,1106.225 1018.477,1133.901C950.96,1160.907 957.872,1170.161 906.349,1221.684C903.227,1224.806 898.158,1224.806 895.036,1221.684C891.914,1218.562 891.914,1213.492 895.036,1210.37C948.879,1156.527 941.976,1147.268 1012.535,1119.045C1097.687,1084.985 1189.045,1116.169 1214.467,1133.744C1220.134,1137.662 1223.092,1141.614 1223.986,1144.25L1224.539,1148.292L1223.796,1151.446L1222.074,1154.161C1221.27,1155.06 1220.226,1155.907 1218.858,1156.591C1214.909,1158.566 1210.1,1156.963 1208.125,1153.013C1207.428,1151.619 1207.177,1150.117 1207.317,1148.671Z" style="fill:rgb(185,0,166);"/>
        <path d="M1150.718,1019.83C1148.744,1015.881 1150.347,1011.072 1154.296,1009.097C1158.245,1007.122 1163.054,1008.725 1165.029,1012.675C1175.56,1033.736 1183.975,1042.334 1191.602,1051.304C1200.042,1061.231 1207.692,1071.52 1215.981,1096.388C1217.377,1100.577 1215.11,1105.111 1210.921,1106.507C1206.733,1107.903 1202.198,1105.636 1200.802,1101.448C1191.962,1074.929 1183.982,1067.044 1174.556,1056.02C1167.593,1047.875 1159.901,1038.194 1150.718,1019.83Z" style="fill:rgb(185,0,166);"/>
        <path d="M1205.031,1150.5C1201.909,1147.378 1201.909,1142.308 1205.031,1139.186C1208.153,1136.064 1213.223,1136.064 1216.345,1139.186C1221.567,1144.409 1231.887,1147.652 1243.677,1150.794C1264.193,1156.261 1288.984,1160.482 1305.269,1167.479C1316.961,1172.503 1324.564,1179.418 1326.612,1187.644C1328.62,1195.703 1325.798,1206.377 1312.787,1219.388C1309.665,1222.51 1304.596,1222.51 1301.474,1219.388C1298.352,1216.265 1298.352,1211.196 1301.474,1208.074C1305.692,1203.856 1308.548,1200.175 1310.106,1196.834C1311.045,1194.82 1311.479,1193.085 1311.087,1191.51C1310.691,1189.921 1309.535,1188.642 1308.07,1187.407C1305.717,1185.422 1302.583,1183.74 1298.953,1182.18C1283.26,1175.437 1259.328,1171.523 1239.558,1166.255C1224.489,1162.24 1211.705,1157.174 1205.031,1150.5Z" style="fill:rgb(185,0,166);"/>
        <path d="M1418.715,1129.873C1421.846,1126.88 1426.818,1126.922 1429.897,1130.001C1433.019,1133.123 1433.019,1138.193 1429.897,1141.315C1428.428,1142.784 1426.06,1144.32 1422.765,1145.682C1417.774,1147.744 1409.871,1149.818 1400.452,1152.631C1372.191,1161.072 1328.401,1176.707 1317.237,1226.948C1316.279,1231.258 1312.002,1233.979 1307.692,1233.022C1303.381,1232.064 1300.66,1227.787 1301.618,1223.477C1312.625,1173.942 1350.508,1152.917 1381.665,1141.892C1393.388,1137.743 1404.051,1135.049 1411.598,1132.67C1414.731,1131.683 1418.422,1130.006 1418.715,1129.873Z" style="fill:rgb(185,0,166);"/>
        <path d="M1435.944,330.598C1439.851,328.539 1445.052,327.714 1450.53,328.524C1460.41,329.984 1470.41,336.615 1472.982,345.306C1474.578,350.698 1473.961,357.189 1468.423,364.192C1464.485,369.172 1457.543,374.777 1446.188,380.455C1427.879,389.609 1406.178,377.479 1402.856,361.086C1400.731,350.6 1405.189,337.141 1425.255,327.108C1429.175,325.147 1433.943,326.713 1435.944,330.598ZM1430.778,342.263C1421.338,347.325 1417.471,352.649 1418.537,357.908C1420.083,365.537 1430.512,370.404 1439.032,366.144C1446.592,362.364 1451.716,358.82 1454.87,355.431C1456.656,353.511 1457.753,351.934 1457.721,350.365C1457.7,349.363 1457.011,348.601 1456.262,347.906C1454.741,346.494 1452.668,345.495 1450.546,344.872C1448.716,344.335 1446.83,344.077 1445.156,344.237C1444.585,344.291 1444.003,344.184 1443.674,344.512C1440.552,347.634 1435.483,347.634 1432.361,344.512C1431.688,343.84 1431.161,343.077 1430.778,342.263Z" style="fill:rgb(185,0,166);"/>
        <path d="M1466.675,391.316C1470.636,386.11 1475.099,383.635 1479.217,382.781C1486.499,381.271 1493.911,384.58 1499.104,391.134C1505.249,398.889 1507.921,411.024 1503.444,420.918C1500.455,427.527 1494.406,433.466 1483.587,436.171C1465.893,440.594 1455.043,436.982 1448.661,431.173C1438.65,422.06 1438.644,405.562 1442.778,395.021C1445.008,389.335 1448.534,385.451 1451.563,383.923C1455.948,381.71 1460.377,382.049 1464.341,386.013C1465.812,387.484 1466.59,389.387 1466.675,391.316ZM1462.452,398.729C1461.201,399.396 1459.81,399.708 1458.428,399.664C1457.695,401.247 1456.726,403.597 1456.395,405.575C1455.643,410.06 1455.73,415.359 1458.916,418.828C1462.408,422.629 1468.936,423.341 1479.706,420.648C1485.975,419.081 1489.111,415.65 1489.63,411.564C1490.083,408.006 1488.893,404.285 1486.921,401.544C1485.704,399.853 1484.344,398.171 1482.555,398.432C1480.527,398.728 1479.07,400.933 1477.321,404.432C1475.346,408.381 1470.537,409.985 1466.587,408.01C1463.112,406.272 1461.454,402.339 1462.452,398.729Z" style="fill:rgb(185,0,166);"/>
        <path d="M1370.409,397.344C1370.657,395.717 1371.407,394.153 1372.658,392.902C1386.806,378.753 1398.311,378.302 1405.714,382.213C1414.243,386.718 1419.396,399.271 1418.743,412.425C1418.111,425.174 1412.212,437.627 1402.559,442.454C1379.05,454.208 1362.738,443.242 1358.278,429.494C1354.967,419.288 1357.821,405.953 1370.409,397.344ZM1395.177,396.307C1395.207,396.409 1395.235,396.513 1395.261,396.618C1396.332,400.901 1393.724,405.249 1389.44,406.319C1376.502,409.554 1371.262,417.668 1373.497,424.557C1375.643,431.171 1384.093,433.798 1395.404,428.143C1397.963,426.863 1399.611,424.187 1400.8,421.178C1402.354,417.244 1402.985,412.636 1402.762,408.286C1402.604,405.221 1402.029,402.277 1400.938,399.845C1400.266,398.349 1399.483,397.017 1398.241,396.361C1397.362,395.896 1396.35,395.939 1395.177,396.307Z" style="fill:rgb(185,0,166);"/>
        <path d="M1418.823,451.547C1419.51,449.063 1421.38,446.954 1424.007,446.079C1425.598,445.549 1439.179,441.148 1449.958,441.955C1456.45,442.44 1462.003,444.8 1465.427,449.066C1469.632,454.305 1471.674,463.946 1463.543,480.209C1456.826,493.644 1440.878,495.986 1427.27,491.251C1420.396,488.859 1414.354,484.742 1410.767,480.149C1407.49,475.952 1406.066,471.284 1406.629,466.728C1407.243,461.765 1410.47,456.034 1418.823,451.547ZM1436.113,459.276C1435.224,461.23 1433.557,462.823 1431.362,463.554C1428.408,464.539 1426.106,465.603 1424.41,466.796C1423.433,467.482 1422.602,467.935 1422.508,468.692C1422.385,469.686 1423.381,470.413 1424.256,471.282C1426.318,473.332 1429.297,475.015 1432.529,476.14C1438.625,478.261 1446.223,479.072 1449.232,473.054C1451.203,469.111 1452.429,465.847 1452.966,463.124C1453.331,461.272 1453.642,459.945 1452.949,459.081C1452.382,458.375 1451.373,458.281 1450.357,458.103C1448.855,457.84 1447.216,457.805 1445.555,457.883C1442.282,458.035 1438.936,458.627 1436.113,459.276Z" style="fill:rgb(185,0,166);"/>
        <path d="M1379.212,467.903C1388.077,468.86 1393.765,472.833 1396.798,477.471C1400.483,483.104 1401.134,490.539 1398.478,498.012C1395.177,507.296 1386.601,516.746 1373.956,520.961C1354.903,527.312 1343.39,521.775 1337.479,513.319C1332.044,505.543 1331.195,494.08 1334.717,483.757C1340.055,468.108 1354.621,455.708 1373.956,462.153C1376.681,463.061 1378.593,465.298 1379.212,467.903ZM1351.896,484.488C1351.064,485.888 1350.382,487.391 1349.86,488.923C1348.051,494.224 1347.802,500.159 1350.593,504.152C1353.507,508.321 1359.502,508.913 1368.896,505.782C1376.263,503.326 1381.479,498.061 1383.402,492.652C1384.23,490.323 1384.557,487.985 1383.408,486.229C1382.465,484.786 1380.612,484.078 1378.107,483.741C1373.651,483.143 1367.748,483.994 1360.178,486.517C1357.163,487.522 1353.97,486.629 1351.896,484.488Z" style="fill:rgb(173,0,132);"/>
        <path d="M1444.35,539.32C1444.135,538.479 1443.784,537.293 1443.337,536.474C1442.849,535.58 1442.46,534.412 1441.445,534.305C1440.048,534.157 1438.735,535.448 1436.786,537.398C1433.663,540.52 1428.594,540.52 1425.472,537.398C1422.35,534.276 1422.35,529.206 1425.472,526.084C1432.484,519.072 1438.861,517.744 1443.805,518.48C1451.537,519.631 1457.343,526.791 1459.509,533.877C1460.637,537.567 1460.763,541.094 1460.274,543.462C1460.027,544.658 1459.633,545.693 1459.167,546.561L1457.452,548.88C1442.512,563.819 1431.517,567.794 1424.501,567.66C1409.056,567.367 1404.869,550.78 1407.465,542.989C1408.862,538.8 1413.396,536.533 1417.585,537.929C1421.773,539.326 1424.041,543.86 1422.644,548.049C1422.479,548.545 1422.664,549.256 1422.884,549.949C1423.139,550.755 1423.661,551.641 1424.805,551.663C1426.669,551.699 1428.921,550.85 1431.774,549.222C1435.364,547.174 1439.518,543.966 1444.35,539.32Z" style="fill:rgb(173,0,132);"/>
        <path d="M1379.549,540.043C1380.036,535.655 1383.995,532.488 1388.383,532.975C1392.772,533.463 1395.938,537.421 1395.451,541.81C1393.788,556.774 1391.669,554.94 1349.336,724.271C1309.768,882.542 1324.339,1045.829 1326.267,1115.689C1326.622,1128.544 1326.531,1138.39 1325.703,1144.673C1325.214,1148.387 1324.396,1151.164 1323.471,1153.013C1321.497,1156.962 1316.688,1158.566 1312.738,1156.591C1308.789,1154.617 1307.186,1149.807 1309.16,1145.858C1310.157,1143.865 1310.264,1139.752 1310.41,1133.869C1310.688,1122.641 1309.99,1106.216 1309.091,1085.708C1305.529,1004.536 1298.78,860.525 1333.814,720.391C1375.664,552.987 1377.905,554.836 1379.549,540.043Z" style="fill:rgb(173,0,132);"/>
        <path d="M1255.423,1136.912C1255.426,1137.206 1255.428,1137.553 1255.428,1137.954C1255.428,1142.37 1251.843,1145.954 1247.428,1145.954C1243.013,1145.954 1239.428,1142.37 1239.428,1137.954C1239.428,1133.111 1239.716,1133.496 1239.839,1133.128C1252.771,1094.327 1257.302,898.714 1257.8,878.282C1258.454,851.478 1330.204,589.411 1352.789,544.238C1354.764,540.288 1359.573,538.685 1363.522,540.66C1367.471,542.634 1369.075,547.443 1367.1,551.393C1344.968,595.66 1274.436,852.406 1273.796,878.672C1273.293,899.266 1268.294,1094.573 1255.423,1136.912Z" style="fill:rgb(173,0,132);"/>
        <path d="M1370.241,1030.03C1370.241,1034.445 1366.656,1038.03 1362.241,1038.03C1357.826,1038.03 1354.241,1034.445 1354.241,1030.03L1354.241,1025.437C1354.241,1021.022 1357.826,1017.437 1362.241,1017.437C1366.656,1017.437 1370.241,1021.022 1370.241,1025.437L1370.241,1030.03Z" style="fill:rgb(173,0,132);"/>
        <path d="M1374.785,1007.951C1374.297,1012.339 1370.338,1015.506 1365.95,1015.018C1361.562,1014.531 1358.395,1010.572 1358.882,1006.184C1360.279,993.618 1371.614,894.772 1399.214,853.373C1401.663,849.699 1406.634,848.705 1410.308,851.154C1413.981,853.603 1414.976,858.574 1412.526,862.248C1386.242,901.674 1376.114,995.984 1374.785,1007.951Z" style="fill:rgb(173,0,132);"/>
        <path d="M1348.482,1090.083C1355.197,1076.295 1364.088,1060.591 1376.123,1041.864C1376.141,1041.835 1376.16,1041.806 1376.178,1041.778C1378.556,1038.078 1383.476,1036.992 1387.19,1039.347C1387.528,1039.561 1387.843,1039.796 1388.137,1040.049C1396.09,1029.631 1406.271,1017.468 1420.515,1001.289C1423.31,998.114 1428.093,997.664 1431.432,1000.261C1434.77,1002.858 1435.51,1007.605 1433.121,1011.095C1404.924,1052.281 1387.78,1079.12 1376.466,1098.052C1384.183,1092.508 1393.896,1086.172 1408.205,1076.266C1411.504,1073.982 1415.985,1074.496 1418.683,1077.467C1420.583,1079.561 1421.183,1082.418 1420.465,1084.995C1431.409,1078.966 1445.123,1073.023 1467.119,1063.965C1470.812,1062.444 1475.061,1063.881 1477.075,1067.33C1479.088,1070.78 1478.248,1075.186 1475.108,1077.653C1426.7,1115.688 1425.324,1111.46 1379.074,1153.086C1373.391,1158.201 1368.882,1156.844 1367.469,1156.204L1365.047,1154.537L1363.494,1152.425L1362.709,1150.214L1362.528,1147.995C1361.271,1147.67 1360.077,1147.034 1359.069,1146.09C1357.348,1144.478 1356.489,1142.27 1356.539,1140.065C1353.343,1144.103 1349.785,1148.76 1345.678,1154.236C1345.642,1154.284 1345.606,1154.331 1345.569,1154.378C1346.086,1159.171 1345.932,1164.738 1345.514,1166.509L1344.68,1168.758L1343.158,1170.791L1341.358,1172.118L1339.526,1172.84L1336.086,1172.97L1333.302,1171.914L1331.465,1170.382L1330.319,1168.736C1330.008,1168.153 1329.414,1166.803 1329.063,1164.344C1329.061,1164.332 1329.059,1164.319 1329.057,1164.306C1327.417,1162.68 1326.494,1160.364 1326.719,1157.896C1327.18,1152.821 1329.958,1122.351 1336.062,1094.886C1336.972,1090.788 1340.896,1088.091 1345.049,1088.709C1346.325,1088.899 1347.49,1089.382 1348.482,1090.083Z" style="fill:rgb(173,0,132);"/>
        <path d="M1106.491,1089.406C1106.069,1087.751 1106.173,1085.95 1106.899,1084.268C1108.59,1080.349 1113.058,1078.447 1117.054,1079.946C1127.798,1083.975 1134.868,1082.433 1158.67,1095.134C1158.632,1094.886 1158.606,1094.65 1158.586,1094.425C1158.409,1092.334 1158.822,1090.613 1159.903,1088.451C1161.845,1084.568 1164.609,1082.795 1167.556,1082.329C1169.445,1082.031 1171.91,1082.142 1174.949,1084.028C1178.255,1086.078 1184.785,1093.329 1199.252,1110.854C1194.117,1095.833 1189.625,1085.023 1178.001,1055.964C1176.467,1052.129 1178.105,1047.757 1181.78,1045.873C1185.455,1043.989 1189.961,1045.213 1192.178,1048.698C1208.544,1074.415 1214.403,1081.95 1222.081,1096.878C1222.578,1061.192 1217.815,1051.348 1207.436,999.451C1206.618,995.364 1209.076,991.334 1213.084,990.19C1217.092,989.045 1221.307,991.17 1222.771,995.073C1252.793,1075.133 1248.594,1113.035 1245.828,1126.224C1246.759,1129.01 1246.117,1132.209 1243.9,1134.426C1241.339,1136.986 1239.298,1137.616 1238.661,1137.758L1236.421,1137.939L1234.449,1137.575L1233.098,1136.834C1232.216,1137.414 1231.208,1137.826 1230.119,1138.021C1228.08,1138.387 1226.05,1137.943 1224.397,1136.887C1225.284,1139.746 1226.229,1142.801 1227.241,1146.08C1228.372,1149.742 1226.747,1153.691 1223.367,1155.497C1219.986,1157.302 1215.801,1156.457 1213.386,1153.482C1207.459,1146.179 1202.238,1139.737 1197.634,1134.065C1195.193,1135.115 1192.299,1134.915 1189.973,1133.335C1171.668,1120.904 1158.511,1113.074 1148.588,1107.98C1146.904,1109.357 1144.678,1110.034 1142.391,1109.708C1086.285,1101.693 1064.203,1102.599 1024.924,1115.692C1020.736,1117.089 1016.201,1114.821 1014.805,1110.633C1013.409,1106.444 1015.676,1101.91 1019.865,1100.513C1051.353,1090.017 1072.432,1086.729 1106.491,1089.406Z" style="fill:rgb(173,0,132);"/>
        <path d="M1117.136,1184.281C1152.874,1168.893 1167.578,1159.748 1230.784,1155.233C1235.188,1154.919 1239.019,1158.239 1239.334,1162.643C1239.511,1165.125 1238.534,1167.426 1236.858,1169.017C1237.078,1169.059 1237.297,1169.102 1237.516,1169.146C1241.845,1170.012 1244.657,1174.23 1243.791,1178.56C1242.925,1182.889 1238.707,1185.701 1234.378,1184.835C1200.477,1178.055 1157.177,1187.864 1123.556,1198.733C1110.259,1204.55 1094.058,1211.288 1070.849,1219.024C1066.8,1220.374 1062.404,1218.307 1060.861,1214.327C1059.318,1210.348 1061.17,1205.858 1065.07,1204.124C1070.509,1201.707 1090.751,1192.796 1117.136,1184.281Z" style="fill:rgb(173,0,132);"/>
        <path d="M1250.739,1167.539C1254.688,1165.564 1259.498,1167.167 1261.472,1171.117C1263.447,1175.066 1261.844,1179.875 1257.895,1181.85C1241.017,1190.289 1230.043,1194.108 1221.782,1197.197C1211.163,1201.17 1205.782,1203.753 1196.421,1216.235C1193.772,1219.767 1188.754,1220.484 1185.221,1217.835C1181.689,1215.185 1180.972,1210.167 1183.621,1206.635C1193.755,1193.123 1200.394,1188.657 1210.278,1184.52C1218.86,1180.928 1230.347,1177.735 1250.739,1167.539Z" style="fill:rgb(173,0,132);"/>
        <path d="M901.165,1054.593C898.023,1057.167 893.375,1056.989 890.443,1054.057C887.321,1050.935 887.321,1045.865 890.443,1042.743C892.056,1041.131 894.596,1039.636 898.221,1038.804C902.935,1037.722 910.507,1037.608 920.036,1038.441C954.028,1041.412 1015.934,1055.744 1054.15,1063.407C1068.974,1066.38 1079.804,1068.61 1083.078,1068.064C1087.434,1067.338 1091.559,1070.285 1092.285,1074.64C1093.011,1078.995 1090.064,1083.12 1085.709,1083.846C1082.225,1084.427 1071.609,1083.113 1056.945,1080.268C1026.139,1074.291 975.271,1062.486 938.584,1056.881C925.649,1054.905 914.555,1053.689 906.923,1053.889C904.595,1053.95 901.798,1054.47 901.165,1054.593Z" style="fill:rgb(173,0,132);"/>
        <path d="M1223.939,990.351L1224.354,989.379L1225.697,987.633C1228.82,984.511 1233.889,984.511 1237.011,987.633C1238.681,989.303 1239.458,991.531 1239.341,993.72C1239.432,994.222 1239.506,994.729 1239.51,995.064L1239.167,997.594L1238.354,999.497L1237.011,1001.243C1236.577,1001.677 1237.204,1001.605 1230.339,1005.038C1226.39,1007.012 1221.581,1005.409 1219.606,1001.46C1217.632,997.511 1219.235,992.701 1223.184,990.727C1223.447,990.595 1223.699,990.47 1223.939,990.351Z" style="fill:rgb(173,0,132);"/>
        <path d="M1163.651,963.438C1163.651,959.023 1167.236,955.438 1171.651,955.438C1176.067,955.438 1179.651,959.023 1179.651,963.438L1179.651,965.735C1179.651,970.15 1176.067,973.735 1171.651,973.735C1167.236,973.735 1163.651,970.15 1163.651,965.735L1163.651,963.438Z" style="fill:rgb(173,0,132);"/>
        <path d="M1179.344,961.241C1180.557,965.486 1178.095,969.918 1173.849,971.131C1169.604,972.344 1165.172,969.882 1163.959,965.636L1159.367,949.562C1158.154,945.317 1160.616,940.885 1164.861,939.672C1169.107,938.459 1173.538,940.921 1174.751,945.167L1179.344,961.241Z" style="fill:rgb(173,0,132);"/>
        <path d="M1147.504,809.589C1147.504,814.004 1143.919,817.589 1139.504,817.589C1135.088,817.589 1131.504,814.004 1131.504,809.589L1131.504,798.108C1131.504,793.692 1135.088,790.108 1139.504,790.108C1143.919,790.108 1147.504,793.692 1147.504,798.108L1147.504,809.589Z" style="fill:rgb(173,0,132);"/>
        <path d="M1149.561,777.085C1148.49,781.369 1144.143,783.977 1139.86,782.906C1135.576,781.835 1132.968,777.488 1134.039,773.205C1134.83,770.041 1133.041,770.7 1138.473,732.681C1139.097,728.31 1143.153,725.268 1147.524,725.893C1151.895,726.517 1154.937,730.573 1154.312,734.944C1148.662,774.495 1150.384,773.794 1149.561,777.085Z" style="fill:rgb(173,0,132);"/>
        <path d="M1592.594,571.734C1588.265,570.868 1585.453,566.65 1586.319,562.32C1587.185,557.991 1591.403,555.178 1595.732,556.044C1604.977,557.893 1609.931,560.801 1612.753,564.058C1616.072,567.891 1617.195,572.649 1616.836,579.136C1616.555,584.238 1615.316,590.991 1615.923,600.097C1616.217,604.503 1612.879,608.318 1608.473,608.611C1604.067,608.905 1600.252,605.567 1599.959,601.161C1599.447,593.492 1600.051,587.307 1600.529,582.277C1600.715,580.326 1600.883,578.585 1600.906,577.024C1600.921,576.055 1601.058,575.218 1600.669,574.547C1600.349,573.994 1599.628,573.803 1598.724,573.432C1597.132,572.777 1595.116,572.238 1592.594,571.734Z" style="fill:rgb(173,0,132);"/>
        <path d="M1518.12,716.457C1520.095,712.508 1524.904,710.905 1528.853,712.879C1532.802,714.854 1534.405,719.663 1532.431,723.612C1522.361,743.753 1523.407,743.213 1517.745,750.291C1514.987,753.739 1509.948,754.299 1506.5,751.541C1503.053,748.782 1502.493,743.744 1505.251,740.296C1510.288,734 1509.162,734.373 1518.12,716.457Z" style="fill:rgb(173,0,132);"/>
        <path d="M758.324,601.74C753.909,601.74 750.324,598.156 750.324,593.74C750.324,589.325 753.909,585.74 758.324,585.74L765.213,585.74C769.628,585.74 773.213,589.325 773.213,593.74C773.213,598.156 769.628,601.74 765.213,601.74L758.324,601.74Z" style="fill:rgb(173,0,132);"/>
        <path d="M872.871,691.465C870.896,687.516 872.499,682.706 876.449,680.732C880.398,678.757 885.207,680.36 887.182,684.309C888.004,685.954 889.909,687.594 892.036,689.618C896.818,694.17 902.813,699.608 907.349,706.412C909.798,710.086 908.804,715.057 905.13,717.506C901.456,719.955 896.485,718.961 894.036,715.287C890.207,709.544 885.041,705.05 881.005,701.208C877.252,697.636 874.322,694.366 872.871,691.465Z" style="fill:rgb(173,0,132);"/>
        <path d="M527.634,829.023C524.512,825.901 524.512,820.832 527.634,817.71C530.756,814.588 535.826,814.588 538.948,817.71C547.871,826.633 551.864,833.72 555.374,839.436C559.261,845.766 562.553,849.534 576.192,852.262C580.522,853.128 583.334,857.346 582.468,861.676C581.602,866.005 577.384,868.817 573.055,867.951C555.566,864.454 549.529,859.158 544.463,851.996C540.5,846.391 537.549,838.939 527.634,829.023Z" style="fill:rgb(173,0,132);"/>
        <path d="M639.9,881.775C635.545,881.049 632.598,876.924 633.324,872.569C634.05,868.214 638.175,865.267 642.53,865.993C701.639,875.845 701.416,874.891 719.189,879.97C723.435,881.183 725.897,885.614 724.684,889.86C723.471,894.105 719.039,896.567 714.794,895.354C697.432,890.394 697.638,891.398 639.9,881.775Z" style="fill:rgb(173,0,132);"/>
        <path d="M796.978,898.264C797.898,898.328 801.93,898.683 812.454,900.437C816.809,901.163 819.755,905.288 819.03,909.643C818.304,913.999 814.178,916.945 809.823,916.219C793.703,913.533 793.862,914.064 792.535,913.621C788.346,912.225 786.079,907.691 787.475,903.502C788.803,899.518 792.97,897.273 796.978,898.264Z" style="fill:rgb(173,0,132);"/>
        <path d="M688.121,787.629C683.766,786.903 680.82,782.778 681.545,778.422C682.271,774.067 686.397,771.121 690.752,771.846C706.501,774.471 705.323,773.059 719.133,782.266C722.807,784.715 723.801,789.686 721.352,793.36C718.903,797.034 713.932,798.028 710.258,795.579C699.514,788.416 700.374,789.671 688.121,787.629Z" style="fill:rgb(173,0,132);"/>
        <path d="M1844.1,755.903C1848.383,756.973 1850.991,761.32 1849.921,765.604C1848.85,769.887 1844.503,772.496 1840.219,771.425C1833.922,769.85 1830.995,768.708 1828.212,768.888C1825.622,769.056 1823.333,770.54 1818.182,773.115C1814.233,775.09 1809.423,773.487 1807.449,769.538C1805.474,765.588 1807.077,760.779 1811.027,758.805C1819.161,754.737 1823.087,753.187 1827.178,752.922C1831.075,752.669 1835.283,753.698 1844.1,755.903Z" style="fill:rgb(173,0,132);"/>
        <path d="M1679.852,822.411C1684.182,821.545 1688.4,824.357 1689.266,828.686C1690.132,833.016 1687.32,837.234 1682.99,838.1C1668.608,840.976 1656.28,850.969 1654.271,852.576C1650.823,855.334 1645.785,854.774 1643.027,851.327C1640.268,847.879 1640.828,842.84 1644.276,840.082C1646.758,838.097 1662.088,825.963 1679.852,822.411Z" style="fill:rgb(173,0,132);"/>
        <path d="M1825.42,919.266C1829.241,917.739 1833.664,919.375 1835.537,923.121C1837.512,927.07 1835.909,931.879 1831.96,933.854C1830.415,934.626 1829.362,934.98 1826.819,935.226C1824.19,935.481 1818.038,935.767 1797.55,939.182C1793.194,939.908 1789.069,936.961 1788.343,932.606C1787.617,928.251 1790.564,924.125 1794.919,923.4C1816.14,919.863 1823.957,919.339 1825.42,919.266Z" style="fill:rgb(173,0,132);"/>
        <path d="M1700.773,911.918C1705.128,911.192 1709.253,914.139 1709.979,918.494C1710.705,922.85 1707.758,926.975 1703.403,927.701C1672.753,932.809 1673.934,934.11 1630.712,945.898C1626.452,947.059 1622.051,944.544 1620.889,940.284C1619.727,936.025 1622.243,931.623 1626.502,930.461C1670.656,918.42 1669.461,917.137 1700.773,911.918Z" style="fill:rgb(173,0,132);"/>
        <path d="M1354.652,1300.755C1356.048,1296.566 1360.582,1294.299 1364.771,1295.696C1368.96,1297.092 1371.227,1301.626 1369.83,1305.815C1365.078,1320.071 1365.639,1330.134 1368.725,1337.185C1372.937,1346.81 1381.59,1350.17 1383.582,1350.967C1387.682,1352.607 1389.679,1357.267 1388.039,1361.366C1386.399,1365.466 1381.739,1367.463 1377.64,1365.823C1374.455,1364.549 1360.801,1358.987 1354.067,1343.6C1349.854,1333.975 1348.165,1320.215 1354.652,1300.755Z" style="fill:rgb(173,0,132);"/>
        <path d="M1732.666,1099.874C1728.337,1099.008 1725.525,1094.79 1726.391,1090.46C1727.257,1086.13 1731.475,1083.318 1735.804,1084.184C1778.37,1092.698 1779.865,1089.606 1811.076,1120.816C1814.198,1123.938 1814.198,1129.007 1811.076,1132.13C1807.954,1135.252 1802.885,1135.252 1799.763,1132.13C1772.006,1104.374 1770.521,1107.445 1732.666,1099.874Z" style="fill:rgb(173,0,132);"/>
        <path d="M1802.012,1216.027C1802.012,1211.612 1805.597,1208.027 1810.012,1208.027C1814.427,1208.027 1818.012,1211.612 1818.012,1216.027L1818.012,1222.916C1818.012,1227.331 1814.427,1230.916 1810.012,1230.916C1805.597,1230.916 1802.012,1227.331 1802.012,1222.916L1802.012,1216.027Z" style="fill:rgb(173,0,132);"/>
        <path d="M1783.642,1280.322C1783.642,1275.907 1787.227,1272.322 1791.642,1272.322C1796.057,1272.322 1799.642,1275.907 1799.642,1280.322L1799.642,1282.619C1799.642,1287.034 1796.057,1290.619 1791.642,1290.619C1787.227,1290.619 1783.642,1287.034 1783.642,1282.619L1783.642,1280.322Z" style="fill:rgb(173,0,132);"/>
        <path d="M1715.865,1309.063C1720.281,1309.063 1723.865,1312.647 1723.865,1317.063C1723.865,1321.478 1720.281,1325.063 1715.865,1325.063L1711.273,1325.063C1706.857,1325.063 1703.273,1321.478 1703.273,1317.063C1703.273,1312.647 1706.857,1309.063 1711.273,1309.063L1715.865,1309.063Z" style="fill:rgb(173,0,132);"/>
        <path d="M1594.163,1120.769C1598.579,1120.769 1602.163,1124.354 1602.163,1128.769C1602.163,1133.185 1598.579,1136.769 1594.163,1136.769L1591.867,1136.769C1587.452,1136.769 1583.867,1133.185 1583.867,1128.769C1583.867,1124.354 1587.452,1120.769 1591.867,1120.769L1594.163,1120.769Z" style="fill:rgb(173,0,132);"/>
        <path d="M1498.785,1148.204C1495.663,1151.326 1490.593,1151.326 1487.471,1148.204C1484.349,1145.082 1484.349,1140.012 1487.471,1136.89L1489.767,1134.594C1492.889,1131.471 1497.959,1131.471 1501.081,1134.594C1504.203,1137.716 1504.203,1142.785 1501.081,1145.907L1498.785,1148.204Z" style="fill:rgb(173,0,132);"/>
        <path d="M1550.534,1114.216C1554.191,1113.117 1558.221,1114.772 1559.986,1118.303C1561.961,1122.252 1560.357,1127.061 1556.408,1129.036C1552.789,1130.846 1551.186,1130.927 1549.952,1130.861C1548.797,1130.8 1547.553,1130.482 1544.66,1129.036C1540.711,1127.061 1539.108,1122.252 1541.083,1118.303C1542.848,1114.772 1546.878,1113.117 1550.534,1114.216Z" style="fill:rgb(173,0,132);"/>
        <path d="M1106.292,576.435C1103.17,573.313 1103.17,568.243 1106.292,565.121C1109.414,561.999 1114.483,561.999 1117.606,565.121L1119.902,567.417C1123.024,570.539 1123.024,575.609 1119.902,578.731C1116.78,581.853 1111.71,581.853 1108.588,578.731L1106.292,576.435Z" style="fill:rgb(173,0,132);"/>
        <path d="M1013.377,1411.667C1014.858,1412.011 1016.952,1412.823 1018.866,1414.737C1021.988,1417.86 1021.988,1422.929 1018.866,1426.051C1016.218,1428.699 1012.17,1429.101 1009.096,1427.258C1007.603,1426.96 1005.317,1426.111 1002.96,1423.755C999.838,1420.633 999.838,1415.563 1002.96,1412.441C1005.798,1409.603 1010.246,1409.345 1013.377,1411.667ZM1012.859,1411.56C1012.049,1411.294 1011.406,1411.417 1011.406,1411.417C1011.406,1411.417 1011.972,1411.4 1012.859,1411.56Z" style="fill:rgb(173,0,132);"/>
        <path d="M928.048,1328.747C930.22,1330.178 931.655,1332.639 931.655,1335.433C931.655,1339.848 928.07,1343.433 923.655,1343.433C921.965,1343.433 920.932,1343.217 920.226,1343.003L917.285,1341.451C916.496,1340.814 915.748,1339.804 914.203,1336.714C912.229,1332.765 913.832,1327.955 917.781,1325.981C921.448,1324.148 925.856,1325.398 928.048,1328.747Z" style="fill:rgb(173,0,132);"/>
        <path d="M575.626,1203.565C574.9,1207.92 570.775,1210.867 566.42,1210.141C562.064,1209.415 559.118,1205.29 559.844,1200.934C571.925,1128.446 622.996,1090.575 656.933,1070.236C670.062,1062.368 680.43,1057.575 683.78,1054.225C686.902,1051.102 691.971,1051.102 695.093,1054.225C698.216,1057.347 698.216,1062.416 695.093,1065.538C691.326,1069.305 679.921,1075.112 665.158,1083.96C634.017,1102.624 586.712,1137.047 575.626,1203.565Z" style="fill:rgb(173,0,132);"/>
        <path d="M692,1240.271C690.025,1244.22 685.216,1245.823 681.266,1243.849C677.317,1241.874 675.714,1237.065 677.689,1233.116C683.593,1221.307 682.439,1222.434 689.669,1211.59C692.118,1207.916 697.089,1206.921 700.763,1209.371C704.437,1211.82 705.431,1216.791 702.982,1220.465C696.335,1230.434 697.427,1229.416 692,1240.271Z" style="fill:rgb(173,0,132);"/>
        <path d="M811.598,1258.045C812.147,1257.924 813.415,1257.61 814.449,1257.093C818.399,1255.119 823.208,1256.722 825.183,1260.671C827.157,1264.62 825.554,1269.429 821.605,1271.404C815.399,1274.507 810.936,1274.39 807.965,1273.746C803.795,1272.842 801.628,1270.644 800.889,1269.905C797.767,1266.783 797.767,1261.714 800.889,1258.592C803.817,1255.664 808.457,1255.482 811.598,1258.045Z" style="fill:rgb(173,0,132);"/>
        <path d="M810.983,1153.796C807.31,1156.245 802.339,1155.251 799.889,1151.577C797.44,1147.903 798.435,1142.932 802.108,1140.483C809.38,1135.635 813.811,1130.138 818.065,1126.436C824.759,1120.61 831.176,1117.831 841.223,1121.18C845.412,1122.576 847.679,1127.11 846.283,1131.299C844.887,1135.488 840.352,1137.755 836.164,1136.359C831.581,1134.831 829.349,1137.654 826.157,1140.745C822.139,1144.637 817.556,1149.414 810.983,1153.796Z" style="fill:rgb(173,0,132);"/>
        <path d="M1004.024,1279.211C1008.44,1279.211 1012.024,1282.796 1012.024,1287.211C1012.024,1291.627 1008.44,1295.211 1004.024,1295.211L1001.728,1295.211C997.313,1295.211 993.728,1291.627 993.728,1287.211C993.728,1282.796 997.313,1279.211 1001.728,1279.211L1004.024,1279.211Z" style="fill:rgb(173,0,132);"/>
        <path d="M1439.25,1242.35C1436.127,1239.228 1436.127,1234.159 1439.25,1231.037C1442.372,1227.914 1447.441,1227.914 1450.563,1231.037C1454.953,1235.427 1483.557,1264.333 1473.334,1305.225C1472.263,1309.509 1467.916,1312.117 1463.632,1311.046C1459.349,1309.975 1456.741,1305.628 1457.812,1301.345C1465.959,1268.756 1442.748,1245.849 1439.25,1242.35Z" style="fill:rgb(173,0,132);"/>
        <path d="M1237.783,557.867C1236.116,554.002 1237.742,549.455 1241.554,547.549C1245.503,545.574 1250.312,547.177 1252.287,551.126C1254.147,554.846 1254.516,557.238 1253.003,563.14C1251.136,570.419 1245.275,587.747 1239.314,647.35C1238.875,651.744 1234.952,654.954 1230.558,654.515C1226.165,654.075 1222.955,650.152 1223.394,645.758C1228.658,593.116 1233.894,572.485 1236.484,562.941C1237.074,560.765 1237.585,558.685 1237.783,557.867Z" style="fill:rgb(173,0,132);"/>
        <path d="M1424.24,640.851C1428.655,640.851 1432.24,644.435 1432.24,648.851C1432.24,653.266 1428.655,656.851 1424.24,656.851L1421.944,656.851C1417.528,656.851 1413.944,653.266 1413.944,648.851C1413.944,644.435 1417.528,640.851 1421.944,640.851L1424.24,640.851Z" style="fill:rgb(173,0,132);"/>
        <path d="M1278.13,1413.777C1278.233,1414.169 1278.305,1414.562 1278.347,1414.954C1280.156,1424.694 1282.136,1432.885 1284.435,1437.483C1286.409,1441.432 1284.806,1446.242 1280.857,1448.216C1276.908,1450.191 1272.098,1448.587 1270.124,1444.638C1267.431,1439.253 1264.927,1429.558 1262.708,1418.052C1244.032,1361.931 1252.71,1361.075 1250.939,1340.718C1250.578,1336.561 1253.473,1332.824 1257.589,1332.135C1261.704,1331.446 1265.658,1334.036 1266.67,1338.085C1269.011,1347.449 1272.035,1375.885 1275.989,1401.021C1276.682,1405.426 1277.392,1409.726 1278.13,1413.777Z" style="fill:rgb(173,0,132);"/>
        <path d="M1174.214,1331.855C1198.588,1380.602 1201.417,1377.147 1229.029,1423.167C1231.301,1426.953 1230.071,1431.871 1226.285,1434.143C1222.499,1436.415 1217.581,1435.185 1215.309,1431.399C1212.403,1426.555 1209.769,1422.253 1207.353,1418.377C1203.801,1420.143 1199.4,1419.034 1197.143,1415.647C1190.947,1406.353 1165.481,1350.166 1159.903,1339.01L1174.214,1331.855Z" style="fill:rgb(173,0,132);"/>
        <path d="M1343.4,1435.013C1341.751,1431.153 1343.379,1426.622 1347.182,1424.72C1351.131,1422.746 1355.941,1424.349 1357.915,1428.298C1360.682,1433.832 1360.615,1437.037 1359.976,1439.355C1359.636,1440.588 1359.093,1441.747 1358.265,1442.881C1359.664,1446.658 1358.022,1450.967 1354.337,1452.809C1354.052,1452.951 1348.037,1455.747 1345.091,1456.103L1342.631,1456.123L1339.987,1455.407L1338.192,1454.327L1336.48,1452.518L1335.464,1450.558L1335.01,1448.603L1335.017,1446.632L1335.518,1444.526C1335.968,1443.281 1337.243,1440.967 1340.51,1437.7C1341.466,1436.744 1342.511,1435.793 1343.4,1435.013Z" style="fill:rgb(173,0,132);"/>
        <path d="M1276.027,1290.734C1276.214,1291.43 1276.846,1293.824 1278.152,1299.049C1279.222,1303.332 1276.614,1307.679 1272.331,1308.75C1268.047,1309.821 1263.7,1307.212 1262.629,1302.929C1260.052,1292.62 1260.219,1293.446 1260.134,1292.6C1257.886,1270.115 1260.107,1271.665 1257.838,1248.971C1257.398,1244.577 1260.609,1240.654 1265.002,1240.214C1269.395,1239.775 1273.319,1242.985 1273.758,1247.379C1276.019,1269.98 1273.824,1268.535 1276.027,1290.734Z" style="fill:rgb(173,0,132);"/>
        <path d="M1179.337,1275.883C1175.547,1273.843 1174.039,1269.139 1175.977,1265.263C1177.952,1261.314 1182.761,1259.711 1186.71,1261.686C1190.549,1263.605 1194.935,1269.168 1198.31,1276.832C1204.207,1290.221 1208.685,1310.21 1209.312,1313.031C1210.27,1317.341 1207.548,1321.618 1203.238,1322.576C1198.928,1323.534 1194.651,1320.812 1193.693,1316.502C1193.118,1313.915 1189.076,1295.561 1183.668,1283.281C1182.672,1281.02 1181.645,1278.987 1180.562,1277.389C1180.183,1276.829 1179.481,1276.043 1179.337,1275.883Z" style="fill:rgb(173,0,132);"/>
        <path d="M1289.241,1502.812C1297.848,1489.034 1301.17,1483.494 1302.912,1481.252C1303.498,1480.497 1304.045,1479.901 1304.556,1479.423C1309.114,1471.319 1315.074,1460.1 1322.938,1444.372C1324.913,1440.423 1329.722,1438.819 1333.671,1440.794C1337.62,1442.769 1339.223,1447.578 1337.249,1451.527C1329.863,1466.298 1324.158,1477.092 1319.715,1485.063C1319.593,1487.697 1318.196,1490.001 1316.126,1491.368C1308.773,1503.988 1305.829,1507.004 1304.116,1509.202C1303.573,1510.071 1303.012,1510.967 1302.434,1511.892C1300.17,1515.514 1295.461,1516.719 1291.736,1514.63C1288.011,1512.541 1286.584,1507.894 1288.494,1504.075C1288.727,1503.609 1288.969,1503.206 1289.241,1502.812Z" style="fill:rgb(173,0,132);"/>
        <path d="M1213.267,1455.885C1219.113,1455.65 1226.141,1455.561 1232.019,1456.051C1232.228,1456.068 1236.546,1457.176 1238.56,1458.487L1240.722,1460.395L1242.007,1462.513L1242.649,1466.01L1242.304,1468.085L1241.488,1469.932C1240.913,1470.894 1238.704,1474.32 1231.354,1474.32C1229.019,1474.32 1226.916,1473.317 1225.453,1471.719C1214.616,1471.445 1204.209,1472.854 1200.268,1472.589C1198.104,1472.443 1196.578,1471.882 1195.656,1471.391L1193.486,1469.759L1192.027,1467.703L1191.305,1465.615L1191.153,1463.486L1191.55,1461.36L1192.558,1459.254C1193.326,1458.075 1196.124,1455.472 1202.518,1452.275C1206.467,1450.301 1211.276,1451.904 1213.251,1455.853C1213.256,1455.864 1213.261,1455.874 1213.267,1455.885Z" style="fill:rgb(173,0,132);"/>
        <path d="M1221.262,1485.767C1223.635,1483.523 1227.25,1482.878 1230.34,1484.423C1231.979,1485.243 1232.932,1485.973 1233.365,1486.38L1234.662,1487.935L1235.597,1489.936L1235.936,1491.696L1235.852,1493.67L1234.493,1496.989L1232.295,1499.127L1229.868,1500.247C1226.885,1501.149 1206.724,1503.07 1155.423,1537.271C1151.749,1539.72 1146.778,1538.726 1144.329,1535.052C1141.879,1531.379 1142.874,1526.408 1146.547,1523.958C1188.239,1496.164 1212.353,1488.037 1221.262,1485.767Z" style="fill:rgb(173,0,132);"/>
        <path d="M1371.772,1464.617C1372.708,1464.838 1378.27,1466.136 1382.958,1466.917C1394.943,1468.912 1411.859,1471.851 1427.818,1479.831C1431.767,1481.805 1433.37,1486.615 1431.395,1490.564C1429.421,1494.513 1424.611,1496.116 1420.662,1494.141C1403.802,1485.711 1385.703,1483.714 1374.96,1481.785C1367.85,1480.507 1363.094,1478.486 1361.177,1476.569C1358.055,1473.447 1358.055,1468.377 1361.177,1465.255C1364.069,1462.362 1368.634,1462.15 1371.772,1464.617Z" style="fill:rgb(173,0,132);"/>
        <path d="M1022.122,740.433C1023.193,744.716 1020.585,749.064 1016.302,750.134C1012.018,751.205 1007.671,748.597 1006.6,744.313C993.254,690.926 980.266,652.851 974.999,622.042C971.25,600.12 971.34,581.648 977.285,564.065C986.916,535.578 1012.348,509.067 1065.034,473.943C1086.063,459.923 1121.29,451.969 1161.788,450.717C1221.106,448.884 1291.816,461.126 1344.008,487.222C1374.826,502.63 1414.64,505.048 1456.349,502.604C1521.288,498.799 1590.741,483.048 1640.077,481.95C1670.511,481.273 1693.747,486.695 1705.707,501.147C1717.679,515.614 1719.685,540.248 1703.779,580.013C1685.947,624.594 1651.909,659.627 1619.108,698.653C1587.679,736.049 1557.45,777.308 1545.754,835.792C1540.816,860.48 1534.761,870.957 1528.394,880.199C1522.8,888.32 1516.799,895.296 1511.055,912.53C1509.658,916.719 1505.124,918.986 1500.935,917.59C1496.747,916.194 1494.479,911.659 1495.876,907.471C1501.097,891.804 1506.466,883.575 1511.659,876.186C1518.459,866.51 1524.9,858.476 1530.064,832.655C1542.357,771.187 1573.827,727.662 1606.86,688.359C1638.522,650.686 1671.71,617.105 1688.923,574.071C1695.628,557.308 1699.008,543.773 1699.342,532.877C1699.627,523.609 1697.674,516.535 1693.381,511.348C1688.998,506.052 1682.377,502.814 1674.18,500.755C1664.72,498.379 1653.303,497.66 1640.433,497.946C1591.251,499.041 1522.021,514.784 1457.285,518.577C1412.544,521.198 1369.911,518.061 1336.853,501.532C1286.86,476.536 1219.1,464.954 1162.282,466.709C1125.355,467.851 1093.084,474.472 1073.909,487.256C1025.514,519.519 1001.289,543.023 992.442,569.189C985.942,588.414 987.966,608.857 993.913,634.882C1000.243,662.584 1011.07,696.222 1022.122,740.433Z" style="fill:rgb(185,0,166);"/>
        <path d="M1302.688,1220.977C1303.414,1216.621 1307.539,1213.675 1311.894,1214.401C1316.25,1215.127 1319.196,1219.252 1318.47,1223.607C1317.125,1231.68 1307.923,1272.739 1313.971,1316.039C1317.861,1343.887 1328.068,1372.784 1351.522,1393.76C1377.027,1416.571 1417.876,1429.704 1482.003,1423.291C1513.522,1420.139 1528.735,1405.357 1544.768,1389.679C1571.725,1363.319 1600.353,1333.873 1694.625,1340.607C1726.078,1342.853 1777.002,1341.323 1817.228,1330.669C1842.014,1324.104 1862.861,1314.562 1870.6,1299.083C1887.092,1266.099 1900.639,1247.058 1900.541,1221.094C1900.476,1203.922 1894.364,1183.844 1879.785,1154.685C1871.796,1138.707 1837.154,1104.271 1803.65,1077.282C1781.742,1059.634 1760.402,1045.054 1747.225,1041.76C1732.806,1038.155 1686.517,1035.766 1642.076,1039.173C1612.893,1041.41 1584.477,1046.065 1566.746,1054.931C1562.796,1056.906 1557.987,1055.303 1556.012,1051.354C1554.038,1047.405 1555.641,1042.595 1559.59,1040.621C1578.737,1031.047 1609.34,1025.635 1640.853,1023.22C1687.455,1019.647 1735.985,1022.457 1751.105,1026.237C1765.635,1029.87 1789.53,1045.362 1813.688,1064.822C1849.283,1093.496 1885.608,1130.553 1894.096,1147.53C1910.2,1179.739 1916.469,1202.065 1916.54,1221.034C1916.647,1249.281 1902.853,1270.353 1884.911,1306.239C1875.544,1324.974 1851.325,1338.19 1821.325,1346.135C1779.379,1357.245 1726.283,1358.909 1693.485,1356.566C1607.057,1350.393 1580.668,1376.952 1555.955,1401.119C1537.54,1419.125 1519.795,1435.592 1483.595,1439.212C1413.312,1446.24 1368.809,1430.687 1340.855,1405.686C1314.413,1382.037 1302.511,1349.649 1298.125,1318.253C1291.76,1272.687 1301.272,1229.472 1302.688,1220.977Z" style="fill:rgb(185,0,166);"/>
        <path d="M1972.977,722.614C1947.687,697.363 1923.142,682.304 1897.063,676.959C1871.013,671.619 1843.563,676.019 1812.589,688.927C1747.719,715.96 1668.309,779.6 1556.808,872.517C1505.585,915.203 1469.391,972.809 1463.981,980.027C1463.247,981.006 1462.66,981.599 1462.344,981.882L1460.45,983.166L1458.781,983.768L1456.956,983.992L1453.814,983.375L1452.215,982.484L1450.909,981.308L1449.525,979.135L1448.87,975.963L1449.514,972.681C1450.229,970.815 1454.162,963.162 1461.866,947.755C1463.458,944.571 1466.894,942.912 1470.235,943.424C1487.657,920.114 1515.399,886.197 1546.565,860.226C1659.754,765.902 1740.582,701.6 1806.434,674.158C1840.822,659.828 1871.354,655.357 1900.275,661.285C1929.113,667.195 1956.479,683.489 1984.448,711.457C1986.337,713.346 1987.967,716.169 1988.975,719.957C1990.479,725.611 1990.722,734.23 1989.942,744.257C1987.589,774.486 1976.538,818.814 1975.071,824.683C1969.921,845.282 1971.752,864.703 1972.671,882.787C1973.888,906.707 1973.388,928.466 1958.432,948.018C1944.028,966.848 1915.497,984.014 1859.029,998.131C1672.265,1044.822 1667.927,1025.51 1490.362,1096.537C1444.878,1114.73 1421.718,1122.973 1408.028,1128.57C1395.76,1133.586 1391.94,1136.17 1385.124,1142.987C1382.002,1146.109 1376.933,1146.109 1373.81,1142.987C1370.688,1139.865 1370.688,1134.796 1373.81,1131.674C1382.216,1123.267 1386.843,1119.946 1401.974,1113.76C1415.682,1108.156 1438.873,1099.9 1484.42,1081.681C1662.992,1010.251 1667.325,1029.564 1855.149,982.608C1906.297,969.821 1932.677,955.353 1945.724,938.296C1958.22,921.961 1957.708,903.586 1956.692,883.6C1955.698,864.051 1953.982,843.07 1959.549,820.802C1960.968,815.126 1971.714,772.257 1973.99,743.016C1974.443,737.192 1974.565,731.95 1974.135,727.755C1973.925,725.695 1973.082,722.951 1972.977,722.614Z" style="fill:rgb(185,0,166);"/>
        <path d="M1091.37,927.139C1088.248,924.017 1088.248,918.947 1091.37,915.825C1094.492,912.703 1099.561,912.703 1102.683,915.825C1111.399,924.54 1113.53,931.753 1115.506,940.019C1117.788,949.561 1120.077,960.774 1139.424,980.12C1156.208,996.904 1170.905,1026.091 1173.07,1030.421C1175.045,1034.37 1173.441,1039.179 1169.492,1041.154C1165.543,1043.128 1160.734,1041.525 1158.759,1037.576C1156.777,1033.612 1143.474,1006.797 1128.11,991.434C1108.885,972.209 1104.034,959.565 1101.32,949.336C1099.194,941.324 1099.201,934.969 1091.37,927.139Z" style="fill:rgb(185,0,166);"/>
    </g>
</svg>
