<?xml version="1.0" encoding="UTF-8" standalone="no"?>
<!DOCTYPE svg PUBLIC "-//W3C//DTD SVG 1.1//EN" "http://www.w3.org/Graphics/SVG/1.1/DTD/svg11.dtd">
<svg width="100%" height="100%" viewBox="0 0 1211 1053" version="1.1" xmlns="http://www.w3.org/2000/svg" xmlns:xlink="http://www.w3.org/1999/xlink" xml:space="preserve" xmlns:serif="http://www.serif.com/" style="fill-rule:evenodd;clip-rule:evenodd;stroke-linejoin:round;stroke-miterlimit:2;">
    <g transform="matrix(1,0,0,1,-567.731816,-321.526991)">
        <path d="M1071.152,509.832C1073.927,505.146 1080.379,497.949 1090.472,489.407C1096.629,484.196 1104.196,478.28 1113.002,471.86C1124.034,463.15 1134.04,456.124 1139.516,453.541C1163.054,438.051 1191.659,421.042 1223.586,404.543C1300.658,364.715 1397.071,327.903 1488.139,322.274C1549.928,318.454 1609.273,328.962 1658.829,361.999C1756.283,426.969 1794.318,571.919 1772.895,683.486C1762,740.227 1735.742,788.219 1694.967,813.44C1654.023,838.765 1598.103,841.719 1527.389,806.361C1504.599,794.965 1488.803,777.018 1471.593,756.953C1434.047,713.179 1388.504,659.647 1232.072,652.198C1212.377,651.26 1158.816,654.004 1116.139,640.718C1093.174,633.568 1073.352,621.761 1062.277,603.209C1051.211,584.673 1048.475,559.099 1061.326,523.788C1062.488,520.596 1066.008,515.632 1071.152,509.832ZM1148.047,467.066C1147.868,467.195 1147.682,467.318 1147.491,467.433C1137.26,474.183 1128.031,480.628 1119.957,486.591C1109.66,494.94 1098.569,504.731 1089.933,513.284C1088.01,515.189 1086.2,517.007 1084.564,518.714C1083.88,520.041 1082.855,521.115 1081.636,521.861C1078.94,524.873 1077.038,527.401 1076.361,529.26C1065.723,558.49 1066.855,579.663 1076.015,595.007C1085.165,610.335 1101.922,619.534 1120.895,625.441C1162.09,638.266 1213.822,635.311 1232.833,636.216C1396.84,644.026 1444.373,700.642 1483.738,746.536C1499.49,764.901 1513.686,781.62 1534.545,792.05C1598.715,824.136 1649.395,822.814 1686.55,799.832C1723.873,776.747 1747.209,732.405 1757.182,680.469C1777.495,574.683 1742.359,436.915 1649.954,375.312C1603.284,344.199 1547.316,334.646 1489.126,338.243C1400.226,343.739 1306.169,379.877 1230.932,418.757C1199.412,435.046 1171.193,451.823 1148.047,467.066Z" style="fill:rgb(180,116,214);"/>
        <path d="M1613.497,828.03C1616.619,824.908 1621.689,824.908 1624.811,828.03C1627.933,831.152 1627.933,836.222 1624.811,839.344C1619.875,844.279 1614.508,853.303 1607.222,864.259C1588.71,892.094 1559.262,931.658 1500.882,955.01C1386.004,1000.961 1366.309,990.117 1234.079,1152.861C1150.84,1255.31 1104.695,1286.581 1075.919,1296.631C1056.613,1303.374 1044.928,1300.579 1034.716,1302.621C1030.387,1303.487 1026.169,1300.675 1025.303,1296.346C1024.437,1292.016 1027.249,1287.798 1031.579,1286.932C1041.251,1284.998 1052.357,1287.913 1070.643,1281.526C1098.254,1271.883 1141.793,1241.071 1221.662,1142.771C1357.092,976.088 1377.281,987.218 1494.94,940.154C1549.35,918.39 1576.646,881.341 1593.899,855.398C1601.942,843.306 1608.05,833.477 1613.497,828.03Z" style="fill:rgb(180,116,214);"/>
        <path d="M1060.799,580.372C1064.748,578.398 1069.557,580.001 1071.532,583.95C1073.507,587.899 1071.903,592.708 1067.954,594.683C1034.729,611.296 1009.93,640.981 988.593,676.006C966.555,712.183 948.283,754.052 928.946,793.937C888.66,877.033 843.072,950.873 754.18,953.741C733.925,954.394 653.67,943.238 580.729,1001.591C577.282,1004.349 572.243,1003.789 569.485,1000.342C566.727,996.894 567.286,991.855 570.734,989.097C647.757,927.478 732.276,938.439 753.664,937.749C794.228,936.44 824.645,918.598 849.566,891.707C875.437,863.792 895.464,826.321 914.548,786.957C934.109,746.61 952.635,704.278 974.929,667.682C997.924,629.935 1024.991,598.276 1060.799,580.372Z" style="fill:rgb(180,116,214);"/>
        <path d="M1566.059,824.167C1565.944,824.242 1565.796,824.339 1565.659,824.431C1559.514,828.537 1525.64,852.247 1511.506,869.914C1479.443,909.992 1477.898,956.413 1472.274,1004.907C1463.34,1081.942 1445.957,1164.368 1299.418,1237.637C1228.326,1273.182 1209.06,1304.853 1190.778,1333.816C1182.401,1347.088 1174.171,1359.79 1161.884,1372.077C1158.762,1375.199 1153.692,1375.199 1150.57,1372.077C1147.448,1368.955 1147.448,1363.885 1150.57,1360.763C1165.931,1345.403 1174.387,1329.244 1185.611,1312.191C1203.435,1285.109 1227.587,1255.663 1292.262,1223.326C1431.109,1153.904 1447.915,1076.055 1456.38,1003.064C1462.356,951.54 1464.947,902.5 1499.012,859.919C1514.123,841.03 1550.2,815.518 1556.77,811.128C1557.981,810.318 1558.746,809.928 1558.9,809.858L1562.197,809.142L1564.345,809.431L1566.5,810.388L1568.122,811.748L1569.404,813.634L1570.071,815.635L1570.212,817.35L1569.505,820.437L1567.863,822.811C1567.315,823.359 1566.706,823.811 1566.059,824.167ZM1557.058,823.277C1556.883,823.13 1556.714,822.975 1556.549,822.811C1555.123,821.384 1554.348,819.55 1554.225,817.681C1554.344,820.105 1555.372,821.927 1557.058,823.277ZM1554.223,816.658C1554.339,814.779 1555.115,812.932 1556.55,811.497C1554.412,813.634 1554.249,815.708 1554.223,816.658Z" style="fill:rgb(180,116,214);"/>
        <path d="M883.67,1165.44C885.196,1167.748 885.482,1170.787 884.157,1173.438C882.182,1177.387 877.373,1178.99 873.424,1177.015C869.698,1175.153 867.773,1172.517 866.897,1169.728C866.058,1167.057 866.128,1163.913 867.775,1160.422C869.347,1157.088 872.971,1152.819 878.594,1148.108C900.097,1130.095 954.489,1100.541 1001.047,1070.716C1030.823,1051.642 1057.404,1032.626 1068.87,1016.438C1102.507,968.951 1120.734,913.836 1142.968,860.732C1177.468,778.331 1221.269,700.701 1341.072,660.767C1345.261,659.37 1349.795,661.638 1351.192,665.826C1352.588,670.015 1350.321,674.549 1346.132,675.946C1231.955,714.005 1190.606,788.38 1157.727,866.911C1135.041,921.094 1116.247,977.235 1081.927,1025.686C1071.143,1040.91 1048.196,1058.792 1021.153,1076.716C982.094,1102.606 934.466,1128.95 905.407,1148.333C897.139,1153.847 890.436,1158.74 886.034,1162.876C885.196,1163.662 884.35,1164.62 883.67,1165.44Z" style="fill:rgb(180,116,214);"/>
        <path d="M1411.426,690.254C1414.548,687.132 1419.618,687.132 1422.74,690.255C1425.862,693.377 1425.862,698.446 1422.739,701.568C1360.75,763.556 1354.148,818.552 1341.754,863.955C1335.066,888.458 1326.716,910.323 1308.831,929.39C1291.149,948.242 1264,964.474 1219.046,977.318C1084.368,1015.798 1062.935,1053.64 1045.856,1089.902C1037.928,1106.735 1030.658,1123.043 1014.923,1138.777C1011.801,1141.899 1006.731,1141.899 1003.609,1138.777C1000.487,1135.654 1000.487,1130.585 1003.61,1127.463C1017.851,1113.222 1024.205,1098.32 1031.381,1083.084C1049.546,1044.518 1071.415,1002.858 1214.651,961.934C1255.848,950.163 1280.957,935.72 1297.162,918.444C1313.165,901.383 1320.334,881.667 1326.319,859.741C1339.272,812.288 1346.637,755.041 1411.426,690.254Z" style="fill:rgb(180,116,214);"/>
        <path d="M809.461,1039.398C809.888,1041.168 809.717,1043.093 808.84,1044.847C806.907,1048.712 802.259,1050.33 798.359,1048.546C797.871,1048.494 795.845,1048.277 795.391,1048.147L793.656,1047.437L792.047,1046.289L790.322,1044.051L789.442,1041.162L789.829,1037.623L790.825,1035.601C791.12,1035.157 791.59,1034.539 792.353,1033.775C872.092,954.035 943.743,939.28 999.026,917.023C1024.909,906.602 1047.042,894.533 1064.214,871.977C1081.675,849.041 1093.948,815.513 1100.527,762.888C1107.793,704.757 1133.121,673.438 1150.234,654.725C1156.594,647.77 1161.814,642.967 1163.768,639.06C1165.743,635.111 1170.552,633.508 1174.501,635.483C1178.45,637.457 1180.053,642.267 1178.079,646.216C1175.71,650.952 1169.753,657.09 1162.041,665.522C1146.324,682.709 1123.077,711.482 1116.403,764.873C1109.349,821.3 1095.667,857.075 1076.945,881.668C1057.934,906.641 1033.657,920.328 1005.001,931.865C952.548,952.983 884.742,966.791 809.461,1039.398Z" style="fill:rgb(180,116,214);"/>
        <path d="M877.006,1125.253C876.617,1126.162 876.052,1127.013 875.31,1127.755C873.099,1129.966 872.05,1131.004 871.839,1131.189L868.968,1132.822L865.904,1133.179L863.868,1132.749L862.298,1131.995L859.998,1129.83L858.746,1127.071L858.525,1125.142L858.73,1123.401L859.542,1121.298L860.588,1119.825C861.597,1118.649 868.637,1111.056 871.866,1105.317C895.645,1063.042 893.669,1063.027 917.818,1020.767C985.188,902.869 1086.104,874.11 1188.322,853.764C1286.62,834.199 1386.202,822.976 1455.025,740.389C1457.852,736.997 1462.901,736.538 1466.292,739.365C1469.684,742.191 1470.143,747.24 1467.317,750.632C1395.982,836.232 1293.329,849.177 1191.446,869.456C1093.483,888.955 996.275,915.715 931.71,1028.705C907.588,1070.918 909.564,1070.934 885.811,1113.161C883.727,1116.867 879.963,1121.68 877.006,1125.253Z" style="fill:rgb(180,116,214);"/>
        <path d="M1084.68,614.357C1088.629,612.382 1093.439,613.985 1095.413,617.935C1097.388,621.884 1095.785,626.693 1091.835,628.668C1090.33,629.42 988.041,694.648 949.188,927.771C930.536,1039.683 904.914,1095.891 872.225,1131.925C850.299,1156.094 825.104,1171.266 796.248,1187.765C766.52,1204.763 732.805,1223.296 694.833,1255.844C689.425,1260.479 690.823,1261.724 632.825,1319.722C629.703,1322.844 624.633,1322.844 621.511,1319.722C618.389,1316.6 618.389,1311.531 621.511,1308.408C680.308,1249.611 678.938,1248.395 684.42,1243.696C723.332,1210.343 757.843,1191.293 788.306,1173.875C815.629,1158.252 839.613,1144.06 860.375,1121.174C891.718,1086.624 915.522,1032.444 933.406,925.141C973.932,681.98 1083.11,615.142 1084.68,614.357Z" style="fill:rgb(180,116,214);"/>
        <path d="M1488.919,775.918C1490.893,771.968 1495.702,770.365 1499.652,772.34C1503.601,774.314 1505.204,779.124 1503.23,783.073C1501.469,786.593 1497.924,789.701 1491.968,793.455C1475.18,804.035 1435.524,826.633 1376.476,944.73C1317.32,1063.04 1269.492,1084.85 1199.912,1106.245C1155.148,1120.009 1100.967,1133.476 1027.848,1174.098C1023.988,1176.242 1019.113,1174.849 1016.969,1170.99C1014.825,1167.13 1016.218,1162.256 1020.077,1160.111C1094.514,1118.757 1149.639,1104.964 1195.209,1090.952C1261.131,1070.682 1306.12,1049.664 1362.165,937.575C1416.169,829.567 1455.172,798.372 1475.76,784.798C1480.037,781.978 1483.509,779.954 1486.146,778.162C1487.398,777.311 1488.471,776.813 1488.919,775.918Z" style="fill:rgb(180,116,214);"/>
        <path d="M926.776,1298.718C946.738,1265.719 982.699,1233.804 1021.845,1197.478C1084.115,1139.693 1154.604,1070.136 1175.938,963.464C1209.153,797.383 1181.634,789.78 1251.944,649.164C1253.919,645.215 1258.728,643.612 1262.678,645.586C1266.627,647.561 1268.23,652.37 1266.255,656.319C1196.864,795.096 1224.408,802.693 1191.627,966.602C1169.546,1077.011 1097.181,1149.397 1032.728,1209.206C991.304,1247.646 953.197,1280.6 935.593,1315.806C934.211,1318.571 932.761,1319.647 932.116,1320.079L929.449,1321.242L926.659,1321.41L924.801,1320.972L923.192,1320.175L921.785,1319.031L920.582,1317.47L919.724,1315.491C919.577,1314.99 919.427,1314.292 919.35,1313.422C919.272,1312.541 919.493,1310.692 919.011,1309.247C917.615,1305.058 919.882,1300.524 924.071,1299.128C924.968,1298.829 925.881,1298.698 926.776,1298.718Z" style="fill:rgb(180,116,214);"/>
        <path d="M1639.975,436.66C1636.301,434.211 1635.307,429.24 1637.756,425.566C1640.206,421.893 1645.177,420.898 1648.85,423.348C1668.929,436.733 1694.83,480.211 1704.764,512.375C1709.595,528.015 1710.22,541.311 1706.679,548.395C1704.704,552.344 1699.895,553.947 1695.945,551.973C1691.996,549.998 1690.393,545.189 1692.368,541.24C1693.33,539.315 1693.284,536.524 1692.981,533.182C1692.558,528.512 1691.311,523.036 1689.477,517.097C1680.552,488.201 1658.014,448.686 1639.975,436.66Z" style="fill:rgb(180,116,214);"/>
        <path d="M1696.115,602.224C1696.115,597.808 1699.7,594.224 1704.115,594.224C1708.531,594.224 1712.115,597.808 1712.115,602.224L1712.115,604.52C1712.115,608.935 1708.531,612.52 1704.115,612.52C1699.7,612.52 1696.115,608.935 1696.115,604.52L1696.115,602.224Z" style="fill:rgb(180,116,214);"/>
    </g>
</svg>
