<?xml version="1.0" encoding="UTF-8" standalone="no"?>
<!DOCTYPE svg PUBLIC "-//W3C//DTD SVG 1.1//EN" "http://www.w3.org/Graphics/SVG/1.1/DTD/svg11.dtd">
<svg width="100%" height="100%" viewBox="0 0 4961 3508" version="1.1" xmlns="http://www.w3.org/2000/svg" xmlns:xlink="http://www.w3.org/1999/xlink" xml:space="preserve" xmlns:serif="http://www.serif.com/" style="fill-rule:evenodd;clip-rule:evenodd;stroke-linecap:round;stroke-linejoin:round;stroke-miterlimit:1.5;">
    <g id="Artboard1" transform="matrix(2,0,0,1,0,0)">
        <rect x="0" y="0" width="2480.32" height="3507.87" style="fill:none;"/>
        <g id="Move-6" serif:id="Move 6" transform="matrix(0.707143,0,0,0.707071,311.592,145.851)">
            <g id="Face" transform="matrix(0.47302,0,0,0.946137,1296.65,781.771)">
                <g id="Head">
                    <g id="Face1" serif:id="Face">
                        <path d="M1005.85,1109.13C946.898,898.566 1028.64,714.986 1121.17,653.808C1265.48,558.386 1422.41,557.055 1544.31,603.92C1644.52,642.445 1745.6,714.957 1713,974.488C1713,974.488 1779.98,1016.24 1743.34,1073.79C1730.13,1094.54 1710.76,1091.92 1686.58,1100.42C1686.58,1100.42 1681.38,1274.26 1526.19,1322.17C1371,1370.08 1213.32,1300.12 1184.69,1288.82C1089.15,1251.11 1018.71,1155.05 1005.85,1109.13Z" style="fill:white;stroke:black;stroke-width:31.14px;"/>
                        <path d="M1630.8,865.136C1630.8,865.136 1564.94,842.692 1501.08,934.814" style="fill:none;stroke:black;stroke-width:31.14px;"/>
                        <path d="M1630.8,1175.28C1630.8,1175.28 1587.7,1193.73 1544.31,1172.03" style="fill:none;stroke:black;stroke-width:31.14px;"/>
                        <g transform="matrix(0.702592,0,0,1.78655,450.537,-753.144)">
                            <circle cx="1618.33" cy="965.589" r="30.775"/>
                        </g>
                    </g>
                </g>
            </g>
            <g id="_----Hair" serif:id="--- Hair" transform="matrix(0.47302,0,0,0.946137,1296.65,781.771)">
                <path d="M1469.75,858.62C1622.73,788.601 1670.85,690.795 1670.85,690.795C1731.4,731.071 1713.88,836.744 1713.88,836.744C1713.88,836.744 1773.78,800.305 1758.71,686.461C1743.64,572.618 1650.1,498.662 1582.73,467.931C1565.02,459.853 1472.79,432.986 1368.33,407.819C1280.01,386.539 1234,371.59 1126.77,367.765C1049.62,365.014 1027.57,330.665 939.342,315.252C860.623,301.499 751.144,382.375 751.144,382.375C751.144,382.375 815.807,412.386 856.83,408.378C908.453,403.335 921.89,487.454 946.719,494.759C1023.19,517.258 993.677,547.283 993.677,547.283C993.677,547.283 985.334,535.272 929.711,536.719C872.74,538.201 837.566,499.868 773.707,518.667C732.634,530.757 670.859,485.671 622.507,463.858C622.507,463.858 712.461,580.279 776.298,619.757C818.995,646.161 904.89,658.834 904.89,658.834C904.89,658.834 850.143,678.579 811.755,673.632C772.565,668.582 679.771,633.932 640.813,646.633C551.292,675.818 497.138,686.494 497.138,686.494C548.097,716.926 562.79,737.642 632.317,759.148C659.353,767.511 710.508,754.586 748.194,752.465C802.223,749.423 794.064,784.797 829.151,807.257C829.151,807.257 741.416,780.847 701.296,809.579C675.83,827.815 711.07,847.679 674.968,862.398C642.528,875.625 581.377,922.399 581.377,922.399C581.377,922.399 640.441,978.886 678.299,967.47C715.9,956.131 728.47,940.823 761.01,958.33C802.458,980.629 791.889,999.583 791.889,999.583C791.889,999.583 639.296,992.705 615.229,1021.68C565.942,1081.02 530.157,1076.49 530.157,1076.49C530.157,1076.49 625.025,1149.89 692.697,1130.99C733.223,1119.67 829.197,1068.08 829.197,1068.08C829.197,1068.08 804.285,1166.01 773.516,1204.69C742.548,1243.61 764.62,1290.42 764.62,1290.42C764.62,1290.42 894.609,1223.34 975.84,1201.71C1042.42,1183.99 1060.97,1209.44 1077.39,1220.66C1077.39,1220.66 1155.36,1163.68 1178.49,1109.24" style="fill:white;stroke:black;stroke-width:31.14px;"/>
                <path d="M1551.05,730.622C1551.05,730.622 1576.43,763.844 1410.54,920.904C1410.54,920.904 1434.22,833.234 1425.29,797.963" style="fill:white;stroke:black;stroke-width:31.14px;"/>
                <path d="M1410.54,851.839C1410.54,851.839 1324.54,910.207 1319.65,996.057" style="fill:white;stroke:black;stroke-width:31.14px;"/>
            </g>
            <g id="_----Tail" serif:id="--- Tail" transform="matrix(0.559844,-0.863857,-0.431884,-1.1198,1256.75,5589.71)">
                <path d="M298.944,1864.64C298.944,1864.64 184.884,1797.33 127.623,1785.49C70.361,1773.65 -44.626,1793.62 -44.626,1793.62C-44.626,1793.62 74.743,1837.86 121.091,1886.2C166.578,1933.64 193.628,2031.35 180.967,2089.42C169.181,2143.48 162.531,2234.51 172.039,2245.35C186.237,2261.54 283.38,2156.5 299.797,2109.43C324.442,2038.78 349.455,1972.46 365.777,1968.39C443.867,1948.94 707.526,1925 884.372,1919.83C1137.38,1912.43 1110.97,2023.46 1351.49,1863.64C1480.47,1777.93 1519.17,1757.72 1568.08,1664.51C1620.88,1563.87 1598.16,1486.14 1562.75,1448.12C1516,1397.9 1303.66,1344.61 1185.89,1378.57C912.212,1457.51 895.918,1426.05 706.11,1601.69C480.787,1810.19 298.944,1864.64 298.944,1864.64Z" style="fill:white;stroke:black;stroke-width:20.83px;"/>
            </g>
            <g id="Body" transform="matrix(-0.244482,-0.809964,-0.40494,0.489014,2647.39,2290.78)">
                <path d="M1819.99,2930.56C1819.99,2930.56 1546.56,2833.55 1311.22,2856.94C1148.34,2873.13 920.838,2941.33 721.763,2846.45C721.763,2846.45 643.91,2484.27 701.717,2188.67C729.035,2048.98 914.422,1371.51 986.837,1323.05C1059.25,1274.59 1215.11,1256.11 1414.59,1515.98C1414.59,1515.98 1536.17,1638.4 1576.16,1887.62C1616.14,2136.84 1587.06,2231.96 1647.86,2443.71C1708.65,2655.45 1819.99,2930.56 1819.99,2930.56Z" style="fill:white;stroke:black;stroke-width:31.14px;"/>
                <path d="M1531.97,1699.59C1531.97,1699.59 1502.02,1531.28 1451.7,1466.19C1300.39,1270.47 1128.95,1207.62 1015.02,1215.45C914.351,1222.37 849.086,1322.39 810.865,1453.22C782.657,1549.78 799.59,1771.76 799.59,1771.76C799.59,1771.76 893.695,1493.95 919.934,1458.29C955.988,1409.29 997.904,1384.13 1051.81,1372.83C1102.89,1362.12 1184.64,1376.47 1334.41,1488.52C1461.73,1583.76 1531.97,1699.59 1531.97,1699.59Z" style="fill:white;stroke:black;stroke-width:31.14px;"/>
            </g>
            <g id="_----Right-Hand" serif:id="--- Right Hand" transform="matrix(0.378974,0.566192,-0.283067,0.758025,1636.41,294.549)">
                <g transform="matrix(0.729881,0.683575,-0.683575,0.729881,1647.2,-135.722)">
                    <path d="M1330.34,2220.27C1330.34,2220.27 1463.45,2252.37 1462.42,2317.06C1461.15,2397.23 1378.61,2355.83 1366.17,2346.57C1366.17,2346.57 1408.08,2416.33 1397.28,2468.04C1385.03,2526.67 1249.13,2583.73 1174.91,2530.6C1100.69,2477.47 1072.83,2386.23 1079.02,2364.85" style="fill:white;stroke:black;stroke-width:31.14px;"/>
                </g>
                <path d="M1011.6,1536.85C1011.6,1536.85 901.48,1603.68 852.533,1786.47C805.19,1963.28 747.474,2337.86 781.056,2355.57C781.056,2355.57 927.483,2343.88 987.284,2365.22C1044.74,2385.73 1110.43,2411.41 1118.33,2394.04C1142.66,2340.54 1140.59,2223.73 1136.1,2125C1132.28,2040.87 1190.64,1883.06 1227.53,1809.29C1260.92,1742.49 1249.69,1640.78 1240.16,1605.4" style="fill:white;stroke:black;stroke-width:31.14px;"/>
            </g>
            <g id="Goggles" transform="matrix(1,0,0,1,0,506.679)">
                <g transform="matrix(0.92275,-0.770877,0.19268,0.92275,366.794,1156.64)">
                    <g transform="matrix(0.601324,0,0,1.71404,-239.569,-257.981)">
                        <rect x="2657.32" y="466.224" width="71.781" height="439.786" style="fill:white;stroke:black;stroke-width:19.9px;"/>
                    </g>
                    <g transform="matrix(3.68205e-17,-1.20277,0.130862,1.60276e-17,1354.88,4606.22)">
                        <rect x="2657.32" y="466.224" width="71.781" height="439.786" style="fill:white;stroke:black;stroke-width:33.85px;"/>
                    </g>
                    <g transform="matrix(0.801765,0,0,1.60369,-772.206,-42.8953)">
                        <path d="M2657.32,834.229L2657.32,364.183L2711.16,364.183L2711.16,834.229C2711.16,844.133 2719.2,852.174 2729.1,852.174L2800.88,852.174L2800.88,906.009L2729.1,906.009C2689.49,906.009 2657.32,873.845 2657.32,834.229Z" style="fill:white;stroke:black;stroke-width:18.37px;"/>
                    </g>
                </g>
                <g transform="matrix(0.824361,0,0,1.64889,685.441,144.682)">
                    <path d="M1772.38,675.516C1753.43,729.105 1703.49,767.416 1644.92,767.416C1570.08,767.416 1509.32,704.851 1509.32,627.789C1509.32,550.727 1570.08,488.163 1644.92,488.163L1795.43,488.163L1795.43,675.516L1772.38,675.516ZM1644.92,544.67C1600.37,544.67 1564.2,581.914 1564.2,627.789C1564.2,673.664 1600.37,710.909 1644.92,710.909C1672.23,710.909 1696.39,696.914 1711,675.516C1720.23,662.005 1725.64,645.544 1725.64,627.789C1725.64,624.824 1725.49,621.894 1725.2,619.009L1769.33,619.009L1769.33,544.67L1644.92,544.67Z" style="fill:white;stroke:black;stroke-width:17.87px;"/>
                </g>
            </g>
            <g id="_----Bubble" serif:id="--- Bubble">
                <g transform="matrix(0.980667,0.391407,-0.0978317,0.980667,182.042,-623.97)">
                    <g transform="matrix(0.707071,0,0,1.41429,-21.4524,557.586)">
                        <ellipse cx="2401.13" cy="286.182" rx="35.042" ry="33.206" style="fill:white;stroke:black;stroke-width:4.17px;"/>
                    </g>
                    <g transform="matrix(0.466689,0,0,0.933474,555.733,695.186)">
                        <path d="M2401.13,319.388C2381.79,319.388 2366.08,304.509 2366.08,286.182" style="fill:none;stroke:black;stroke-width:9.47px;"/>
                    </g>
                </g>
                <g transform="matrix(-0.808292,1.17768,-0.294361,-0.808292,3369.63,-634.9)">
                    <g transform="matrix(0.707071,0,0,1.41429,-21.4524,557.586)">
                        <ellipse cx="2401.13" cy="286.182" rx="35.042" ry="33.206" style="fill:white;stroke:black;stroke-width:4.17px;"/>
                    </g>
                    <g transform="matrix(0.466689,0,0,0.933474,555.733,695.186)">
                        <path d="M2401.13,319.388C2381.79,319.388 2366.08,304.509 2366.08,286.182" style="fill:none;stroke:black;stroke-width:9.47px;"/>
                    </g>
                </g>
                <g transform="matrix(-0.0465977,-2.49874,0.624557,-0.0465977,1184.15,5061.28)">
                    <g transform="matrix(0.707071,0,0,1.41429,-21.4524,557.586)">
                        <ellipse cx="2401.13" cy="286.182" rx="35.042" ry="33.206" style="fill:white;stroke:black;stroke-width:3.33px;"/>
                    </g>
                    <g transform="matrix(0.466689,0,0,0.933474,555.733,695.186)">
                        <path d="M2401.13,319.388C2381.79,319.388 2366.08,304.509 2366.08,286.182" style="fill:none;stroke:black;stroke-width:7.57px;"/>
                    </g>
                </g>
                <g transform="matrix(-0.0558976,2.41497,-0.603619,-0.0558976,2276.92,-3288.53)">
                    <g transform="matrix(0.707071,0,0,1.41429,-21.4524,557.586)">
                        <ellipse cx="2401.13" cy="286.182" rx="35.042" ry="33.206" style="fill:white;stroke:black;stroke-width:3.45px;"/>
                    </g>
                    <g transform="matrix(0.466689,0,0,0.933474,555.733,695.186)">
                        <path d="M2401.13,319.388C2381.79,319.388 2366.08,304.509 2366.08,286.182" style="fill:none;stroke:black;stroke-width:7.83px;"/>
                    </g>
                </g>
                <g transform="matrix(1.20647,-1.4629,0.36565,1.20647,-672.341,1682.13)">
                    <g transform="matrix(0.707071,0,0,1.41429,-21.4524,557.586)">
                        <ellipse cx="2401.13" cy="286.182" rx="35.042" ry="33.206" style="fill:white;stroke:black;stroke-width:2.95px;"/>
                    </g>
                    <g transform="matrix(0.466689,0,0,0.933474,555.733,695.186)">
                        <path d="M2401.13,319.388C2381.79,319.388 2366.08,304.509 2366.08,286.182" style="fill:none;stroke:black;stroke-width:6.71px;"/>
                    </g>
                </g>
            </g>
        </g>
    </g>
</svg>
