<?xml version="1.0" encoding="UTF-8" standalone="no"?>
<!DOCTYPE svg PUBLIC "-//W3C//DTD SVG 1.1//EN" "http://www.w3.org/Graphics/SVG/1.1/DTD/svg11.dtd">
<svg width="100%" height="100%" viewBox="0 0 4961 3508" version="1.1" xmlns="http://www.w3.org/2000/svg" xmlns:xlink="http://www.w3.org/1999/xlink" xml:space="preserve" xmlns:serif="http://www.serif.com/" style="fill-rule:evenodd;clip-rule:evenodd;stroke-linecap:round;stroke-linejoin:round;stroke-miterlimit:1.5;">
    <g id="Artboard1" transform="matrix(2,0,0,1,0,0)">
        <rect x="0" y="0" width="2480.32" height="3507.87" style="fill:none;"/>
        <g id="Move-7" serif:id="Move 7" transform="matrix(0.707143,0,0,0.707071,311.592,145.851)">
            <g id="Face" transform="matrix(0.47302,0,0,0.946137,1296.65,781.771)">
                <g id="Head">
                    <g id="Face1" serif:id="Face">
                        <path d="M1005.85,1109.13C946.898,898.566 1028.64,714.986 1121.17,653.808C1265.48,558.386 1422.41,557.055 1544.31,603.92C1644.52,642.445 1745.6,714.957 1713,974.488C1713,974.488 1779.98,1016.24 1743.34,1073.79C1730.13,1094.54 1710.76,1091.92 1686.58,1100.42C1686.58,1100.42 1681.38,1274.26 1526.19,1322.17C1371,1370.08 1213.32,1300.12 1184.69,1288.82C1089.15,1251.11 1018.71,1155.05 1005.85,1109.13Z" style="fill:white;stroke:black;stroke-width:31.14px;"/>
                        <path d="M1630.8,865.136C1630.8,865.136 1564.94,842.692 1501.08,934.814" style="fill:none;stroke:black;stroke-width:31.14px;"/>
                        <path d="M1630.8,1175.28C1630.8,1175.28 1587.7,1193.73 1544.31,1172.03" style="fill:none;stroke:black;stroke-width:31.14px;"/>
                        <g transform="matrix(0.702592,0,0,1.78655,450.537,-753.144)">
                            <circle cx="1618.33" cy="965.589" r="30.775"/>
                        </g>
                    </g>
                </g>
            </g>
            <g id="_----Hair" serif:id="--- Hair" transform="matrix(0.47302,0,0,0.946137,1296.65,781.771)">
                <path d="M1469.75,858.62C1622.73,788.601 1670.85,690.795 1670.85,690.795C1731.4,731.071 1713.88,836.744 1713.88,836.744C1713.88,836.744 1773.78,800.305 1758.71,686.461C1743.64,572.618 1650.1,498.662 1582.73,467.931C1565.02,459.853 1485.97,395.115 1381.51,369.949C1293.18,348.668 1248.68,343.91 1141.45,340.086C1064.3,337.334 996.715,352.511 921.752,375.555C845.368,399.035 794.781,473.945 794.781,473.945C794.781,473.945 836.446,455.976 877.468,451.968C929.091,446.925 965.144,452.658 976.665,475.834C1002.53,527.874 993.677,547.283 993.677,547.283C993.677,547.283 934.318,496.16 878.695,497.607C821.725,499.089 840.071,523.883 773.707,518.667C688.215,511.947 655.9,513.513 618.845,540.706C618.845,540.706 757.522,562.837 821.359,602.316C864.055,628.72 904.89,658.834 904.89,658.834C904.89,658.834 850.143,678.579 811.755,673.632C772.565,668.582 742.947,603.609 703.989,616.309C614.469,645.494 545.82,588.408 545.82,588.408C517.457,660.393 545.16,749.067 614.687,770.573C641.722,778.936 674.505,746.675 712.192,744.553C766.221,741.512 793.154,830.134 828.241,852.594C828.241,852.594 750.995,845.564 703.434,832.409C679.533,825.799 644.137,865.127 608.035,879.847C575.595,893.073 549.401,943.712 549.401,943.712C549.401,943.712 627.606,927.047 665.464,915.631C703.065,904.292 703.354,925.189 735.893,942.696C777.342,964.996 711.69,1028.07 711.69,1028.07C711.69,1028.07 685.186,975.756 661.119,1004.73C611.832,1064.07 582.906,1062.02 582.906,1062.02C582.906,1062.02 659.705,1113.68 727.377,1094.78C767.903,1083.46 829.197,1068.08 829.197,1068.08C829.197,1068.08 779.148,1120.03 748.379,1158.7C717.411,1197.63 742.289,1234.86 742.289,1234.86C742.289,1234.86 894.609,1223.34 975.84,1201.71C1042.42,1183.99 1060.97,1209.44 1077.39,1220.66C1077.39,1220.66 1155.36,1163.68 1178.49,1109.24" style="fill:white;stroke:black;stroke-width:31.14px;"/>
                <path d="M1551.05,730.622C1551.05,730.622 1576.43,763.844 1410.54,920.904C1410.54,920.904 1434.22,833.234 1425.29,797.963" style="fill:white;stroke:black;stroke-width:31.14px;"/>
                <path d="M1410.54,851.839C1410.54,851.839 1324.54,910.207 1319.65,996.057" style="fill:white;stroke:black;stroke-width:31.14px;"/>
            </g>
            <g id="_----Tail" serif:id="--- Tail" transform="matrix(0.707071,0,0,1.41429,369.463,333.345)">
                <path d="M363.494,1683.62C363.494,1683.62 398.296,1636.79 400.81,1560.36C402.482,1509.52 386.292,1454.33 343.845,1397.55C337.251,1388.73 336.231,1458.02 295.125,1561.85C273.454,1616.59 221.493,1661.53 168.342,1691.74C120.354,1719.02 -30.719,1736.83 -31.598,1749.64C-33.072,1771.13 58.783,1799.26 149.115,1797.97C209.972,1797.11 252.016,1774.12 326.519,1778.54C406.854,1783.3 354.714,1878.54 547.115,1967.91C776.677,2074.54 961.494,2045.23 1100.04,2002.99C1248.17,1957.82 1519.17,1757.72 1568.08,1664.51C1620.88,1563.87 1598.16,1486.14 1562.75,1448.12C1516,1397.9 1384.24,1394.58 1260.1,1403.29C1109.51,1413.86 1070.45,1385.98 844.486,1511.75C763.429,1556.86 650.924,1686.78 596.3,1714.76C503.237,1762.44 363.494,1683.62 363.494,1683.62Z" style="fill:white;stroke:black;stroke-width:20.83px;"/>
            </g>
            <g id="_----Right-Hand" serif:id="--- Right Hand" transform="matrix(0.182906,0.872542,-0.436226,0.36585,2105.64,569.175)">
                <g transform="matrix(0.596263,0.802789,-0.802789,0.596263,2050.15,11.6095)">
                    <path d="M1330.34,2220.27C1330.34,2220.27 1463.45,2252.37 1462.42,2317.06C1461.15,2397.23 1378.61,2355.83 1366.17,2346.57C1366.17,2346.57 1408.08,2416.33 1397.28,2468.04C1385.03,2526.67 1249.13,2583.73 1174.91,2530.6C1100.69,2477.47 1072.83,2386.23 1079.02,2364.85" style="fill:white;stroke:black;stroke-width:31.14px;"/>
                </g>
                <path d="M1037.86,1538.31C1037.86,1538.31 938.508,1606.97 891.071,1790.16C824.191,2048.43 740.325,2288.02 773.907,2305.73C773.907,2305.73 853.664,2323.6 913.465,2344.95C970.918,2365.45 1071.85,2414.22 1079.75,2396.86C1104.08,2343.36 1132.89,2254.02 1165.18,2160.62C1195.13,2073.99 1217.88,1948.87 1231.15,1863.82C1242.67,1790.04 1249.69,1640.78 1240.16,1605.4" style="fill:white;stroke:black;stroke-width:31.14px;"/>
            </g>
            <g id="Body" transform="matrix(-0.244482,-0.809964,-0.40494,0.489014,2647.39,2290.78)">
                <path d="M1819.99,2930.56C1819.99,2930.56 1546.56,2833.55 1311.22,2856.94C1148.34,2873.13 920.838,2941.33 721.763,2846.45C721.763,2846.45 643.91,2484.27 701.717,2188.67C729.035,2048.98 914.422,1371.51 986.837,1323.05C1059.25,1274.59 1215.11,1256.11 1414.59,1515.98C1414.59,1515.98 1536.17,1638.4 1576.16,1887.62C1616.14,2136.84 1587.06,2231.96 1647.86,2443.71C1708.65,2655.45 1819.99,2930.56 1819.99,2930.56Z" style="fill:white;stroke:black;stroke-width:31.14px;"/>
                <path d="M1531.97,1699.59C1531.97,1699.59 1502.02,1531.28 1451.7,1466.19C1300.39,1270.47 1128.95,1207.62 1015.02,1215.45C914.351,1222.37 849.086,1322.39 810.865,1453.22C782.657,1549.78 799.59,1771.76 799.59,1771.76C799.59,1771.76 893.695,1493.95 919.934,1458.29C955.988,1409.29 997.904,1384.13 1051.81,1372.83C1102.89,1362.12 1184.64,1376.47 1334.41,1488.52C1461.73,1583.76 1531.97,1699.59 1531.97,1699.59Z" style="fill:white;stroke:black;stroke-width:31.14px;"/>
            </g>
            <g id="_----Right-Hand1" serif:id="--- Right Hand" transform="matrix(0.283784,0.756952,-0.378438,0.567626,1897.75,379.69)">
                <g transform="matrix(0.596263,0.802789,-0.802789,0.596263,2050.15,11.6095)">
                    <path d="M1330.34,2220.27C1330.34,2220.27 1463.45,2252.37 1462.42,2317.06C1461.15,2397.23 1378.61,2355.83 1366.17,2346.57C1366.17,2346.57 1408.08,2416.33 1397.28,2468.04C1385.03,2526.67 1249.13,2583.73 1174.91,2530.6C1100.69,2477.47 1072.83,2386.23 1079.02,2364.85" style="fill:white;stroke:black;stroke-width:31.14px;"/>
                </g>
                <path d="M1037.86,1538.31C1037.86,1538.31 938.508,1606.97 891.071,1790.16C824.191,2048.43 740.325,2288.02 773.907,2305.73C773.907,2305.73 853.664,2323.6 913.465,2344.95C970.918,2365.45 1071.85,2414.22 1079.75,2396.86C1104.08,2343.36 1132.89,2254.02 1165.18,2160.62C1195.13,2073.99 1217.88,1948.87 1231.15,1863.82C1242.67,1790.04 1249.69,1640.78 1240.16,1605.4" style="fill:white;stroke:black;stroke-width:31.14px;"/>
            </g>
            <g id="Goggles" transform="matrix(1,0,0,1,0,506.679)">
                <g transform="matrix(0.92275,-0.770877,0.19268,0.92275,366.794,1156.64)">
                    <g transform="matrix(0.601324,0,0,1.71404,-239.569,-257.981)">
                        <rect x="2657.32" y="466.224" width="71.781" height="439.786" style="fill:white;stroke:black;stroke-width:19.9px;"/>
                    </g>
                    <g transform="matrix(3.68205e-17,-1.20277,0.130862,1.60276e-17,1354.88,4606.22)">
                        <rect x="2657.32" y="466.224" width="71.781" height="439.786" style="fill:white;stroke:black;stroke-width:33.85px;"/>
                    </g>
                    <g transform="matrix(0.801765,0,0,1.60369,-772.206,-42.8953)">
                        <path d="M2657.32,834.229L2657.32,364.183L2711.16,364.183L2711.16,834.229C2711.16,844.133 2719.2,852.174 2729.1,852.174L2800.88,852.174L2800.88,906.009L2729.1,906.009C2689.49,906.009 2657.32,873.845 2657.32,834.229Z" style="fill:white;stroke:black;stroke-width:18.37px;"/>
                    </g>
                </g>
                <g transform="matrix(0.824361,0,0,1.64889,685.441,144.682)">
                    <path d="M1772.38,675.516C1753.43,729.105 1703.49,767.416 1644.92,767.416C1570.08,767.416 1509.32,704.851 1509.32,627.789C1509.32,550.727 1570.08,488.163 1644.92,488.163L1795.43,488.163L1795.43,675.516L1772.38,675.516ZM1644.92,544.67C1600.37,544.67 1564.2,581.914 1564.2,627.789C1564.2,673.664 1600.37,710.909 1644.92,710.909C1672.23,710.909 1696.39,696.914 1711,675.516C1720.23,662.005 1725.64,645.544 1725.64,627.789C1725.64,624.824 1725.49,621.894 1725.2,619.009L1769.33,619.009L1769.33,544.67L1644.92,544.67Z" style="fill:white;stroke:black;stroke-width:17.87px;"/>
                </g>
            </g>
            <g id="_----Bubble" serif:id="--- Bubble">
                <g transform="matrix(0.980667,0.391407,-0.0978317,0.980667,194.002,-744.366)">
                    <g transform="matrix(0.707071,0,0,1.41429,-21.4524,557.586)">
                        <ellipse cx="2401.13" cy="286.182" rx="35.042" ry="33.206" style="fill:white;stroke:black;stroke-width:4.17px;"/>
                    </g>
                    <g transform="matrix(0.466689,0,0,0.933474,555.733,695.186)">
                        <path d="M2401.13,319.388C2381.79,319.388 2366.08,304.509 2366.08,286.182" style="fill:none;stroke:black;stroke-width:9.47px;"/>
                    </g>
                </g>
                <g transform="matrix(-0.217409,2.25446,-0.563501,-0.217409,2558.99,-2961.52)">
                    <g transform="matrix(0.707071,0,0,1.41429,-21.4524,557.586)">
                        <ellipse cx="2401.13" cy="286.182" rx="35.042" ry="33.206" style="fill:white;stroke:black;stroke-width:3.63px;"/>
                    </g>
                    <g transform="matrix(0.466689,0,0,0.933474,555.733,695.186)">
                        <path d="M2401.13,319.388C2381.79,319.388 2366.08,304.509 2366.08,286.182" style="fill:none;stroke:black;stroke-width:8.25px;"/>
                    </g>
                </g>
                <g transform="matrix(-0.808292,1.17768,-0.294361,-0.808292,3382.38,-569.676)">
                    <g transform="matrix(0.707071,0,0,1.41429,-21.4524,557.586)">
                        <ellipse cx="2401.13" cy="286.182" rx="35.042" ry="33.206" style="fill:white;stroke:black;stroke-width:4.17px;"/>
                    </g>
                    <g transform="matrix(0.466689,0,0,0.933474,555.733,695.186)">
                        <path d="M2401.13,319.388C2381.79,319.388 2366.08,304.509 2366.08,286.182" style="fill:none;stroke:black;stroke-width:9.47px;"/>
                    </g>
                </g>
                <g transform="matrix(-0.0465977,-2.49874,0.624557,-0.0465977,1107.8,5041.92)">
                    <g transform="matrix(0.707071,0,0,1.41429,-21.4524,557.586)">
                        <ellipse cx="2401.13" cy="286.182" rx="35.042" ry="33.206" style="fill:white;stroke:black;stroke-width:3.33px;"/>
                    </g>
                    <g transform="matrix(0.466689,0,0,0.933474,555.733,695.186)">
                        <path d="M2401.13,319.388C2381.79,319.388 2366.08,304.509 2366.08,286.182" style="fill:none;stroke:black;stroke-width:7.57px;"/>
                    </g>
                </g>
                <g transform="matrix(-0.0558976,2.41497,-0.603619,-0.0558976,2248.54,-3454.41)">
                    <g transform="matrix(0.707071,0,0,1.41429,-21.4524,557.586)">
                        <ellipse cx="2401.13" cy="286.182" rx="35.042" ry="33.206" style="fill:white;stroke:black;stroke-width:3.45px;"/>
                    </g>
                    <g transform="matrix(0.466689,0,0,0.933474,555.733,695.186)">
                        <path d="M2401.13,319.388C2381.79,319.388 2366.08,304.509 2366.08,286.182" style="fill:none;stroke:black;stroke-width:7.83px;"/>
                    </g>
                </g>
                <g transform="matrix(1.20647,-1.4629,0.36565,1.20647,-700,1650.58)">
                    <g transform="matrix(0.707071,0,0,1.41429,-21.4524,557.586)">
                        <ellipse cx="2401.13" cy="286.182" rx="35.042" ry="33.206" style="fill:white;stroke:black;stroke-width:2.95px;"/>
                    </g>
                    <g transform="matrix(0.466689,0,0,0.933474,555.733,695.186)">
                        <path d="M2401.13,319.388C2381.79,319.388 2366.08,304.509 2366.08,286.182" style="fill:none;stroke:black;stroke-width:6.71px;"/>
                    </g>
                </g>
            </g>
        </g>
    </g>
</svg>
