<?xml version="1.0" encoding="UTF-8" standalone="no"?>
<!DOCTYPE svg PUBLIC "-//W3C//DTD SVG 1.1//EN" "http://www.w3.org/Graphics/SVG/1.1/DTD/svg11.dtd">
<svg width="100%" height="100%" viewBox="0 0 4961 3508" version="1.1" xmlns="http://www.w3.org/2000/svg" xmlns:xlink="http://www.w3.org/1999/xlink" xml:space="preserve" xmlns:serif="http://www.serif.com/" style="fill-rule:evenodd;clip-rule:evenodd;stroke-linecap:round;stroke-linejoin:round;stroke-miterlimit:1.5;">
    <g id="Artboard1" transform="matrix(2,0,0,1,0,0)">
        <rect x="0" y="0" width="2480.32" height="3507.87" style="fill:none;"/>
        <g id="Move-4" serif:id="Move 4" transform="matrix(0.707143,0,0,0.707071,311.592,145.851)">
            <g id="Face" transform="matrix(0.47302,0,0,0.946137,1296.65,781.771)">
                <g id="Head">
                    <g id="Face1" serif:id="Face">
                        <path d="M1005.85,1109.13C946.898,898.566 1028.64,714.986 1121.17,653.808C1265.48,558.386 1422.41,557.055 1544.31,603.92C1644.52,642.445 1745.6,714.957 1713,974.488C1713,974.488 1779.98,1016.24 1743.34,1073.79C1730.13,1094.54 1710.76,1091.92 1686.58,1100.42C1686.58,1100.42 1681.38,1274.26 1526.19,1322.17C1371,1370.08 1213.32,1300.12 1184.69,1288.82C1089.15,1251.11 1018.71,1155.05 1005.85,1109.13Z" style="fill:white;stroke:black;stroke-width:31.14px;"/>
                        <path d="M1630.8,865.136C1630.8,865.136 1564.94,842.692 1501.08,934.814" style="fill:none;stroke:black;stroke-width:31.14px;"/>
                        <path d="M1630.8,1175.28C1630.8,1175.28 1587.7,1193.73 1544.31,1172.03" style="fill:none;stroke:black;stroke-width:31.14px;"/>
                        <g transform="matrix(0.702592,0,0,1.78655,450.537,-753.144)">
                            <circle cx="1618.33" cy="965.589" r="30.775"/>
                        </g>
                    </g>
                </g>
            </g>
            <g id="_----Hair" serif:id="--- Hair" transform="matrix(0.47302,0,0,0.946137,1296.65,781.771)">
                <path d="M1469.75,858.62C1622.73,788.601 1670.85,690.795 1670.85,690.795C1731.4,731.071 1713.88,836.744 1713.88,836.744C1713.88,836.744 1773.78,800.305 1758.71,686.461C1743.64,572.618 1650.1,498.662 1582.73,467.931C1565.02,459.853 1487.01,419.352 1382.56,394.186C1294.23,372.906 1250.65,331.546 1147.97,350.062C1072,363.762 1070.18,399.605 1001.75,386.336C929.832,372.39 834.241,473.474 834.241,473.474C834.241,473.474 883.773,467.831 924.796,463.823C976.419,458.78 968.059,467.609 992.888,474.914C1069.36,497.413 1046.77,496.69 1046.77,496.69C1046.77,496.69 1026.13,524.832 970.512,526.279C913.541,527.761 908.636,551.616 846.447,527.871C796.814,508.92 707.175,529.041 662.965,539.275C662.965,539.275 753.462,578.77 817.299,618.248C859.996,644.652 924.583,629.15 924.583,629.15C924.583,629.15 874.959,655.226 835.634,659.09C796.31,662.953 771.832,663.594 730.929,661.151C688.082,658.593 526.349,571.34 526.349,571.34C577.308,601.772 569.14,696.631 638.667,718.137C665.702,726.5 710.508,754.586 748.194,752.465C802.223,749.423 870.084,754.34 905.171,776.801C905.171,776.801 780.87,782.1 740.749,810.832C715.284,829.068 645.49,836.353 609.388,851.073C576.948,864.299 412.429,843.847 412.429,843.847C412.429,843.847 629.375,970.51 667.233,959.094C704.833,947.755 745.801,925.175 778.341,942.682C819.789,964.981 791.889,999.583 791.889,999.583C791.889,999.583 650.743,1009.13 615.229,1021.68C473.186,1071.89 499.631,1162.75 499.631,1162.75C499.631,1162.75 629.097,1085.22 702.573,1097.09C744.111,1103.81 829.197,1068.08 829.197,1068.08C829.197,1068.08 886.891,1174.32 856.121,1212.99C825.154,1251.91 764.62,1290.42 764.62,1290.42C764.62,1290.42 894.609,1223.34 975.84,1201.71C1042.42,1183.99 1060.97,1209.44 1077.39,1220.66C1077.39,1220.66 1155.36,1163.68 1178.49,1109.24" style="fill:white;stroke:black;stroke-width:31.14px;"/>
                <path d="M1551.05,730.622C1551.05,730.622 1576.43,763.844 1410.54,920.904C1410.54,920.904 1434.22,833.234 1425.29,797.963" style="fill:white;stroke:black;stroke-width:31.14px;"/>
                <path d="M1410.54,851.839C1410.54,851.839 1324.54,910.207 1319.65,996.057" style="fill:white;stroke:black;stroke-width:31.14px;"/>
            </g>
            <g id="_----Tail" serif:id="--- Tail" transform="matrix(0.436127,-1.1132,-0.556545,-0.872343,1540.41,5489.66)">
                <path d="M476.053,1586.77C476.053,1586.77 530.278,1451.98 456.134,1345.72C428.269,1305.78 414.934,1290.48 408.402,1289.34C397.554,1287.44 367.664,1383.18 349.879,1466.7C334.039,1541.08 289.483,1607.18 233.174,1650.13C189.287,1683.62 47.465,1736.7 56.973,1747.54C71.171,1763.74 192.464,1785.28 246.258,1771.4C310.58,1754.8 370.131,1699.1 403.967,1705.17C483.181,1719.36 526.178,1909.13 813.482,1957.15C1063.14,1998.88 1146.34,1908.36 1284.88,1866.11C1433.01,1820.95 1519.17,1757.72 1568.08,1664.51C1620.88,1563.87 1598.16,1486.14 1562.75,1448.12C1516,1397.9 1486.65,1348.82 1362.76,1337.02C1002.39,1302.7 1012.8,1420.54 803.452,1572.36C594.103,1724.18 476.053,1586.77 476.053,1586.77Z" style="fill:white;stroke:black;stroke-width:20.83px;"/>
            </g>
            <g id="_----Right-Hand" serif:id="--- Right Hand" transform="matrix(0.472871,0.0237941,-0.0118958,0.945838,1093.21,541.881)">
                <g transform="matrix(0.914966,-0.40353,0.40353,0.914966,-943.532,689.813)">
                    <path d="M1330.34,2220.27C1330.34,2220.27 1463.45,2252.37 1462.42,2317.06C1461.15,2397.23 1378.61,2355.83 1366.17,2346.57C1366.17,2346.57 1408.08,2416.33 1397.28,2468.04C1385.03,2526.67 1249.13,2583.73 1174.91,2530.6C1100.69,2477.47 1072.83,2386.23 1079.02,2364.85" style="fill:white;stroke:black;stroke-width:31.14px;"/>
                </g>
                <path d="M1011.6,1536.85C1011.6,1536.85 820.595,1758.56 791.419,1939.25C734.395,2292.42 957.223,2460.92 990.805,2478.63C990.805,2478.63 1105.62,2319.67 1125.94,2286.36C1140.36,2262.73 1203.97,2170.7 1213.13,2140.28C1213.13,2140.28 1119.86,2088.59 1141.11,1989.76C1158.77,1907.64 1216.05,1854.25 1226.27,1780.27C1236.49,1706.29 1249.69,1640.78 1240.16,1605.4" style="fill:white;stroke:black;stroke-width:31.14px;"/>
            </g>
            <g id="Body" transform="matrix(-0.244482,-0.809964,-0.40494,0.489014,2647.39,2290.78)">
                <path d="M1819.99,2930.56C1819.99,2930.56 1546.56,2833.55 1311.22,2856.94C1148.34,2873.13 920.838,2941.33 721.763,2846.45C721.763,2846.45 643.91,2484.27 701.717,2188.67C729.035,2048.98 914.422,1371.51 986.837,1323.05C1059.25,1274.59 1215.11,1256.11 1414.59,1515.98C1414.59,1515.98 1536.17,1638.4 1576.16,1887.62C1616.14,2136.84 1587.06,2231.96 1647.86,2443.71C1708.65,2655.45 1819.99,2930.56 1819.99,2930.56Z" style="fill:white;stroke:black;stroke-width:31.14px;"/>
                <path d="M1531.97,1699.59C1531.97,1699.59 1502.02,1531.28 1451.7,1466.19C1300.39,1270.47 1128.95,1207.62 1015.02,1215.45C914.351,1222.37 849.086,1322.39 810.865,1453.22C782.657,1549.78 799.59,1771.76 799.59,1771.76C799.59,1771.76 893.695,1493.95 919.934,1458.29C955.988,1409.29 997.904,1384.13 1051.81,1372.83C1102.89,1362.12 1184.64,1376.47 1334.41,1488.52C1461.73,1583.76 1531.97,1699.59 1531.97,1699.59Z" style="fill:white;stroke:black;stroke-width:31.14px;"/>
            </g>
            <g id="_----Right-Hand1" serif:id="--- Right Hand" transform="matrix(0.331898,0.674137,-0.337034,0.663864,1776.51,321.056)">
                <g transform="matrix(0.914966,-0.40353,0.40353,0.914966,-943.532,689.813)">
                    <path d="M1330.34,2220.27C1330.34,2220.27 1463.45,2252.37 1462.42,2317.06C1461.15,2397.23 1378.61,2355.83 1366.17,2346.57C1366.17,2346.57 1408.08,2416.33 1397.28,2468.04C1385.03,2526.67 1249.13,2583.73 1174.91,2530.6C1100.69,2477.47 1072.83,2386.23 1079.02,2364.85" style="fill:white;stroke:black;stroke-width:31.14px;"/>
                </g>
                <path d="M1011.6,1536.85C1011.6,1536.85 820.595,1758.56 791.419,1939.25C734.395,2292.42 957.223,2460.92 990.805,2478.63C990.805,2478.63 1105.62,2319.67 1125.94,2286.36C1140.36,2262.73 1203.97,2170.7 1213.13,2140.28C1213.13,2140.28 1119.86,2088.59 1141.11,1989.76C1158.77,1907.64 1216.05,1854.25 1226.27,1780.27C1236.49,1706.29 1249.69,1640.78 1240.16,1605.4" style="fill:white;stroke:black;stroke-width:31.14px;"/>
            </g>
            <g id="Goggles" transform="matrix(1,0,0,1,0,506.679)">
                <g transform="matrix(0.92275,-0.770877,0.19268,0.92275,366.794,1156.64)">
                    <g transform="matrix(0.601324,0,0,1.71404,-239.569,-257.981)">
                        <rect x="2657.32" y="466.224" width="71.781" height="439.786" style="fill:white;stroke:black;stroke-width:19.9px;"/>
                    </g>
                    <g transform="matrix(3.68205e-17,-1.20277,0.130862,1.60276e-17,1354.88,4606.22)">
                        <rect x="2657.32" y="466.224" width="71.781" height="439.786" style="fill:white;stroke:black;stroke-width:33.85px;"/>
                    </g>
                    <g transform="matrix(0.801765,0,0,1.60369,-772.206,-42.8953)">
                        <path d="M2657.32,834.229L2657.32,364.183L2711.16,364.183L2711.16,834.229C2711.16,844.133 2719.2,852.174 2729.1,852.174L2800.88,852.174L2800.88,906.009L2729.1,906.009C2689.49,906.009 2657.32,873.845 2657.32,834.229Z" style="fill:white;stroke:black;stroke-width:18.37px;"/>
                    </g>
                </g>
                <g transform="matrix(0.824361,0,0,1.64889,685.441,144.682)">
                    <path d="M1772.38,675.516C1753.43,729.105 1703.49,767.416 1644.92,767.416C1570.08,767.416 1509.32,704.851 1509.32,627.789C1509.32,550.727 1570.08,488.163 1644.92,488.163L1795.43,488.163L1795.43,675.516L1772.38,675.516ZM1644.92,544.67C1600.37,544.67 1564.2,581.914 1564.2,627.789C1564.2,673.664 1600.37,710.909 1644.92,710.909C1672.23,710.909 1696.39,696.914 1711,675.516C1720.23,662.005 1725.64,645.544 1725.64,627.789C1725.64,624.824 1725.49,621.894 1725.2,619.009L1769.33,619.009L1769.33,544.67L1644.92,544.67Z" style="fill:white;stroke:black;stroke-width:17.87px;"/>
                </g>
            </g>
            <g id="_----Bubble" serif:id="--- Bubble">
                <g transform="matrix(0.542303,1.68054,-0.420049,0.542303,1290.31,-2498.07)">
                    <g transform="matrix(0.707071,0,0,1.41429,-21.4524,557.586)">
                        <ellipse cx="2401.13" cy="286.182" rx="35.042" ry="33.206" style="fill:white;stroke:black;stroke-width:4.17px;"/>
                    </g>
                    <g transform="matrix(0.466689,0,0,0.933474,555.733,695.186)">
                        <path d="M2401.13,319.388C2381.79,319.388 2366.08,304.509 2366.08,286.182" style="fill:none;stroke:black;stroke-width:9.47px;"/>
                    </g>
                </g>
                <g transform="matrix(-0.808292,1.17768,-0.294361,-0.808292,3260.72,-611.752)">
                    <g transform="matrix(0.707071,0,0,1.41429,-21.4524,557.586)">
                        <ellipse cx="2401.13" cy="286.182" rx="35.042" ry="33.206" style="fill:white;stroke:black;stroke-width:4.17px;"/>
                    </g>
                    <g transform="matrix(0.466689,0,0,0.933474,555.733,695.186)">
                        <path d="M2401.13,319.388C2381.79,319.388 2366.08,304.509 2366.08,286.182" style="fill:none;stroke:black;stroke-width:9.47px;"/>
                    </g>
                </g>
                <g transform="matrix(0.50408,0.9514,-0.237801,0.50408,1071.39,-1074.48)">
                    <g transform="matrix(0.707071,0,0,1.41429,-21.4524,557.586)">
                        <ellipse cx="2401.13" cy="286.182" rx="35.042" ry="33.206" style="fill:white;stroke:black;stroke-width:6.01px;"/>
                    </g>
                    <g transform="matrix(0.466689,0,0,0.933474,555.733,695.186)">
                        <path d="M2401.13,319.388C2381.79,319.388 2366.08,304.509 2366.08,286.182" style="fill:none;stroke:black;stroke-width:13.66px;"/>
                    </g>
                </g>
                <g transform="matrix(-0.0465977,-2.49874,0.624557,-0.0465977,1152.61,5037.47)">
                    <g transform="matrix(0.707071,0,0,1.41429,-21.4524,557.586)">
                        <ellipse cx="2401.13" cy="286.182" rx="35.042" ry="33.206" style="fill:white;stroke:black;stroke-width:3.33px;"/>
                    </g>
                    <g transform="matrix(0.466689,0,0,0.933474,555.733,695.186)">
                        <path d="M2401.13,319.388C2381.79,319.388 2366.08,304.509 2366.08,286.182" style="fill:none;stroke:black;stroke-width:7.57px;"/>
                    </g>
                </g>
                <g transform="matrix(-0.0558976,2.41497,-0.603619,-0.0558976,2380.63,-3307.25)">
                    <g transform="matrix(0.707071,0,0,1.41429,-21.4524,557.586)">
                        <ellipse cx="2401.13" cy="286.182" rx="35.042" ry="33.206" style="fill:white;stroke:black;stroke-width:3.45px;"/>
                    </g>
                    <g transform="matrix(0.466689,0,0,0.933474,555.733,695.186)">
                        <path d="M2401.13,319.388C2381.79,319.388 2366.08,304.509 2366.08,286.182" style="fill:none;stroke:black;stroke-width:7.83px;"/>
                    </g>
                </g>
                <g transform="matrix(1.20647,-1.4629,0.36565,1.20647,-761.93,1725.92)">
                    <g transform="matrix(0.707071,0,0,1.41429,-21.4524,557.586)">
                        <ellipse cx="2401.13" cy="286.182" rx="35.042" ry="33.206" style="fill:white;stroke:black;stroke-width:2.95px;"/>
                    </g>
                    <g transform="matrix(0.466689,0,0,0.933474,555.733,695.186)">
                        <path d="M2401.13,319.388C2381.79,319.388 2366.08,304.509 2366.08,286.182" style="fill:none;stroke:black;stroke-width:6.71px;"/>
                    </g>
                </g>
            </g>
        </g>
    </g>
</svg>
