<?xml version="1.0" encoding="UTF-8" standalone="no"?>
<!DOCTYPE svg PUBLIC "-//W3C//DTD SVG 1.1//EN" "http://www.w3.org/Graphics/SVG/1.1/DTD/svg11.dtd">
<svg width="100%" height="100%" viewBox="0 0 4961 3508" version="1.1" xmlns="http://www.w3.org/2000/svg" xmlns:xlink="http://www.w3.org/1999/xlink" xml:space="preserve" xmlns:serif="http://www.serif.com/" style="fill-rule:evenodd;clip-rule:evenodd;stroke-linecap:round;stroke-linejoin:round;stroke-miterlimit:1.5;">
    <g id="Artboard1" transform="matrix(2,0,0,1,0,0)">
        <rect x="0" y="0" width="2480.32" height="3507.87" style="fill:none;"/>
        <g id="Move-2" serif:id="Move 2" transform="matrix(0.707143,0,0,0.707071,311.592,145.851)">
            <g id="Face" transform="matrix(0.47302,0,0,0.946137,1296.65,781.771)">
                <g id="Head">
                    <g id="Face1" serif:id="Face">
                        <path d="M1005.85,1109.13C946.898,898.566 1028.64,714.986 1121.17,653.808C1265.48,558.386 1422.41,557.055 1544.31,603.92C1644.52,642.445 1745.6,714.957 1713,974.488C1713,974.488 1779.98,1016.24 1743.34,1073.79C1730.13,1094.54 1710.76,1091.92 1686.58,1100.42C1686.58,1100.42 1681.38,1274.26 1526.19,1322.17C1371,1370.08 1213.32,1300.12 1184.69,1288.82C1089.15,1251.11 1018.71,1155.05 1005.85,1109.13Z" style="fill:white;stroke:black;stroke-width:31.14px;"/>
                        <path d="M1630.8,865.136C1630.8,865.136 1564.94,842.692 1501.08,934.814" style="fill:none;stroke:black;stroke-width:31.14px;"/>
                        <path d="M1630.8,1175.28C1630.8,1175.28 1587.7,1193.73 1544.31,1172.03" style="fill:none;stroke:black;stroke-width:31.14px;"/>
                        <g transform="matrix(0.702592,0,0,1.78655,450.537,-753.144)">
                            <circle cx="1618.33" cy="965.589" r="30.775"/>
                        </g>
                    </g>
                </g>
            </g>
            <g id="_----Hair" serif:id="--- Hair" transform="matrix(0.47302,0,0,0.946137,1296.65,781.771)">
                <path d="M1469.75,858.62C1622.73,788.601 1670.85,690.795 1670.85,690.795C1731.4,731.071 1713.88,836.744 1713.88,836.744C1713.88,836.744 1773.78,800.305 1758.71,686.461C1743.64,572.618 1650.1,498.662 1582.73,467.931C1565.02,459.853 1487.01,419.352 1382.56,394.186C1294.23,372.906 1200.9,378.393 1097.41,374.246C1020.27,371.154 1000.71,359.46 931.759,377.806C860.961,396.645 770.751,408.953 770.751,408.953C770.751,408.953 871.756,420.761 925.454,415.452C974.625,410.591 932.5,450.094 968.316,455.982C1046.97,468.913 1046.77,496.69 1046.77,496.69C1046.77,496.69 1026.13,524.832 970.512,526.279C913.541,527.761 923.282,508.599 865.283,514.133C807.285,519.667 695.387,497.959 695.387,497.959C695.387,497.959 777.455,592.359 830.291,584.678C904.446,573.899 924.583,629.15 924.583,629.15C924.583,629.15 874.959,655.226 835.634,659.09C796.31,662.953 778.417,673.351 737.514,670.908C694.667,668.35 597.043,779.874 597.043,779.874C648.003,810.306 671.157,757.821 741.713,745.082C769.562,740.054 810.944,742.732 841.737,751.171C893.928,765.474 873.227,769.416 905.171,776.801C905.171,776.801 835.094,802.244 794.974,830.975C769.508,849.212 731.149,831.698 695.046,846.417C662.606,859.644 500.976,811.092 500.976,811.092C500.976,811.092 570.29,932.652 605.784,950.08C636.795,965.306 729.89,948.116 765.027,959.551C772.305,961.92 791.889,999.583 791.889,999.583C791.889,999.583 737.494,1010.63 704.639,1029.05C670.032,1048.45 608.785,1171.77 608.785,1171.77C608.785,1171.77 741.329,1107.36 799.306,1102.89C841.258,1099.66 950.425,1056.88 950.425,1056.88C950.425,1056.88 886.891,1174.32 856.121,1212.99C825.154,1251.91 764.62,1290.42 764.62,1290.42C764.62,1290.42 894.609,1223.34 975.84,1201.71C1042.42,1183.99 1060.97,1209.44 1077.39,1220.66C1077.39,1220.66 1155.36,1163.68 1178.49,1109.24" style="fill:white;stroke:black;stroke-width:31.14px;"/>
                <path d="M1551.05,730.622C1551.05,730.622 1576.43,763.844 1410.54,920.904C1410.54,920.904 1434.22,833.234 1425.29,797.963" style="fill:white;stroke:black;stroke-width:31.14px;"/>
                <path d="M1410.54,851.839C1410.54,851.839 1324.54,910.207 1319.65,996.057" style="fill:white;stroke:black;stroke-width:31.14px;"/>
            </g>
            <g id="_----Tail" serif:id="--- Tail" transform="matrix(0.707071,0,0,1.41429,369.463,333.345)">
                <path d="M342.099,1777.7C342.099,1777.7 336.421,1684.56 262.277,1578.3C234.412,1538.36 221.077,1523.06 214.546,1521.92C203.698,1520.02 193.292,1635.68 202.038,1732.09C207.864,1796.3 175.441,1933 143.099,1980.79C112.164,2026.51 23.893,2078.76 33.401,2089.6C47.599,2105.79 176.412,2088.24 214.067,2055.58C264.246,2012.05 351.487,1915.08 385.323,1921.14C464.537,1935.34 682.752,1961.76 794.233,1954.9C1046.87,1939.35 1146.34,1908.36 1284.88,1866.11C1433.01,1820.95 1519.17,1757.72 1568.08,1664.51C1620.88,1563.87 1598.16,1486.14 1562.75,1448.12C1516,1397.9 1383.98,1415.09 1260.1,1403.29C899.726,1368.97 953.835,1473.93 744.486,1625.76C535.136,1777.58 342.099,1777.7 342.099,1777.7Z" style="fill:white;stroke:black;stroke-width:20.83px;"/>
            </g>
            <g id="_----Left-Hand" serif:id="--- Left Hand" transform="matrix(0.148925,0.898021,-0.448965,0.297881,2164.93,648.434)">
                <g transform="matrix(0.966957,0.25494,-0.25494,0.966957,401.638,-217.459)">
                    <path d="M1330.34,2220.27C1330.34,2220.27 1463.45,2252.37 1462.42,2317.06C1461.15,2397.23 1378.61,2355.83 1366.17,2346.57C1366.17,2346.57 1408.08,2416.33 1397.28,2468.04C1385.03,2526.67 1249.13,2583.73 1174.91,2530.6C1100.69,2477.47 1072.83,2386.23 1079.02,2364.85" style="fill:white;stroke:black;stroke-width:31.14px;"/>
                </g>
                <path d="M1011.6,1536.85C1011.6,1536.85 804.556,1756.69 791.419,1939.25C778.281,2121.82 779.253,2349.65 812.836,2367.36C812.836,2367.36 979.424,2351.99 1011.89,2340.15C1037.9,2330.66 1188.52,2301.78 1197.68,2271.37C1197.68,2271.37 1125.5,2149.51 1146.75,2050.68C1164.42,1968.56 1269.96,1865.11 1280.18,1791.13C1290.4,1717.16 1249.69,1640.78 1240.16,1605.4" style="fill:white;stroke:black;stroke-width:31.14px;"/>
            </g>
            <g id="Body" transform="matrix(-0.244482,-0.809964,-0.40494,0.489014,2647.39,2290.78)">
                <path d="M1819.99,2930.56C1819.99,2930.56 1546.56,2833.55 1311.22,2856.94C1148.34,2873.13 920.838,2941.33 721.763,2846.45C721.763,2846.45 643.91,2484.27 701.717,2188.67C729.035,2048.98 914.422,1371.51 986.837,1323.05C1059.25,1274.59 1215.11,1256.11 1414.59,1515.98C1414.59,1515.98 1536.17,1638.4 1576.16,1887.62C1616.14,2136.84 1587.06,2231.96 1647.86,2443.71C1708.65,2655.45 1819.99,2930.56 1819.99,2930.56Z" style="fill:white;stroke:black;stroke-width:31.14px;"/>
                <path d="M1531.97,1699.59C1531.97,1699.59 1502.02,1531.28 1451.7,1466.19C1300.39,1270.47 1128.95,1207.62 1015.02,1215.45C914.351,1222.37 849.086,1322.39 810.865,1453.22C782.657,1549.78 799.59,1771.76 799.59,1771.76C799.59,1771.76 893.695,1493.95 919.934,1458.29C955.988,1409.29 997.904,1384.13 1051.81,1372.83C1102.89,1362.12 1184.64,1376.47 1334.41,1488.52C1461.73,1583.76 1531.97,1699.59 1531.97,1699.59Z" style="fill:white;stroke:black;stroke-width:31.14px;"/>
            </g>
            <g id="_----Right-Hand" serif:id="--- Right Hand" transform="matrix(0.37501,0.576656,-0.288298,0.750096,1649.3,295.206)">
                <g transform="matrix(0.609484,0.792798,-0.792798,0.609484,2051.16,-55.7453)">
                    <path d="M1330.34,2220.27C1330.34,2220.27 1463.45,2252.37 1462.42,2317.06C1461.15,2397.23 1378.61,2355.83 1366.17,2346.57C1366.17,2346.57 1408.08,2416.33 1397.28,2468.04C1385.03,2526.67 1249.13,2583.73 1174.91,2530.6C1100.69,2477.47 1072.83,2386.23 1079.02,2364.85" style="fill:white;stroke:black;stroke-width:31.14px;"/>
                </g>
                <path d="M1011.6,1536.85C1011.6,1536.85 864.822,1752.35 851.684,1934.91C838.546,2117.48 767.333,2236.07 800.915,2253.77C800.915,2253.77 960.219,2345.76 994.683,2348.36C1023.24,2350.51 1137.22,2377.33 1146.38,2346.92C1146.38,2346.92 1188.56,2226.92 1209.81,2128.09C1227.48,2045.97 1269.96,1865.11 1280.18,1791.13C1290.4,1717.16 1249.69,1640.78 1240.16,1605.4" style="fill:white;stroke:black;stroke-width:31.14px;"/>
            </g>
            <g id="Goggles" transform="matrix(1,0,0,1,0,506.679)">
                <g transform="matrix(0.92275,-0.770877,0.19268,0.92275,366.794,1156.64)">
                    <g transform="matrix(0.601324,0,0,1.71404,-239.569,-257.981)">
                        <rect x="2657.32" y="466.224" width="71.781" height="439.786" style="fill:white;stroke:black;stroke-width:19.9px;"/>
                    </g>
                    <g transform="matrix(3.68205e-17,-1.20277,0.130862,1.60276e-17,1354.88,4606.22)">
                        <rect x="2657.32" y="466.224" width="71.781" height="439.786" style="fill:white;stroke:black;stroke-width:33.85px;"/>
                    </g>
                    <g transform="matrix(0.801765,0,0,1.60369,-772.206,-42.8953)">
                        <path d="M2657.32,834.229L2657.32,364.183L2711.16,364.183L2711.16,834.229C2711.16,844.133 2719.2,852.174 2729.1,852.174L2800.88,852.174L2800.88,906.009L2729.1,906.009C2689.49,906.009 2657.32,873.845 2657.32,834.229Z" style="fill:white;stroke:black;stroke-width:18.37px;"/>
                    </g>
                </g>
                <g transform="matrix(0.824361,0,0,1.64889,685.441,144.682)">
                    <path d="M1772.38,675.516C1753.43,729.105 1703.49,767.416 1644.92,767.416C1570.08,767.416 1509.32,704.851 1509.32,627.789C1509.32,550.727 1570.08,488.163 1644.92,488.163L1795.43,488.163L1795.43,675.516L1772.38,675.516ZM1644.92,544.67C1600.37,544.67 1564.2,581.914 1564.2,627.789C1564.2,673.664 1600.37,710.909 1644.92,710.909C1672.23,710.909 1696.39,696.914 1711,675.516C1720.23,662.005 1725.64,645.544 1725.64,627.789C1725.64,624.824 1725.49,621.894 1725.2,619.009L1769.33,619.009L1769.33,544.67L1644.92,544.67Z" style="fill:white;stroke:black;stroke-width:17.87px;"/>
                </g>
            </g>
            <g id="_----Bubble" serif:id="--- Bubble">
                <g transform="matrix(1,0,0,1,33.7844,12.6423)">
                    <g transform="matrix(0.707071,0,0,1.41429,-21.4524,557.586)">
                        <ellipse cx="2401.13" cy="286.182" rx="35.042" ry="33.206" style="fill:white;stroke:black;stroke-width:4.17px;"/>
                    </g>
                    <g transform="matrix(0.466689,0,0,0.933474,555.733,695.186)">
                        <path d="M2401.13,319.388C2381.79,319.388 2366.08,304.509 2366.08,286.182" style="fill:none;stroke:black;stroke-width:9.47px;"/>
                    </g>
                </g>
                <g transform="matrix(0.519402,1.70923,-0.427221,0.519402,1151.63,-2485.91)">
                    <g transform="matrix(0.707071,0,0,1.41429,-21.4524,557.586)">
                        <ellipse cx="2401.13" cy="286.182" rx="35.042" ry="33.206" style="fill:white;stroke:black;stroke-width:4.17px;"/>
                    </g>
                    <g transform="matrix(0.466689,0,0,0.933474,555.733,695.186)">
                        <path d="M2401.13,319.388C2381.79,319.388 2366.08,304.509 2366.08,286.182" style="fill:none;stroke:black;stroke-width:9.47px;"/>
                    </g>
                </g>
                <g transform="matrix(1.05828,-1.33104,0.332693,1.05828,-414.587,1961.29)">
                    <g transform="matrix(0.707071,0,0,1.41429,-21.4524,557.586)">
                        <ellipse cx="2401.13" cy="286.182" rx="35.042" ry="33.206" style="fill:white;stroke:black;stroke-width:3.33px;"/>
                    </g>
                    <g transform="matrix(0.466689,0,0,0.933474,555.733,695.186)">
                        <path d="M2401.13,319.388C2381.79,319.388 2366.08,304.509 2366.08,286.182" style="fill:none;stroke:black;stroke-width:7.57px;"/>
                    </g>
                </g>
                <g transform="matrix(1.14341,0.783532,-0.195843,1.14341,-48.3834,-1860.01)">
                    <g transform="matrix(0.707071,0,0,1.41429,-21.4524,557.586)">
                        <ellipse cx="2401.13" cy="286.182" rx="35.042" ry="33.206" style="fill:white;stroke:black;stroke-width:3.45px;"/>
                    </g>
                    <g transform="matrix(0.466689,0,0,0.933474,555.733,695.186)">
                        <path d="M2401.13,319.388C2381.79,319.388 2366.08,304.509 2366.08,286.182" style="fill:none;stroke:black;stroke-width:7.83px;"/>
                    </g>
                </g>
                <g transform="matrix(1.29522,1.11879,-0.279641,1.29522,-325.598,-2634.95)">
                    <g transform="matrix(0.707071,0,0,1.41429,-21.4524,557.586)">
                        <ellipse cx="2401.13" cy="286.182" rx="35.042" ry="33.206" style="fill:white;stroke:black;stroke-width:2.95px;"/>
                    </g>
                    <g transform="matrix(0.466689,0,0,0.933474,555.733,695.186)">
                        <path d="M2401.13,319.388C2381.79,319.388 2366.08,304.509 2366.08,286.182" style="fill:none;stroke:black;stroke-width:6.71px;"/>
                    </g>
                </g>
            </g>
        </g>
    </g>
</svg>
