<?xml version="1.0" encoding="UTF-8" standalone="no"?>
<!DOCTYPE svg PUBLIC "-//W3C//DTD SVG 1.1//EN" "http://www.w3.org/Graphics/SVG/1.1/DTD/svg11.dtd">
<svg width="100%" height="100%" viewBox="0 0 2481 3508" version="1.1" xmlns="http://www.w3.org/2000/svg" xmlns:xlink="http://www.w3.org/1999/xlink" xml:space="preserve" xmlns:serif="http://www.serif.com/" style="fill-rule:evenodd;clip-rule:evenodd;stroke-linecap:round;stroke-linejoin:round;stroke-miterlimit:1.5;">
    <g id="Move-4" serif:id="Move 4" transform="matrix(1,0,0,1,25.0887,2.27374e-13)">
        <g id="Fix" transform="matrix(1,0,0,1,-73.3548,-37.9255)">
            <g id="Face">
                <path d="M1447.32,1364.76C1475.23,1407.42 1480.33,1474.76 1461.95,1545.58C1461.95,1545.58 1376.95,1347.44 1334.41,1290.38C1334.41,1290.38 1419.41,1322.11 1447.32,1364.76Z" style="fill:white;stroke:black;stroke-width:20.83px;"/>
                <path d="M1675.67,654.584C1675.67,654.584 1745.6,714.957 1713,974.488C1713,974.488 1779.98,1016.24 1743.34,1073.79C1730.13,1094.54 1710.76,1091.92 1686.58,1100.42C1686.58,1100.42 1681.38,1274.26 1526.19,1322.17C1371,1370.08 1212.36,1302.29 1184.69,1288.82C1131.96,1263.16 1074.87,1197.16 1074.87,1197.16" style="fill:white;stroke:black;stroke-width:20.83px;"/>
                <path d="M1630.8,865.136C1630.8,865.136 1564.94,842.692 1501.08,934.814" style="fill:none;stroke:black;stroke-width:20.83px;"/>
                <path d="M1630.8,1175.28C1630.8,1175.28 1587.7,1193.73 1544.31,1172.03" style="fill:none;stroke:black;stroke-width:20.83px;"/>
                <g transform="matrix(0.702592,0,0,1.78655,450.537,-753.144)">
                    <circle cx="1618.33" cy="965.589" r="30.775"/>
                </g>
            </g>
            <g id="Hair">
                <path d="M1469.75,858.62C1622.73,788.601 1670.85,690.795 1670.85,690.795C1731.4,731.071 1713.88,836.744 1713.88,836.744C1713.88,836.744 1773.78,800.305 1758.71,686.461C1743.64,572.618 1648.06,535.127 1608.55,522.745C1569.03,510.363 1273.4,471.652 1031.48,587.575C1031.48,587.575 920.051,601.903 943.284,920.904C943.284,920.904 942.001,1018.52 1074.87,1197.16C1074.87,1197.16 1155.36,1163.68 1178.49,1109.24" style="fill:white;stroke:black;stroke-width:20.83px;"/>
                <path d="M1551.05,730.622C1551.05,730.622 1576.43,763.844 1410.54,920.904C1410.54,920.904 1434.22,833.234 1425.29,797.963" style="fill:white;stroke:black;stroke-width:20.83px;"/>
                <path d="M1410.54,851.839C1410.54,851.839 1324.54,910.207 1319.65,996.057" style="fill:white;stroke:black;stroke-width:20.83px;"/>
            </g>
            <g id="Hat">
                <path d="M954.665,720.98L1572.26,489.427C1572.26,489.427 1772.54,408.558 1926.34,484.58C1926.34,484.58 1886.24,473.5 1790.38,508.924C1694.52,544.348 1595.96,643.301 1413.98,720.98C1231.99,798.66 968.901,880.749 859.527,853.164C832.8,846.424 698.35,810.179 757.268,781.872C762.83,779.199 866.059,799.171 908.459,776.569C950.86,753.967 954.665,720.98 954.665,720.98Z" style="fill:white;stroke:black;stroke-width:20.83px;"/>
                <g transform="matrix(1,0,0,1,115.224,-90.6795)">
                    <path d="M780.731,607.204C865.583,671.692 788.983,913.119 788.983,913.119C788.983,913.119 1296.31,755.03 1510.09,626.527C1510.09,626.527 1448.08,438.375 1304.26,406.974C1079.15,326.548 1037.44,407.207 931.261,390.061C779.738,365.592 720.504,383.425 543.371,562.559C500.993,605.415 693.535,540.934 780.731,607.204Z" style="fill:white;stroke:black;stroke-width:20.83px;"/>
                </g>
                <g transform="matrix(1,0,0,0.986173,109.657,-51.083)">
                    <circle cx="512.777" cy="553.589" r="57.128" style="fill:white;stroke:black;stroke-width:20.98px;"/>
                </g>
                <path d="M929.025,720.98C929.025,720.98 1391.79,609.281 1572.26,458.904" style="fill:none;stroke:black;stroke-width:20.83px;"/>
            </g>
            <g id="Ear">
                <g transform="matrix(1,0,0,1,88.5907,-2.44522)">
                    <path d="M1245.82,1034.11C1245.82,1034.11 1184.36,881.344 945.197,824.885C871.633,807.518 807.476,772.916 765.957,763.338C743.222,758.094 722.283,754.809 696.081,767.42C674.332,777.888 837.305,1070.67 1150.1,1127.08" style="fill:white;stroke:black;stroke-width:20.83px;"/>
                </g>
                <g transform="matrix(1,0,0,1,20.0513,17.4612)">
                    <path d="M1230.51,1009.46C1230.51,1009.46 1243.09,908.227 899.883,810.149" style="fill:none;stroke:black;stroke-width:20.83px;"/>
                </g>
            </g>
            <g id="hoodie">
                <g transform="matrix(1,0,0,1,-133.042,-309.605)">
                    <path d="M2081.91,2237.11C2082.72,2273.12 2081.73,2309.8 2077.84,2344.69" style="fill:none;stroke:black;stroke-width:20.83px;"/>
                </g>
                <g transform="matrix(1,0,0,1,-11.4629,-39.4065)">
                    <path d="M1934.86,1717.28C1934.86,1717.28 1896.83,1979.97 1956.26,2091.63C1956.26,2091.63 1578.29,2199.76 1472.78,2078.67C1367.27,1957.59 1417.12,1541.23 1417.12,1541.23C1417.12,1541.23 1456.11,1666.75 1610.5,1774.12C1610.5,1774.12 1628.74,1804.47 1702.15,1776.37C1775.56,1748.27 1934.86,1717.28 1934.86,1717.28Z" style="fill:white;stroke:black;stroke-width:20.83px;"/>
                </g>
                <g transform="matrix(1,0,0,1,-11.4629,-39.4065)">
                    <path d="M1649.32,1882.28C1649.32,1882.28 1630.29,1860.11 1632.67,1784.16" style="fill:none;stroke:black;stroke-width:20.83px;"/>
                </g>
                <path d="M1730.26,2644.21C1730.26,2644.21 1115.34,2966.49 506.415,2509.21C506.415,2509.21 637.175,2315.87 676.285,2179.01C715.395,2042.16 914.422,1371.51 986.837,1323.05C1059.25,1274.59 1215.11,1256.11 1414.59,1515.98C1414.59,1515.98 1536.17,1638.4 1576.16,1887.62C1616.14,2136.84 1597.69,2122.76 1658.49,2334.51C1719.28,2546.26 1730.26,2644.21 1730.26,2644.21Z" style="fill:white;stroke:black;stroke-width:20.83px;"/>
                <path d="M1531.97,1699.59C1531.97,1699.59 1489.98,1508.44 1451.7,1466.19C1133.79,1115.33 919.934,1146.08 919.934,1146.08C919.934,1146.08 791.847,1211.72 782.744,1408.57C778.096,1509.05 875.852,1603.75 875.852,1603.75C875.852,1603.75 899.363,1497.49 919.934,1458.29C938.466,1422.97 976.547,1381.15 1030.45,1369.85C1081.53,1359.14 1184.64,1376.47 1334.41,1488.52C1461.73,1583.76 1531.97,1699.59 1531.97,1699.59Z" style="fill:white;stroke:black;stroke-width:20.83px;"/>
            </g>
            <g id="left-hand" serif:id="left hand">
                <path d="M1924.54,1940.71C1924.54,1940.71 1910.51,1874.21 1909.63,1843.08C1908.6,1806.43 1918.35,1720.79 1918.35,1720.79C1918.35,1720.79 2038.65,1706.46 2066.23,1690.07C2093.82,1673.68 2172.58,1677.65 2204.57,1712.04C2228.39,1737.65 2266.97,1828.83 2219.11,1871.77C2192.03,1896.06 2164.57,1880.75 2164.57,1880.75" style="fill:white;stroke:black;stroke-width:20.83px;"/>
                <g transform="matrix(1,0,0,1,5.54477,-0.824205)">
                    <path d="M1925.97,1941.53C1932.7,1917.74 2007.98,1908.17 2030.43,1930.34C2046.32,1946.02 2178.46,1948.26 2156.44,1884.77C2149.9,1865.89 2093.87,1877.25 2074.51,1856.04C2035.79,1813.62 2095.41,1778.71 2114.99,1787.75" style="fill:white;stroke:black;stroke-width:20.83px;"/>
                </g>
            </g>
        </g>
        <g id="Bag" transform="matrix(1,0,0,1,-73.3548,-38.9255)">
            <path d="M941.233,1443.18C941.233,1443.18 819.884,1679.91 608.898,1925.66C397.911,2171.41 364.885,2086.28 394.337,2219.18C423.79,2352.08 689.782,2533.74 877.464,2544.86C1065.15,2555.98 1245.42,2497.15 1273.91,2446.39C1302.4,2395.63 1252.88,2043.9 1273.91,1960.74C1294.94,1877.58 1327.94,1578.27 1296.95,1533.06C1265.95,1487.84 1164.56,1277.02 941.233,1443.18Z" style="fill:white;stroke:black;stroke-width:20.83px;"/>
            <path d="M1118.34,1420.11C1066.04,1415.39 1011.76,1420.41 945.391,1508.55C879.017,1596.69 787.948,1880.53 781.225,1963.29C774.502,2046.04 805.576,2092.55 832.556,2106.3C859.536,2120.05 1141.99,2147.03 1199.91,2083.49C1257.84,2019.95 1293.31,1615.11 1259.16,1536.85C1225.01,1458.6 1170.63,1424.83 1118.34,1420.11Z" style="fill:none;stroke:black;stroke-width:20.83px;"/>
        </g>
        <g id="Moved" transform="matrix(1,0,0,1,-73.3548,-38.9255)">
            <g id="Left-leg" serif:id="Left leg" transform="matrix(0.938448,0.02226,-0.02226,0.938448,126.343,190.757)">
                <path d="M1302.3,2698.1C1295.66,2674.14 1342.55,2787.88 1360.56,2874.55C1368.61,2913.28 1394.51,2974.61 1419.64,3031.79L1630.61,2958.09L1580.25,2651.77C1513.32,2667.27 1520.25,2682.93 1302.3,2698.1Z" style="fill:white;stroke:black;stroke-width:22.19px;"/>
                <path d="M1378.72,2957.74C1378.72,2957.74 1456.79,3291.32 1523.2,3304.07C1589.61,3316.83 1781.76,3277.63 1880.04,3212.43C1994.82,3136.3 2026.77,3061.28 1993.68,3036.56C1939.58,2996.15 1837.14,3039.75 1773.92,3038.62C1725.62,3037.75 1674.06,3023.81 1660.01,2988.7C1645.96,2953.59 1636.38,2890.63 1639.02,2867.95C1639.02,2867.95 1484.51,2877.84 1378.72,2957.74Z" style="fill:white;stroke:black;stroke-width:22.19px;"/>
                <g transform="matrix(1,0,0,1,-66.9551,28.7098)">
                    <path d="M2072.66,3020.44C2072.66,3020.44 1925.91,3225.08 1569.24,3253.39" style="fill:white;stroke:black;stroke-width:22.19px;"/>
                </g>
            </g>
            <g id="Right-Hand" serif:id="Right Hand" transform="matrix(0.884347,-0.46683,0.46683,0.884347,-622.275,720.815)">
                <g transform="matrix(1,0,0,1,-18.0681,-44.2604)">
                    <path d="M1330.34,2220.27C1330.34,2220.27 1463.45,2252.37 1462.42,2317.06C1461.15,2397.23 1378.61,2355.83 1366.17,2346.57C1366.17,2346.57 1408.08,2416.33 1397.28,2468.04C1385.03,2526.67 1249.13,2583.73 1174.91,2530.6C1100.69,2477.47 1072.83,2386.23 1079.02,2364.85" style="fill:white;stroke:black;stroke-width:20.83px;"/>
                </g>
                <path d="M1011.6,1536.85C1011.6,1536.85 864.822,1752.35 851.684,1934.91C838.546,2117.48 856.813,2111.39 875.741,2165.71C894.669,2220.03 1007.35,2347.14 1040.93,2364.85C1040.93,2364.85 1180.19,2257.16 1211.94,2243.5C1243.69,2229.85 1338.94,2182.47 1348.1,2152.06C1348.1,2152.06 1253.3,2053.34 1240.16,2003.67C1227.01,1954.01 1263.69,1827.91 1273.91,1753.94C1284.13,1679.96 1249.69,1640.78 1240.16,1605.4" style="fill:white;stroke:black;stroke-width:20.83px;"/>
            </g>
            <g id="Right-leg" serif:id="Right leg" transform="matrix(0.574482,0.818517,-0.818517,0.574482,2249.59,-118.85)">
                <path d="M1374.61,2839.89C1393.47,2832.93 1393.09,2920.28 1419.64,3031.79L1630.61,2958.09C1630.61,2958.09 1614.26,2856.58 1597.23,2776.52C1589.02,2737.95 1563.36,2729.01 1556.59,2714.16C1556.59,2714.16 1517.67,2745.42 1484.45,2770.48C1452.58,2794.53 1374.61,2839.89 1374.61,2839.89Z" style="fill:white;stroke:black;stroke-width:20.83px;"/>
                <path d="M1378.72,2957.74C1378.72,2957.74 1456.79,3291.32 1523.2,3304.07C1589.61,3316.83 1764.45,3256.16 1862.74,3190.97C1977.51,3114.84 1982.21,3046.59 1949.13,3021.88C1895.02,2981.46 1820.37,3025.33 1773.92,3038.62C1727.47,3051.9 1674.06,3023.81 1660.01,2988.7C1645.96,2953.59 1636.38,2890.63 1639.02,2867.95C1639.02,2867.95 1484.51,2877.84 1378.72,2957.74Z" style="fill:white;stroke:black;stroke-width:20.83px;"/>
                <g transform="matrix(1,0,0,1,-66.9551,28.7098)">
                    <path d="M2033.9,3019.1C2033.9,3019.1 1924.39,3188.79 1569.24,3253.39" style="fill:white;stroke:black;stroke-width:20.83px;"/>
                </g>
            </g>
            <g id="Lamp" transform="matrix(0.977175,-0.212436,0.212436,0.977175,-338.327,493.291)">
                <g transform="matrix(1,0,0,0.837406,0,270.307)">
                    <path d="M2164.45,1833.93L2164.45,2065.49C2164.45,2078.3 2155.75,2088.7 2145.02,2088.7L2106.16,2088.7C2095.43,2088.7 2086.73,2078.3 2086.73,2065.49L2086.73,1833.93C2086.73,1821.13 2095.43,1810.73 2106.16,1810.73L2145.02,1810.73C2155.75,1810.73 2164.45,1821.13 2164.45,1833.93Z" style="fill:white;stroke:black;stroke-width:22.59px;"/>
                </g>
                <g transform="matrix(0.869673,0,0,0.655541,289.458,633.161)">
                    <path d="M2225.16,2265.73L1997.42,2265.73L2054.36,2114.65L2168.23,2114.65L2225.16,2265.73Z" style="fill:white;stroke:black;stroke-width:27.05px;"/>
                </g>
                <g transform="matrix(-0.869673,1.06504e-16,-3.2266e-17,-0.263472,3961.72,3030.1)">
                    <path d="M2225.16,2265.73L1997.42,2265.73L2054.36,2114.65L2168.23,2114.65L2225.16,2265.73Z" style="fill:white;stroke:black;stroke-width:32.42px;"/>
                </g>
                <g transform="matrix(1,0,0,1,4.54747e-13,-31.0596)">
                    <path d="M2224.62,2199.01L2224.62,2414.69C2224.62,2442.02 2202.44,2464.2 2175.11,2464.2L2076.07,2464.2C2048.75,2464.2 2026.56,2442.02 2026.56,2414.69L2026.56,2199.01C2026.56,2171.69 2048.75,2149.5 2076.07,2149.5L2175.11,2149.5C2202.44,2149.5 2224.62,2171.69 2224.62,2199.01Z" style="fill:white;stroke:black;stroke-width:20.83px;"/>
                </g>
                <g transform="matrix(1,0,0,0.53344,0,917.179)">
                    <circle cx="2125.59" cy="2066.25" r="52.031" style="fill:white;stroke:black;stroke-width:26px;"/>
                </g>
            </g>
        </g>
    </g>
</svg>
