<?xml version="1.0" encoding="UTF-8" standalone="no"?>
<!DOCTYPE svg PUBLIC "-//W3C//DTD SVG 1.1//EN" "http://www.w3.org/Graphics/SVG/1.1/DTD/svg11.dtd">
<svg width="100%" height="100%" viewBox="0 0 2481 3508" version="1.1" xmlns="http://www.w3.org/2000/svg" xmlns:xlink="http://www.w3.org/1999/xlink" xml:space="preserve" xmlns:serif="http://www.serif.com/" style="fill-rule:evenodd;clip-rule:evenodd;stroke-linecap:round;stroke-linejoin:round;stroke-miterlimit:1.5;">
    <g id="Move-5" serif:id="Move 5" transform="matrix(0.975551,0,0,0.975551,165.645,106.223)">
        <g id="Move-1" serif:id="Move 1" transform="matrix(0.759984,0,0,0.759984,418.487,143.173)">
            <g id="left-hand" serif:id="left hand" transform="matrix(1,0,0,1,-48.266,-37.9255)">
                <path d="M1924.54,1940.71C1924.54,1940.71 1910.51,1874.21 1909.63,1843.08C1908.6,1806.43 1918.35,1720.79 1918.35,1720.79C1918.35,1720.79 2038.65,1706.46 2066.23,1690.07C2093.82,1673.68 2172.58,1677.65 2204.57,1712.04C2228.39,1737.65 2266.97,1828.83 2219.11,1871.77C2192.03,1896.06 2164.57,1880.75 2164.57,1880.75" style="fill:white;stroke:black;stroke-width:22.48px;"/>
                <g transform="matrix(1,0,0,1,5.54477,-0.824205)">
                    <path d="M1925.97,1941.53C1932.7,1917.74 2007.98,1908.17 2030.43,1930.34C2046.32,1946.02 2178.46,1948.26 2156.44,1884.77C2149.9,1865.89 2093.87,1877.25 2074.51,1856.04C2035.79,1813.62 2095.41,1778.71 2114.99,1787.75" style="fill:white;stroke:black;stroke-width:22.48px;"/>
                </g>
            </g>
            <g id="Lamp" transform="matrix(0.936249,-0.351338,0.351338,0.936249,-552.517,824.255)">
                <g transform="matrix(1,0,0,0.837406,0,270.307)">
                    <path d="M2164.45,1833.93L2164.45,2065.49C2164.45,2078.3 2155.75,2088.7 2145.02,2088.7L2106.16,2088.7C2095.43,2088.7 2086.73,2078.3 2086.73,2065.49L2086.73,1833.93C2086.73,1821.13 2095.43,1810.73 2106.16,1810.73L2145.02,1810.73C2155.75,1810.73 2164.45,1821.13 2164.45,1833.93Z" style="fill:white;stroke:black;stroke-width:24.37px;"/>
                </g>
                <g transform="matrix(0.869673,0,0,0.655541,289.458,633.161)">
                    <path d="M2225.16,2265.73L1997.42,2265.73L2054.36,2114.65L2168.23,2114.65L2225.16,2265.73Z" style="fill:white;stroke:black;stroke-width:29.19px;"/>
                </g>
                <g transform="matrix(0.869591,0.0119667,-0.00192098,0.139593,292.999,2113.37)">
                    <path d="M2225.16,2265.73L1997.42,2265.73L2011.73,2114.65L2210.86,2114.65L2225.16,2265.73Z" style="fill:white;stroke:black;stroke-width:36.09px;"/>
                </g>
                <g transform="matrix(0.929947,0.0127973,-0.01376,0.999905,226.119,12.6064)">
                    <path d="M2197.59,2423.13L2197.59,2437.48C2197.59,2441.44 2194.13,2444.66 2189.87,2444.66L1964.63,2444.66C1960.37,2444.66 1956.91,2441.44 1956.91,2437.48L1956.91,2423.13C1956.91,2419.17 1960.37,2415.95 1964.63,2415.95L2189.87,2415.95C2194.13,2415.95 2197.59,2419.17 2197.59,2423.13Z" style="fill:white;stroke:black;stroke-width:23.28px;"/>
                </g>
                <g transform="matrix(1,0,0,1,4.54747e-13,-31.0596)">
                    <path d="M2224.62,2199.01L2224.62,2414.69C2224.62,2442.02 2202.44,2464.2 2175.11,2464.2L2076.07,2464.2C2048.75,2464.2 2026.56,2442.02 2026.56,2414.69L2026.56,2199.01C2026.56,2171.69 2048.75,2149.5 2076.07,2149.5L2175.11,2149.5C2202.44,2149.5 2224.62,2171.69 2224.62,2199.01Z" style="fill:white;stroke:black;stroke-width:22.48px;"/>
                </g>
                <g transform="matrix(1,0,0,0.53344,0,917.179)">
                    <circle cx="2125.59" cy="2066.25" r="52.031" style="fill:white;stroke:black;stroke-width:28.05px;"/>
                </g>
            </g>
            <g id="left-leg" serif:id="left leg" transform="matrix(1.11352,0.70104,-0.70104,1.11352,1416.24,-679.751)">
                <g id="Shoe" transform="matrix(0.99984,-0.0179115,0.0179115,0.99984,-185.334,133.637)">
                    <path d="M1240.16,3142.42L1382.82,3146.2L1387.27,3127.92C1387.27,3127.92 1481.16,3138.12 1668.7,3106.79L1668.7,3065.13L1240.16,3087.72C1240.16,3087.72 1236.1,3113.93 1240.16,3142.42Z" style="fill:white;stroke:black;stroke-width:17.08px;"/>
                    <g transform="matrix(1,0,0,1,-16.756,-198.824)">
                        <path d="M1240.16,3081.21C1240.16,3081.21 1224.73,3215.65 1256.91,3295.12C1256.91,3295.12 1297.17,3303.29 1381.88,3302.5C1496.88,3301.42 1594.61,3293.81 1685.45,3265.09C1685.45,3265.09 1684.88,3212.64 1666.82,3198.13C1648,3183.01 1611.68,3171.53 1576.83,3173.46C1514.42,3176.91 1508,3188.78 1476.82,3176.05C1438.29,3160.33 1440.85,3109.82 1431.75,3059.64C1431.75,3059.64 1367.06,3038.45 1240.16,3081.21Z" style="fill:white;stroke:black;stroke-width:17.08px;"/>
                    </g>
                </g>
                <g transform="matrix(0.962449,-0.271462,0.271462,0.962449,-624.546,385.056)">
                    <path d="M1066.26,2159.47C1066.26,2159.47 1223.62,2467.96 1262.24,2624.9C1295.6,2760.5 1153.02,3018.19 1153.02,3018.19L925.98,2982.45C925.98,2982.45 1066.64,2727.31 1032.96,2595.1C1002.12,2474 840.739,2243.89 840.739,2243.89L1066.26,2159.47Z" style="fill:white;stroke:black;stroke-width:17.08px;"/>
                </g>
            </g>
            <g id="Right-leg" serif:id="Right leg" transform="matrix(1.28179,0.297288,-0.297288,1.28179,225.119,-343.138)">
                <g id="Shoe1" serif:id="Shoe" transform="matrix(0.981298,-0.192496,0.192496,0.981298,-453.744,283.363)">
                    <path d="M1240.16,3142.42L1382.82,3146.2L1387.27,3127.92C1387.27,3127.92 1481.16,3138.12 1668.7,3106.79L1668.7,3065.13L1240.16,3087.72C1240.16,3087.72 1236.1,3113.93 1240.16,3142.42Z" style="fill:white;stroke:black;stroke-width:17.08px;"/>
                    <g transform="matrix(1,0,0,1,-16.756,-198.824)">
                        <path d="M1240.16,3081.21C1240.16,3081.21 1224.73,3215.65 1256.91,3295.12C1256.91,3295.12 1297.17,3303.29 1381.88,3302.5C1496.88,3301.42 1594.61,3293.81 1685.45,3265.09C1685.45,3265.09 1684.88,3212.64 1666.82,3198.13C1648,3183.01 1611.68,3171.53 1576.83,3173.46C1514.42,3176.91 1508,3188.78 1476.82,3176.05C1438.29,3160.33 1440.85,3109.82 1431.75,3059.64C1431.75,3059.64 1367.06,3038.45 1240.16,3081.21Z" style="fill:white;stroke:black;stroke-width:17.08px;"/>
                    </g>
                </g>
                <g transform="matrix(0.989153,0.146891,-0.146891,0.989153,189.268,-98.0203)">
                    <path d="M1297.74,1944.21C1297.74,1944.21 1427.81,2080.29 1509.96,2222.71C1579.73,2343.67 1746.83,2706.6 1746.83,2706.6L1523.22,2815.76C1523.22,2815.76 1357.02,2471.1 1291.22,2351.58C1236.01,2251.32 1123.97,2053.18 1123.97,2053.18L1297.74,1944.21Z" style="fill:white;stroke:black;stroke-width:17.08px;"/>
                </g>
            </g>
        </g>
        <g id="Fix" transform="matrix(0.819237,0,0,0.819237,351.97,202.855)">
            <g id="left-hand1" serif:id="left hand" transform="matrix(1,0,0,1,-58.7113,-136.508)">
                <path d="M1268.7,1397.55C1268.7,1397.55 1364.62,1425.27 1447.32,1508.98C1481.51,1543.58 1518.59,1598.58 1555.13,1627.5C1555.13,1627.5 1791.32,1594.23 1883.19,1604.55C1883.19,1604.55 1846.7,1697.33 1880.5,1847.32C1880.5,1847.32 1656.48,1899.48 1545,1879.68C1514.22,1874.22 1486.93,1851.3 1463.21,1834.28C1427.18,1808.43 1352.75,1727.05 1352.75,1727.05L1268.7,1397.55Z" style="fill:white;stroke:black;stroke-width:20.85px;"/>
                <path d="M1549.54,1632.57C1549.54,1632.57 1544.74,1665.88 1548.18,1698.11" style="fill:none;stroke:black;stroke-width:20.85px;"/>
                <path d="M1555.13,1627.5C1555.13,1627.5 1532.54,1621.55 1526.59,1691.28" style="fill:none;stroke:black;stroke-width:20.85px;"/>
            </g>
            <g transform="matrix(0.406452,0,0,0.406452,1251.38,935.409)">
                <circle cx="1266.7" cy="1840.59" r="39.096"/>
            </g>
            <path d="M1355.52,1104.62C1355.52,1104.62 1261.06,989.174 901.542,939.252L996.728,2170.75L1467.29,2034.68C1467.29,2034.68 1430.58,1966.64 1431.25,1848.98C1432.47,1634.12 1374.68,1363.05 1240.16,1269.29L1355.52,1104.62Z" style="fill:white;stroke:black;stroke-width:20.85px;"/>
            <g id="Head" transform="matrix(0.764186,0,0,0.764186,262.415,41.1407)">
                <g transform="matrix(1,0,0,1,-34.0112,-360.378)">
                    <path d="M1130.17,985.922C1367.26,985.922 1443.84,1104.02 1456.89,1326.7C1458.03,1346.2 1542.97,1448.59 1542.97,1469.11C1542.97,1498.42 1459.12,1512.05 1454.75,1540.36C1443.5,1613.36 1429.53,1647.7 1393.75,1690.98C1322.73,1776.86 1207.46,1795.29 1055.72,1795.29C797.869,1795.29 696.988,1605.56 696.988,1350.72C696.988,1095.88 872.319,985.922 1130.17,985.922Z" style="fill:white;stroke:black;stroke-width:27.29px;"/>
                </g>
                <g transform="matrix(1,0,0,1,37.3414,-35.0044)">
                    <path d="M1071.5,988.983C1071.5,988.983 1083,937.492 1141.1,925.077C1199.19,912.661 1268.43,952.132 1334.13,924.772" style="fill:none;stroke:black;stroke-width:27.29px;"/>
                </g>
                <g transform="matrix(0.0708496,0.658904,-0.994269,0.10691,2125.75,87.4518)">
                    <ellipse cx="1223.99" cy="979.37" rx="90.587" ry="23.586"/>
                </g>
                <path d="M936.584,1030.23C936.584,1030.23 883.295,1000.46 903.876,1077.55" style="fill:none;stroke:black;stroke-width:27.29px;"/>
                <path d="M1168.6,1266.95C1168.6,1266.95 1305.37,1279.11 1364.85,1265.5" style="fill:none;stroke:black;stroke-width:27.29px;"/>
                <path d="M1266.72,606.239C1266.72,606.239 1402.34,665.183 1422.89,798.415C1422.89,798.415 1341.71,724.084 1266.72,708.414C1266.72,708.414 1294.03,720.624 1307.04,795.807C1320.04,870.99 1269.98,745.474 1168.6,715.699C1168.6,715.699 1097.35,714.612 1058.17,887.582C1058.17,887.582 1027.62,802.888 1047.29,759.782C1047.29,759.782 994.61,835.715 989.168,938.907C983.726,1042.1 974.903,1030.23 974.903,1030.23C974.903,1030.23 925.648,923.706 878.586,981.842C831.523,1039.98 862.092,1119.26 905.366,1110.35C905.366,1110.35 918.159,1283.28 785.065,1395.62C785.065,1395.62 697.965,1351.17 662.977,1112.52C662.977,1112.52 650.516,1164.56 662.977,1223.56C662.977,1223.56 600.094,1093.53 645.466,887.582L610.191,920.781C610.191,920.781 647.156,771.859 742.185,675.157C814.978,601.081 1019.82,550.244 1266.72,606.239Z" style="fill:white;stroke:black;stroke-width:27.29px;"/>
            </g>
            <g id="Hat" transform="matrix(0.825106,0,0,0.825106,75.8865,-92.4784)">
                <g transform="matrix(0.984022,-0.178048,0.178048,0.984022,-146.695,74.0475)">
                    <path d="M1187.92,935.14C1493.15,935.14 1705.49,995.346 1705.49,1031.24C1705.49,1067.13 1509.82,1027.87 1181.16,1054.77C876.944,1079.66 698.659,1003.36 698.659,967.466C698.659,931.572 882.683,935.14 1187.92,935.14Z" style="fill:white;stroke:black;stroke-width:25.27px;"/>
                </g>
                <g transform="matrix(1,0,0,1,8.23162,-155.535)">
                    <path d="M811.348,779.142C811.348,779.142 763.505,904.429 778.206,1057.19C778.206,1057.19 1194.44,1028.76 1488.43,942.521C1488.43,942.521 1443.82,700.187 1342.57,645.346C1342.57,645.346 1241.31,651.79 1133.85,684.401C1054.26,708.553 877.598,717.166 811.348,779.142Z" style="fill:white;stroke:black;stroke-width:25.27px;"/>
                </g>
                <g transform="matrix(1,0,0,1,8.23162,-155.535)">
                    <path d="M1477.86,889.437C1477.86,889.437 1393.73,924.35 1130.56,959.213C927.969,986.051 774.4,1003.33 774.4,1003.33C774.4,1003.33 776.514,1039.61 778.206,1057.19C778.206,1057.19 1194.44,1028.76 1488.43,942.521L1477.86,889.437Z" style="fill:white;stroke:black;stroke-width:25.27px;"/>
                </g>
            </g>
            <g id="Jacket">
                <path d="M728.715,975.458C728.715,975.458 985.855,1099.56 1309.38,1137.68C1309.38,1137.68 1220.6,1232.52 1212.13,1278.81C1212.13,1278.81 1385.4,1462.21 1449.93,1775.27C1491.64,1977.65 1526.59,2626.05 1526.59,2626.05C1526.59,2626.05 696.103,2739.1 473.257,2797.31C473.257,2797.31 539.919,2426.58 561.477,2182.82C582.987,1939.6 552.962,1851.14 612.256,1359.9C619.937,1296.26 665.527,1173.06 728.715,1137.68L728.715,975.458Z" style="fill:white;stroke:black;stroke-width:20.85px;"/>
                <path d="M1467.29,1879.68C1467.29,1879.68 1383.03,1624.34 1337.24,1539.41C1304.13,1477.99 1184.41,1432.81 1184.41,1432.81C1184.41,1432.81 1220.6,1232.52 1212.13,1278.81C1212.13,1278.81 1291.86,1361.61 1320.25,1418.32C1464.38,1706.16 1467.29,1879.68 1467.29,1879.68Z" style="fill:white;stroke:black;stroke-width:20.85px;"/>
                <g transform="matrix(0.406452,0,0,0.406452,900.689,1149.93)">
                    <circle cx="1266.7" cy="1840.59" r="39.096"/>
                </g>
                <g transform="matrix(0.406452,0,0,0.406452,916.58,1342.27)">
                    <circle cx="1266.7" cy="1840.59" r="39.096"/>
                </g>
                <g transform="matrix(0.406452,0,0,0.406452,932.471,1563.82)">
                    <circle cx="1266.7" cy="1840.59" r="39.096"/>
                </g>
            </g>
        </g>
        <g transform="matrix(0.995821,-0.091331,0.091331,0.995821,-151.655,99.4599)">
            <g transform="matrix(0.458215,0.888841,-0.888841,0.458215,1132.85,-134.52)">
                <g transform="matrix(0.708372,0,0,1,596.4,0)">
                    <path d="M2045.07,507.674C2045.07,459.323 2100.49,420.068 2168.74,420.068C2237,420.068 2292.41,459.323 2292.41,507.674L2229.51,507.674C2229.51,483.917 2202.28,464.63 2168.74,464.63C2135.2,464.63 2107.98,483.917 2107.98,507.674L2107.98,1900.2L2045.07,1900.2L2045.07,507.674Z" style="fill:white;stroke:black;stroke-width:19.72px;"/>
                </g>
                <g transform="matrix(0.895825,0,0,1.10009,216.79,-73.5664)">
                    <path d="M2120.54,735.016C2120.54,735.016 2121.21,1001.18 2121.21,1135.54C2121.21,1312.07 2092.1,1794.19 2092.1,1794.19L2040.89,1794.19C2040.89,1794.19 2003.08,1312.79 2003.08,1136.26C2003.08,973.79 2011.4,735.016 2011.4,735.016L2040.89,761.032L2066.69,735.016L2090.3,760.889L2120.54,735.016Z" style="fill:white;stroke:black;stroke-width:17.03px;"/>
                </g>
                <g transform="matrix(1,0,0,1,2.11566,-49.8839)">
                    <rect x="2053.88" y="1950.09" width="25.886" height="100.324" style="fill:white;stroke:black;stroke-width:17.08px;"/>
                </g>
            </g>
            <g id="Right-hand" serif:id="Right hand" transform="matrix(1,0,0,1,254.025,146.517)">
                <g transform="matrix(0.663643,0.027929,-0.027929,0.663643,234.976,280.713)">
                    <path d="M1330.34,2220.27C1330.34,2220.27 1455.71,2250.14 1462.21,2310.14C1462.45,2312.4 1408.8,2338.76 1408.8,2338.76C1408.8,2338.76 1373.86,2324.93 1368.65,2321.05C1368.65,2321.05 1439.31,2414.63 1416.88,2496.63C1401.08,2554.41 1268.73,2612.33 1194.51,2559.2C1120.3,2506.07 1072.83,2386.23 1079.02,2364.85" style="fill:white;stroke:black;stroke-width:25.72px;"/>
                </g>
                <path d="M801.703,1136.53C801.703,1136.53 728.801,1394.61 732.784,1512.79C736.768,1630.98 834.27,1867.71 885.394,1929.89L1061.86,1790.54C1061.86,1790.54 949.936,1598.6 945.211,1484.52C940.485,1370.44 990.343,1176.98 990.343,1176.98" style="fill:white;stroke:black;stroke-width:17.08px;"/>
                <g transform="matrix(0.33298,0,0,0.33298,462.439,1246.89)">
                    <circle cx="1266.7" cy="1840.59" r="39.096"/>
                </g>
                <g transform="matrix(1,0,0,1,31.309,-73.8187)">
                    <path d="M851.283,1557.79C851.283,1557.79 879.176,1556.69 910.194,1556.14" style="fill:none;stroke:black;stroke-width:17.08px;"/>
                </g>
                <path d="M945.211,1475.7C898.169,1476.02 882.592,1443.08 882.592,1443.08" style="fill:none;stroke:black;stroke-width:17.08px;"/>
            </g>
        </g>
    </g>
</svg>
